<svg width="30" height="25" viewBox="0 0 30 25" fill="none" xmlns="http://www.w3.org/2000/svg">
<path d="M30 3.5C30 1.84062 28.6594 0.5 27 0.5H9C7.34062 0.5 6 1.84062 6 3.5C6 5.15938 7.34062 6 9 6H18H27C28.6594 6 30 5.15938 30 3.5ZM27 9.5H15C13.3406 9.5 12 10.8406 12 12.5C12 14.1594 13.3406 15 15 15H27C28.6594 15 30 14.1594 30 12.5C30 10.8406 28.6594 9.5 27 9.5ZM27 19H3C1.34062 19 0 19.8406 0 21.5C0 23.1594 1.34062 24.5 3 24.5H27C28.6594 24.5 30 23.1594 30 21.5C30 19.8406 28.6594 19 27 19Z" fill="#F0F8FF"/>
</svg>
