<svg width="36" height="36" viewBox="0 0 36 36" fill="none" xmlns="http://www.w3.org/2000/svg">
<path d="M12.9375 2.25C11.8932 2.25 10.8917 2.66484 10.1533 3.40327C9.41484 4.14169 9 5.14321 9 6.1875V29.8125C9 31.986 10.764 33.75 12.9375 33.75H13.7633L14.4472 31.5H12.9375C12.4899 31.5 12.0607 31.3222 11.7443 31.0057C11.4278 30.6893 11.25 30.2601 11.25 29.8125V6.1875C11.25 5.73995 11.4278 5.31072 11.7443 4.99426C12.0607 4.67779 12.4899 4.5 12.9375 4.5H23.0625C23.5101 4.5 23.9393 4.67779 24.2557 4.99426C24.5722 5.31072 24.75 5.73995 24.75 6.1875V13.5495C25.4985 13.4824 26.2515 13.4824 27 13.5495V6.1875C27 5.14321 26.5852 4.14169 25.8467 3.40327C25.1083 2.66484 24.1068 2.25 23.0625 2.25H12.9375ZM25.875 36C28.0963 35.9998 30.2559 35.2691 32.021 33.9206C33.7861 32.572 35.0587 30.6804 35.6428 28.5373C36.2269 26.3942 36.09 24.1184 35.2532 22.0608C34.4164 20.0031 32.9261 18.2778 31.0121 17.1505C29.0981 16.0233 26.8665 15.5568 24.6612 15.8229C22.4559 16.089 20.3993 17.0729 18.8083 18.6231C17.2173 20.1732 16.1803 22.2036 15.8569 24.4012C15.5336 26.5988 15.9419 28.8418 17.019 30.7845L15.7928 34.8097C15.7453 34.9691 15.7417 35.1383 15.7826 35.2995C15.8234 35.4607 15.907 35.6079 16.0245 35.7255C16.1421 35.843 16.2893 35.9266 16.4505 35.9674C16.6117 36.0083 16.7809 36.0047 16.9402 35.9572L20.9678 34.7332C22.4697 35.5647 24.1583 36.0006 25.875 36ZM20.25 23.625C20.25 23.3266 20.3685 23.0405 20.5795 22.8295C20.7905 22.6185 21.0766 22.5 21.375 22.5H30.375C30.6734 22.5 30.9595 22.6185 31.1705 22.8295C31.3815 23.0405 31.5 23.3266 31.5 23.625C31.5 23.9234 31.3815 24.2095 31.1705 24.4205C30.9595 24.6315 30.6734 24.75 30.375 24.75H21.375C21.0766 24.75 20.7905 24.6315 20.5795 24.4205C20.3685 24.2095 20.25 23.9234 20.25 23.625ZM21.375 29.25C21.0766 29.25 20.7905 29.1315 20.5795 28.9205C20.3685 28.7095 20.25 28.4234 20.25 28.125C20.25 27.8266 20.3685 27.5405 20.5795 27.3295C20.7905 27.1185 21.0766 27 21.375 27H25.875C26.1734 27 26.4595 27.1185 26.6705 27.3295C26.8815 27.5405 27 27.8266 27 28.125C27 28.4234 26.8815 28.7095 26.6705 28.9205C26.4595 29.1315 26.1734 29.25 25.875 29.25H21.375Z" fill="#0184FE"/>
</svg>
