<svg width="25" height="25" viewBox="0 0 25 25" fill="none" xmlns="http://www.w3.org/2000/svg">
<path d="M19.8438 5.11456C18.8888 4.1499 17.7512 3.38505 16.4975 2.86462C15.2439 2.34418 13.8991 2.07859 12.5417 2.08331C6.85417 2.08331 2.21876 6.71873 2.21876 12.4062C2.21876 14.2291 2.69792 16 3.59376 17.5625L2.13542 22.9166L7.60417 21.4791C9.11459 22.3021 10.8125 22.7396 12.5417 22.7396C18.2292 22.7396 22.8646 18.1041 22.8646 12.4166C22.8646 9.65623 21.7917 7.06248 19.8438 5.11456ZM12.5417 20.9896C11 20.9896 9.48959 20.5729 8.16667 19.7916L7.85417 19.6041L4.60417 20.4583L5.46876 17.2916L5.26042 16.9687C4.40391 15.601 3.94911 14.02 3.94792 12.4062C3.94792 7.67706 7.80209 3.8229 12.5313 3.8229C14.8229 3.8229 16.9792 4.71873 18.5938 6.34373C19.3932 7.13953 20.0268 8.08609 20.4577 9.12855C20.8886 10.171 21.1084 11.2886 21.1042 12.4166C21.125 17.1458 17.2708 20.9896 12.5417 20.9896ZM17.25 14.5729C16.9896 14.4479 15.7188 13.8229 15.4896 13.7291C15.25 13.6458 15.0833 13.6041 14.9063 13.8541C14.7292 14.1146 14.2396 14.6979 14.0938 14.8646C13.9479 15.0416 13.7917 15.0625 13.5313 14.9271C13.2708 14.8021 12.4375 14.5208 11.4583 13.6458C10.6875 12.9583 10.1771 12.1146 10.0208 11.8541C9.875 11.5937 10 11.4583 10.1354 11.3229C10.25 11.2083 10.3958 11.0208 10.5208 10.875C10.6458 10.7291 10.6979 10.6146 10.7813 10.4479C10.8646 10.2708 10.8229 10.125 10.7604 9.99998C10.6979 9.87498 10.1771 8.60415 9.96875 8.08331C9.76042 7.58331 9.54167 7.64581 9.38542 7.6354H8.88542C8.70834 7.6354 8.4375 7.6979 8.19792 7.95831C7.96875 8.21873 7.30209 8.84373 7.30209 10.1146C7.30209 11.3854 8.22917 12.6146 8.35417 12.7812C8.47917 12.9583 10.1771 15.5625 12.7604 16.6771C13.375 16.9479 13.8542 17.1041 14.2292 17.2187C14.8438 17.4166 15.4063 17.3854 15.8542 17.3229C16.3542 17.25 17.3854 16.6979 17.5938 16.0937C17.8125 15.4896 17.8125 14.9791 17.7396 14.8646C17.6667 14.75 17.5104 14.6979 17.25 14.5729Z" fill="white"/>
</svg>
