<svg width="30" height="30" viewBox="0 0 30 30" fill="none" xmlns="http://www.w3.org/2000/svg">
<path d="M16.0375 2.72496C15.7118 2.57639 15.358 2.49951 15 2.49951C14.642 2.49951 14.2882 2.57639 13.9625 2.72496L3.25 7.59996C3.02819 7.69776 2.8396 7.85796 2.7072 8.06103C2.57481 8.2641 2.50432 8.50129 2.50432 8.74371C2.50432 8.98613 2.57481 9.22332 2.7072 9.42639C2.8396 9.62946 3.02819 9.78965 3.25 9.88746L13.975 14.775C14.3007 14.9235 14.6545 15.0004 15.0125 15.0004C15.3705 15.0004 15.7243 14.9235 16.05 14.775L26.775 9.89996C26.9968 9.80215 27.1854 9.64196 27.3178 9.43889C27.4502 9.23582 27.5207 8.99863 27.5207 8.75621C27.5207 8.51379 27.4502 8.2766 27.3178 8.07353C27.1854 7.87046 26.9968 7.71026 26.775 7.61246L16.0375 2.72496Z" stroke="#F1991D" stroke-width="3" stroke-linecap="round" stroke-linejoin="round"/>
<path d="M2.5 15C2.49941 15.2391 2.5674 15.4733 2.6959 15.6749C2.8244 15.8766 3.00803 16.0371 3.225 16.1375L13.975 21.025C14.299 21.1717 14.6506 21.2476 15.0063 21.2476C15.3619 21.2476 15.7135 21.1717 16.0375 21.025L26.7625 16.15C26.9838 16.0505 27.1713 15.8889 27.3023 15.6847C27.4332 15.4805 27.5019 15.2426 27.5 15" stroke="#F1991D" stroke-width="3" stroke-linecap="round" stroke-linejoin="round"/>
<path d="M2.5 21.25C2.49941 21.4891 2.5674 21.7233 2.6959 21.9249C2.8244 22.1266 3.00803 22.2871 3.225 22.3875L13.975 27.275C14.299 27.4217 14.6506 27.4976 15.0063 27.4976C15.3619 27.4976 15.7135 27.4217 16.0375 27.275L26.7625 22.4C26.9838 22.3005 27.1713 22.1389 27.3023 21.9347C27.4332 21.7305 27.5019 21.4926 27.5 21.25" stroke="#F1991D" stroke-width="3" stroke-linecap="round" stroke-linejoin="round"/>
</svg>
