<svg width="30" height="30" viewBox="0 0 30 30" fill="none" xmlns="http://www.w3.org/2000/svg">
<path d="M18.75 12.5L17.2088 12.2425C17.1713 12.4664 17.1832 12.6957 17.2434 12.9146C17.3036 13.1334 17.4108 13.3365 17.5575 13.5098C17.7042 13.683 17.8869 13.8222 18.0928 13.9176C18.2987 14.0131 18.523 14.0625 18.75 14.0625V12.5ZM5 12.5V10.9375C4.1375 10.9375 3.4375 11.6375 3.4375 12.5H5ZM7.5 26.5625H21.7V23.4375H7.5V26.5625ZM23.2 10.9375H18.75V14.0625H23.2V10.9375ZM20.2913 12.7575L21.2988 6.7125L18.2163 6.19875L17.2088 12.2437L20.2913 12.7575ZM18.525 3.4375H18.2575V6.5625H18.525V3.4375ZM13.8375 5.80375L10.6925 10.52L13.2925 12.2538L16.4375 7.53625L13.8375 5.80375ZM9.9125 10.9375H5V14.0625H9.9125V10.9375ZM3.4375 12.5V22.5H6.5625V12.5H3.4375ZM25.6838 23.2962L27.1838 15.7963L24.12 15.1838L22.62 22.6838L25.6838 23.2962ZM10.6925 10.52C10.6069 10.6484 10.4909 10.7537 10.3548 10.8265C10.2188 10.8994 10.0668 10.9375 9.9125 10.9375V14.0625C10.5812 14.0625 11.2396 13.8974 11.8293 13.5819C12.4189 13.2664 12.9215 12.8101 13.2925 12.2538L10.6925 10.52ZM21.2988 6.7125C21.3659 6.30952 21.3445 5.89674 21.236 5.50287C21.1275 5.10901 20.9344 4.74352 20.6703 4.43182C20.4062 4.12012 20.0774 3.86971 19.7067 3.69799C19.336 3.52628 18.9335 3.43739 18.525 3.4375V6.5625C18.4797 6.56239 18.4337 6.55243 18.3926 6.5333C18.3515 6.51418 18.3151 6.48635 18.2859 6.45175C18.2566 6.41715 18.2352 6.3766 18.2232 6.33291C18.2112 6.28922 18.2088 6.24345 18.2163 6.19875L21.2988 6.7125ZM23.2 14.0625C23.3388 14.0624 23.4758 14.0931 23.6013 14.1524C23.7267 14.2117 23.8374 14.2981 23.9254 14.4053C24.0135 14.5126 24.0766 14.6381 24.1102 14.7727C24.1439 14.9073 24.1472 15.0477 24.12 15.1838L27.1838 15.7963C27.3015 15.207 27.2871 14.5989 27.1416 14.0159C26.996 13.4329 26.7229 12.8894 26.342 12.4247C25.961 11.96 25.4818 11.5855 24.9387 11.3283C24.3956 11.0712 23.8022 10.9377 23.2013 10.9375L23.2 14.0625ZM21.7 26.5625C22.6392 26.5625 23.5495 26.2371 24.2758 25.6416C25.0021 25.0461 25.4997 24.2173 25.6838 23.2962L22.62 22.6838C22.5775 22.8964 22.4626 23.0878 22.2948 23.2252C22.1271 23.3626 21.9169 23.4377 21.7 23.4375V26.5625ZM18.2575 3.4375C17.3829 3.43761 16.5219 3.65364 15.7508 4.06643C14.9798 4.47921 14.3225 5.07598 13.8375 5.80375L16.4375 7.53625C16.6373 7.23669 16.9079 6.99108 17.2254 6.82121C17.5429 6.65135 17.8974 6.56248 18.2575 6.5625V3.4375ZM7.5 23.4375C7.25136 23.4375 7.0129 23.3387 6.83709 23.1629C6.66127 22.9871 6.5625 22.7486 6.5625 22.5H3.4375C3.4375 23.5774 3.86551 24.6108 4.62738 25.3726C5.38925 26.1345 6.42256 26.5625 7.5 26.5625V23.4375Z" fill="#FF9500"/>
<path d="M10 12.5V25" stroke="#FF9500" stroke-width="2"/>
</svg>
