<svg width="30" height="30" viewBox="0 0 30 30" fill="none" xmlns="http://www.w3.org/2000/svg">
<path d="M15.7812 3.28125C15.7812 3.07405 15.6989 2.87534 15.5524 2.72882C15.4059 2.58231 15.2072 2.5 15 2.5C14.7928 2.5 14.5941 2.58231 14.4476 2.72882C14.3011 2.87534 14.2188 3.07405 14.2188 3.28125V4.375H9.53125C8.82677 4.375 8.15114 4.65485 7.653 5.153C7.15485 5.65114 6.875 6.32677 6.875 7.03125V12.3438C6.875 13.0482 7.15485 13.7239 7.653 14.222C8.15114 14.7201 8.82677 15 9.53125 15H20.4688C21.1732 15 21.8489 14.7201 22.347 14.222C22.8451 13.7239 23.125 13.0482 23.125 12.3438V7.03125C23.125 6.32677 22.8451 5.65114 22.347 5.153C21.8489 4.65485 21.1732 4.375 20.4688 4.375H15.7812V3.28125ZM11.875 11.25C11.4606 11.25 11.0632 11.0854 10.7701 10.7924C10.4771 10.4993 10.3125 10.1019 10.3125 9.6875C10.3125 9.2731 10.4771 8.87567 10.7701 8.58265C11.0632 8.28962 11.4606 8.125 11.875 8.125C12.2894 8.125 12.6868 8.28962 12.9799 8.58265C13.2729 8.87567 13.4375 9.2731 13.4375 9.6875C13.4375 10.1019 13.2729 10.4993 12.9799 10.7924C12.6868 11.0854 12.2894 11.25 11.875 11.25ZM19.6875 9.6875C19.6875 10.1019 19.5229 10.4993 19.2299 10.7924C18.9368 11.0854 18.5394 11.25 18.125 11.25C17.7106 11.25 17.3132 11.0854 17.0201 10.7924C16.7271 10.4993 16.5625 10.1019 16.5625 9.6875C16.5625 9.2731 16.7271 8.87567 17.0201 8.58265C17.3132 8.28962 17.7106 8.125 18.125 8.125C18.5394 8.125 18.9368 8.28962 19.2299 8.58265C19.5229 8.87567 19.6875 9.2731 19.6875 9.6875ZM5 20.1562C5 19.4518 5.27985 18.7761 5.778 18.278C6.27614 17.7799 6.95177 17.5 7.65625 17.5H22.3438C23.0482 17.5 23.7239 17.7799 24.222 18.278C24.7201 18.7761 25 19.4518 25 20.1562V20.8125C25 22.7837 24.0406 24.4925 22.29 25.6781C20.5625 26.8481 18.0875 27.5 15 27.5C11.9125 27.5 9.4375 26.8481 7.71 25.6781C5.95938 24.4925 5 22.7837 5 20.8125V20.1562Z" fill="#0184FE"/>
</svg>
