<svg width="30" height="30" viewBox="0 0 30 30" fill="none" xmlns="http://www.w3.org/2000/svg">
<path d="M15 3.75366C14.508 3.75366 14.0209 3.85056 13.5664 4.03883C13.1119 4.22709 12.6989 4.50304 12.351 4.85091C12.0031 5.19878 11.7272 5.61177 11.5389 6.06628C11.3506 6.5208 11.2537 7.00795 11.2537 7.49991C11.2537 7.99188 11.3506 8.47902 11.5389 8.93354C11.7272 9.38806 12.0031 9.80104 12.351 10.1489C12.6989 10.4968 13.1119 10.7727 13.5664 10.961C14.0209 11.1493 14.508 11.2462 15 11.2462C15.9936 11.2462 16.9464 10.8515 17.649 10.1489C18.3516 9.44635 18.7463 8.49348 18.7463 7.49991C18.7463 6.50634 18.3516 5.55347 17.649 4.85091C16.9464 4.14835 15.9936 3.75366 15 3.75366ZM23.4375 5.62491C22.6916 5.62491 21.9762 5.92123 21.4488 6.44867C20.9213 6.97612 20.625 7.69149 20.625 8.43741C20.625 9.18333 20.9213 9.8987 21.4488 10.4262C21.9762 10.9536 22.6916 11.2499 23.4375 11.2499C24.1834 11.2499 24.8988 10.9536 25.4262 10.4262C25.9537 9.8987 26.25 9.18333 26.25 8.43741C26.25 7.69149 25.9537 6.97612 25.4262 6.44867C24.8988 5.92123 24.1834 5.62491 23.4375 5.62491ZM6.5625 5.62491C5.81658 5.62491 5.10121 5.92123 4.57376 6.44867C4.04632 6.97612 3.75 7.69149 3.75 8.43741C3.75 9.18333 4.04632 9.8987 4.57376 10.4262C5.10121 10.9536 5.81658 11.2499 6.5625 11.2499C7.30842 11.2499 8.02379 10.9536 8.55124 10.4262C9.07868 9.8987 9.375 9.18333 9.375 8.43741C9.375 7.69149 9.07868 6.97612 8.55124 6.44867C8.02379 5.92123 7.30842 5.62491 6.5625 5.62491ZM9.375 14.9868C9.37847 14.4918 9.57754 14.0182 9.92879 13.6694C10.28 13.3206 10.755 13.1249 11.25 13.1249H18.75C19.2473 13.1249 19.7242 13.3225 20.0758 13.6741C20.4275 14.0257 20.625 14.5026 20.625 14.9999V20.6249C20.6255 21.2151 20.5331 21.8016 20.3513 22.363C19.9361 23.6356 19.0808 24.7185 17.9391 25.4172C16.7974 26.116 15.4439 26.3848 14.1218 26.1754C12.7997 25.9661 11.5955 25.2922 10.7255 24.2749C9.85553 23.2576 9.37669 21.9635 9.375 20.6249V14.9868ZM7.5 14.9999C7.5 14.3155 7.68188 13.6762 8.0025 13.1249H3.75C3.25272 13.1249 2.77581 13.3225 2.42417 13.6741C2.07254 14.0257 1.875 14.5026 1.875 14.9999V19.6874C1.87474 20.4549 2.06292 21.2106 2.42301 21.8884C2.7831 22.5661 3.30408 23.145 3.9402 23.5744C4.57633 24.0037 5.30813 24.2703 6.07136 24.3507C6.83458 24.4311 7.60587 24.3229 8.3175 24.0355C7.77899 22.9787 7.49882 21.8092 7.5 20.623V14.9999ZM22.5 14.9999V20.6249C22.5 21.853 22.2056 23.0118 21.6825 24.0355C22.3941 24.3229 23.1654 24.4311 23.9286 24.3507C24.6919 24.2703 25.4237 24.0037 26.0598 23.5744C26.6959 23.145 27.2169 22.5661 27.577 21.8884C27.9371 21.2106 28.1253 20.4549 28.125 19.6874V14.9999C28.125 14.5026 27.9275 14.0257 27.5758 13.6741C27.2242 13.3225 26.7473 13.1249 26.25 13.1249H21.9975C22.3163 13.6762 22.5 14.3155 22.5 14.9999Z" fill="#FF9500"/>
</svg>
