<svg width="36" height="36" viewBox="0 0 36 36" fill="none" xmlns="http://www.w3.org/2000/svg">
<g clip-path="url(#clip0_46_256)">
<path d="M31.5 12C32.2956 12 33.0587 12.316 33.6213 12.8787C34.1839 13.4413 34.5 14.2043 34.5 15V21C34.5 21.7956 34.1839 22.5587 33.6213 23.1213C33.0587 23.6839 32.2956 24 31.5 24H29.907C29.5416 26.9001 28.1303 29.5671 25.938 31.5003C23.7456 33.4336 20.923 34.5002 18 34.5V31.5C20.3869 31.5 22.6761 30.5518 24.364 28.8639C26.0518 27.1761 27 24.8869 27 22.5V13.5C27 11.113 26.0518 8.82384 24.364 7.13601C22.6761 5.44818 20.3869 4.49997 18 4.49997C15.6131 4.49997 13.3239 5.44818 11.636 7.13601C9.94821 8.82384 9 11.113 9 13.5V24H4.5C3.70435 24 2.94129 23.6839 2.37868 23.1213C1.81607 22.5587 1.5 21.7956 1.5 21V15C1.5 14.2043 1.81607 13.4413 2.37868 12.8787C2.94129 12.316 3.70435 12 4.5 12H6.093C6.45905 9.10032 7.87062 6.43388 10.0629 4.50099C12.2551 2.56809 15.0773 1.50159 18 1.50159C20.9227 1.50159 23.7449 2.56809 25.9371 4.50099C28.1294 6.43388 29.541 9.10032 29.907 12H31.5ZM11.64 23.6775L13.23 21.1335C14.6595 22.0292 16.313 22.5029 18 22.5C19.687 22.5029 21.3405 22.0292 22.77 21.1335L24.36 23.6775C22.454 24.8719 20.2493 25.5037 18 25.5C15.7507 25.5037 13.546 24.8719 11.64 23.6775Z" fill="#0184FE"/>
</g>
<defs>
<clipPath id="clip0_46_256">
<rect width="36" height="36" fill="white"/>
</clipPath>
</defs>
</svg>
