<svg width="35" height="35" viewBox="0 0 35 35" fill="none" xmlns="http://www.w3.org/2000/svg">
<path d="M0.978424 0.978424C1.6051 0.351939 2.45494 0 3.34105 0C4.22717 0 5.07701 0.351939 5.70368 0.978424L17.5202 12.7949L29.3367 0.978424C29.9669 0.369694 30.8111 0.0328628 31.6873 0.0404768C32.5635 0.0480907 33.4016 0.399541 34.0212 1.01913C34.6408 1.63872 34.9923 2.47688 34.9999 3.35308C35.0075 4.22928 34.6707 5.07342 34.0619 5.70368L22.2454 17.5202L34.0619 29.3367C34.6707 29.9669 35.0075 30.8111 34.9999 31.6873C34.9923 32.5635 34.6408 33.4016 34.0212 34.0212C33.4016 34.6408 32.5635 34.9923 31.6873 34.9999C30.8111 35.0075 29.9669 34.6707 29.3367 34.0619L17.5202 22.2454L5.70368 34.0619C5.07342 34.6707 4.22928 35.0075 3.35308 34.9999C2.47688 34.9923 1.63872 34.6408 1.01913 34.0212C0.399541 33.4016 0.0480907 32.5635 0.0404768 31.6873C0.0328628 30.8111 0.369694 29.9669 0.978424 29.3367L12.7949 17.5202L0.978424 5.70368C0.351939 5.07701 0 4.22717 0 3.34105C0 2.45494 0.351939 1.6051 0.978424 0.978424Z" fill="#0184FE"/>
</svg>
