<svg width="30" height="30" viewBox="0 0 30 30" fill="none" xmlns="http://www.w3.org/2000/svg">
<g clip-path="url(#clip0_43_140)">
<path d="M22.125 11.4936C22.2335 11.3613 22.3144 11.2085 22.3628 11.0443C22.4113 10.8802 22.4264 10.708 22.4071 10.5379C22.3879 10.3678 22.3348 10.2033 22.2509 10.0541C22.167 9.90494 22.0541 9.77407 21.9187 9.66927C21.6435 9.45392 21.295 9.35458 20.9476 9.3924C20.6001 9.43023 20.2812 9.60223 20.0587 9.87177L13.8525 17.4843L10.5337 14.9343C10.2626 14.7136 9.91609 14.6076 9.56794 14.6388C9.21979 14.6699 8.89759 14.8359 8.67 15.1011C8.55881 15.2313 8.47482 15.3823 8.42301 15.5454C8.3712 15.7086 8.35261 15.8804 8.36834 16.0508C8.38408 16.2213 8.43381 16.3868 8.5146 16.5377C8.5954 16.6886 8.70562 16.8217 8.83875 16.9293L13.1887 20.323C13.4634 20.5465 13.8154 20.6522 14.1677 20.617C14.5201 20.5819 14.8442 20.4088 15.0694 20.1355L22.1194 11.473L22.125 11.4936Z" fill="#FF9500"/>
<path fill-rule="evenodd" clip-rule="evenodd" d="M12.2063 1.33885C13.2075 0.603852 13.7081 0.236352 14.25 0.0938519C14.7342 -0.0290053 15.2414 -0.0290053 15.7256 0.0938519C16.2731 0.236352 16.7756 0.603852 17.7694 1.33885L19.0388 2.27073C19.3856 2.52573 19.56 2.65323 19.7475 2.7526C19.915 2.8401 20.0894 2.9126 20.2706 2.9701C20.475 3.03198 20.6869 3.06385 21.1125 3.12948L22.6688 3.3676C23.8969 3.5551 24.51 3.65073 24.9938 3.9376C25.425 4.19073 25.785 4.55073 26.0381 4.98198C26.325 5.46948 26.4188 6.08448 26.6081 7.30698L26.8463 8.86323C26.9119 9.28885 26.9438 9.5026 27.0056 9.70698C27.0619 9.88823 27.1344 10.062 27.2231 10.2282C27.3244 10.4157 27.45 10.5901 27.705 10.937L28.6369 12.2064C29.3719 13.2076 29.7394 13.7082 29.8819 14.2501C30.0047 14.7343 30.0047 15.2415 29.8819 15.7257C29.7413 16.2732 29.3719 16.7757 28.6369 17.7695L27.705 19.0389C27.5266 19.2625 27.3655 19.4994 27.2231 19.7476C27.1342 19.9153 27.0614 20.0911 27.0056 20.2726C26.9438 20.4751 26.9119 20.687 26.8463 21.1126L26.6081 22.6688C26.4206 23.897 26.325 24.5101 26.0381 24.9939C25.785 25.4251 25.425 25.7832 24.9938 26.0382C24.5063 26.3251 23.8913 26.4189 22.6688 26.6082L21.1125 26.8464C20.8282 26.8786 20.5467 26.9325 20.2706 27.0076C20.0894 27.0626 19.915 27.1351 19.7475 27.2251C19.56 27.3245 19.3856 27.4501 19.0388 27.707L17.7694 28.6388C16.7681 29.3738 16.2675 29.7414 15.7256 29.8839C15.2414 30.0067 14.7342 30.0067 14.25 29.8839C13.7025 29.7414 13.2 29.3738 12.2063 28.6388L10.9369 27.707C10.7132 27.5286 10.4763 27.3675 10.2281 27.2251C10.061 27.1363 9.88585 27.0634 9.705 27.0076C9.42889 26.9325 9.14745 26.8786 8.86313 26.8464L7.30688 26.6082C6.07875 26.4207 5.46375 26.327 4.98188 26.0382C4.55216 25.7826 4.19315 25.4236 3.9375 24.9939C3.65063 24.5064 3.55688 23.8913 3.3675 22.6688L3.12938 21.1126C3.06375 20.687 3.03188 20.4751 2.97 20.2707C2.9153 20.0895 2.84243 19.9142 2.7525 19.7476C2.61014 19.4994 2.44904 19.2625 2.27063 19.0389L1.33875 17.7695C0.603753 16.7682 0.236253 16.2695 0.0937527 15.7257C-0.0291045 15.2415 -0.0291045 14.7343 0.0937527 14.2501C0.234378 13.7026 0.603753 13.2001 1.33875 12.2064L2.27063 10.937C2.52563 10.5901 2.65313 10.4157 2.7525 10.2282C2.84 10.0607 2.9125 9.88635 2.97 9.7051C3.03188 9.50073 3.06375 9.28885 3.12938 8.86323L3.3675 7.30698C3.555 6.07885 3.65063 5.46385 3.9375 4.98198C4.19063 4.55073 4.55063 4.19448 4.98188 3.9376C5.46938 3.65073 6.08438 3.55698 7.30688 3.3676L8.86313 3.12948C9.28875 3.06573 9.5025 3.03198 9.705 2.9701C9.88625 2.91385 10.0606 2.84135 10.2281 2.7526C10.4156 2.65323 10.59 2.52573 10.9369 2.27073L12.2063 1.33885ZM16.6688 2.8501L18.0019 3.82885C18.285 4.03698 18.5644 4.24135 18.8756 4.40823C19.1506 4.55448 19.4356 4.6726 19.7306 4.7626C20.0679 4.85586 20.4112 4.9254 20.7581 4.97073L22.3931 5.22198C23.7825 5.43573 23.955 5.49385 24.0563 5.55385C24.215 5.64885 24.3413 5.7751 24.435 5.9326C24.495 6.03385 24.555 6.20635 24.7669 7.59573L25.0181 9.23073C25.0635 9.57766 25.133 9.921 25.2263 10.2582C25.3175 10.5557 25.4356 10.8407 25.5806 11.1132C25.7456 11.4245 25.9519 11.7039 26.16 11.987L27.1388 13.3201C27.9713 14.4526 28.05 14.6157 28.08 14.732C28.1232 14.9081 28.1232 15.0921 28.08 15.2682C28.05 15.3826 27.9713 15.5457 27.1388 16.6801L26.16 18.0132C25.9519 18.2964 25.7456 18.5757 25.5806 18.887C25.4357 19.1601 25.317 19.4464 25.2263 19.742C25.133 20.0792 25.0635 20.4225 25.0181 20.7695L24.7669 22.4045C24.5531 23.7938 24.495 23.9664 24.435 24.0676C24.3411 24.2225 24.2112 24.3524 24.0563 24.4464C23.955 24.5064 23.7825 24.5664 22.3931 24.7782L20.7581 25.0295C20.4112 25.0748 20.0679 25.1443 19.7306 25.2376C19.435 25.3283 19.1487 25.447 18.8756 25.592C18.5644 25.757 18.285 25.9632 18.0019 26.1714L16.6688 27.1501C15.5363 27.9826 15.3731 28.0614 15.2569 28.0914C15.0807 28.1346 14.8968 28.1346 14.7206 28.0914C14.6063 28.0614 14.4431 27.9826 13.3088 27.1501L11.9756 26.1714C11.6982 25.9581 11.4063 25.7645 11.1019 25.592C10.8288 25.447 10.5425 25.3283 10.2469 25.2376C9.90965 25.1443 9.56631 25.0748 9.21938 25.0295L7.58438 24.7782C6.195 24.5645 6.0225 24.5064 5.92125 24.4464C5.76635 24.3524 5.63642 24.2225 5.5425 24.0676C5.4825 23.9664 5.4225 23.7938 5.21063 22.4045L4.95938 20.7695C4.91405 20.4225 4.84451 20.0792 4.75125 19.742C4.66051 19.4464 4.54185 19.1601 4.39688 18.887C4.23188 18.5757 4.02563 18.2964 3.8175 18.0132L2.83875 16.6801C2.00625 15.5476 1.9275 15.3845 1.8975 15.2682C1.85428 15.0921 1.85428 14.9081 1.8975 14.732C1.9275 14.6176 2.00625 14.4545 2.83875 13.3201L3.8175 11.987C4.02563 11.7039 4.23188 11.4245 4.39688 11.1132C4.54188 10.8382 4.66 10.5532 4.75125 10.2582C4.84451 9.921 4.91405 9.57766 4.95938 9.23073L5.21063 7.59573C5.42438 6.20635 5.4825 6.03385 5.5425 5.9326C5.63642 5.7777 5.76635 5.64777 5.92125 5.55385C6.0225 5.49385 6.195 5.43385 7.58438 5.22198L9.21938 4.97073C9.56631 4.9254 9.90965 4.85586 10.2469 4.7626C10.5444 4.67135 10.8294 4.55323 11.1019 4.40823C11.4131 4.24323 11.6925 4.03698 11.9756 3.82885L13.3088 2.8501C14.4413 2.0176 14.6044 1.93885 14.7206 1.90885C14.8968 1.86563 15.0807 1.86563 15.2569 1.90885C15.3713 1.93885 15.5344 2.0176 16.6688 2.8501Z" fill="#FF9500"/>
</g>
<defs>
<clipPath id="clip0_43_140">
<rect width="30" height="30" fill="white"/>
</clipPath>
</defs>
</svg>
