<svg width="30" height="30" viewBox="0 0 30 30" fill="none" xmlns="http://www.w3.org/2000/svg">
<path d="M22.5 12.5H17.5V7.5C17.5 6.83696 17.2366 6.20107 16.7678 5.73223C16.2989 5.26339 15.663 5 15 5C14.337 5 13.7011 5.26339 13.2322 5.73223C12.7634 6.20107 12.5 6.83696 12.5 7.5L12.5887 12.5H7.5C6.83696 12.5 6.20107 12.7634 5.73223 13.2322C5.26339 13.7011 5 14.337 5 15C5 15.663 5.26339 16.2989 5.73223 16.7678C6.20107 17.2366 6.83696 17.5 7.5 17.5L12.5887 17.4113L12.5 22.5C12.5 23.163 12.7634 23.7989 13.2322 24.2678C13.7011 24.7366 14.337 25 15 25C15.663 25 16.2989 24.7366 16.7678 24.2678C17.2366 23.7989 17.5 23.163 17.5 22.5V17.4113L22.5 17.5C23.163 17.5 23.7989 17.2366 24.2678 16.7678C24.7366 16.2989 25 15.663 25 15C25 14.337 24.7366 13.7011 24.2678 13.2322C23.7989 12.7634 23.163 12.5 22.5 12.5Z" fill="#0A447F"/>
</svg>
