<svg width="43" height="43" viewBox="0 0 43 43" fill="none" xmlns="http://www.w3.org/2000/svg">
<path d="M26.875 17.9166L24.6659 17.5476C24.6123 17.8685 24.6292 18.1972 24.7155 18.5109C24.8019 18.8246 24.9555 19.1157 25.1658 19.364C25.376 19.6123 25.6378 19.8117 25.933 19.9486C26.2282 20.0854 26.5497 20.1563 26.875 20.1562V17.9166ZM7.16667 17.9166V15.6771C5.93042 15.6771 4.92709 16.6804 4.92709 17.9166H7.16667ZM10.75 38.0729H31.1033V33.5937H10.75V38.0729ZM33.2533 15.6771H26.875V20.1562H33.2533V15.6771ZM29.0841 18.2857L30.5282 9.62123L26.11 8.88485L24.6659 17.5494L29.0841 18.2857ZM26.5525 4.92706H26.1691V9.40623H26.5525V4.92706ZM19.8338 8.31869L15.3259 15.0786L19.0526 17.5637L23.5604 10.8019L19.8338 8.31869ZM14.2079 15.6771H7.16667V20.1562H14.2079V15.6771ZM4.92709 17.9166V32.25H9.40625V17.9166H4.92709ZM36.8134 33.3913L38.9634 22.6413L34.572 21.7634L32.422 32.5134L36.8134 33.3913ZM15.3259 15.0786C15.2032 15.2627 15.037 15.4136 14.8419 15.518C14.6469 15.6224 14.4291 15.677 14.2079 15.6771V20.1562C15.1664 20.1562 16.1102 19.9196 16.9553 19.4673C17.8004 19.0151 18.5208 18.3612 19.0526 17.5637L15.3259 15.0786ZM30.5282 9.62123C30.6245 9.04362 30.5938 8.45197 30.4383 7.88743C30.2827 7.32289 30.006 6.79902 29.6275 6.35225C29.2489 5.90549 28.7776 5.54656 28.2462 5.30044C27.7149 5.05431 27.1381 4.9269 26.5525 4.92706V9.40623C26.4876 9.40607 26.4216 9.39179 26.3628 9.36438C26.3039 9.33697 26.2517 9.29708 26.2097 9.24748C26.1678 9.19789 26.1372 9.13977 26.1199 9.07715C26.1027 9.01453 26.0993 8.94892 26.11 8.88485L30.5282 9.62123ZM33.2533 20.1562C33.4522 20.1561 33.6487 20.2001 33.8285 20.2851C34.0083 20.37 34.167 20.4939 34.2931 20.6476C34.4193 20.8014 34.5097 20.9812 34.558 21.1741C34.6062 21.3671 34.611 21.5683 34.572 21.7634L38.9634 22.6413C39.1322 21.7967 39.1115 20.9251 38.9029 20.0895C38.6943 19.2538 38.3028 18.4748 37.7568 17.8087C37.2108 17.1426 36.5239 16.6059 35.7454 16.2373C34.967 15.8686 34.1164 15.6773 33.2551 15.6771L33.2533 20.1562ZM31.1033 38.0729C32.4496 38.0729 33.7542 37.6065 34.7953 36.7529C35.8364 35.8993 36.5495 34.7114 36.8134 33.3913L32.422 32.5134C32.3611 32.8182 32.1964 33.0924 31.9559 33.2894C31.7155 33.4864 31.4142 33.594 31.1033 33.5937V38.0729ZM26.1691 4.92706C24.9155 4.92722 23.6813 5.23687 22.5762 5.82853C21.471 6.42019 20.529 7.27555 19.8338 8.31869L23.5604 10.8019C23.8468 10.3726 24.2347 10.0205 24.6898 9.77705C25.1448 9.53358 25.653 9.4062 26.1691 9.40623V4.92706ZM10.75 33.5937C10.3936 33.5937 10.0518 33.4522 9.79983 33.2002C9.54783 32.9482 9.40625 32.6064 9.40625 32.25H4.92709C4.92709 33.7943 5.54057 35.2754 6.63258 36.3674C7.72459 37.4594 9.20567 38.0729 10.75 38.0729V33.5937Z" fill="#FF9500"/>
<path d="M14.3333 17.9166V35.8333" stroke="#FF9500" stroke-width="4.47917"/>
</svg>
