<svg width="36" height="36" viewBox="0 0 36 36" fill="none" xmlns="http://www.w3.org/2000/svg">
<g clip-path="url(#clip0_54_145)">
<path d="M13.5 2.25C13.7984 2.25 14.0845 2.36853 14.2955 2.5795C14.5065 2.79048 14.625 3.07663 14.625 3.375V4.5H19.125C20.0201 4.5 20.8786 4.85558 21.5115 5.48851C22.1444 6.12145 22.5 6.97989 22.5 7.875V9.18675C22.233 9.28125 21.9802 9.41325 21.7418 9.58275C21.2017 9.96525 20.7968 10.5052 20.5493 11.1825L19.7617 13.5945C19.6294 13.9929 19.406 14.355 19.1092 14.652C18.8167 14.9468 18.4545 15.1943 18.0945 15.3068L15.6398 16.0942C15.1965 16.2508 14.793 16.5025 14.4575 16.8318C14.1221 17.161 13.8628 17.5598 13.698 18H7.875C6.97989 18 6.12145 17.6444 5.48851 17.0115C4.85558 16.3786 4.5 15.5201 4.5 14.625V7.875C4.5 6.97989 4.85558 6.12145 5.48851 5.48851C6.12145 4.85558 6.97989 4.5 7.875 4.5H12.375V3.375C12.375 3.07663 12.4935 2.79048 12.7045 2.5795C12.9155 2.36853 13.2016 2.25 13.5 2.25ZM15.6825 22.158C15.2086 22.0001 14.779 21.7317 14.4293 21.375H5.625C4.72989 21.375 3.87145 21.7306 3.23851 22.3635C2.60558 22.9964 2.25 23.8549 2.25 24.75V25.5375C2.25 28.4738 3.6 30.6 5.7465 31.9342C7.82775 33.228 10.5975 33.75 13.5 33.75C16.4183 33.75 19.188 33.2302 21.267 31.9342C21.741 31.6418 22.1715 31.3095 22.5585 30.9375C22.444 30.3314 22.5211 29.7046 22.779 29.1443C22.419 29.0543 22.0815 28.8967 21.7665 28.6717C21.2315 28.2799 20.8238 27.7392 20.5942 27.117L19.7843 24.66C19.5818 24.1425 19.3793 23.85 19.1318 23.6025C18.8296 23.3107 18.4682 23.0874 18.072 22.9478L15.6825 22.158ZM10.125 12.9375C10.5726 12.9375 11.0018 12.7597 11.3182 12.4432C11.6347 12.1268 11.8125 11.6976 11.8125 11.25C11.8125 10.8024 11.6347 10.3732 11.3182 10.0568C11.0018 9.74029 10.5726 9.5625 10.125 9.5625C9.67745 9.5625 9.24822 9.74029 8.93176 10.0568C8.61529 10.3732 8.4375 10.8024 8.4375 11.25C8.4375 11.6976 8.61529 12.1268 8.93176 12.4432C9.24822 12.7597 9.67745 12.9375 10.125 12.9375ZM18.5625 11.25C18.5625 10.8024 18.3847 10.3732 18.0682 10.0568C17.7518 9.74029 17.3226 9.5625 16.875 9.5625C16.4274 9.5625 15.9982 9.74029 15.6818 10.0568C15.3653 10.3732 15.1875 10.8024 15.1875 11.25C15.1875 11.6976 15.3653 12.1268 15.6818 12.4432C15.9982 12.7597 16.4274 12.9375 16.875 12.9375C17.3226 12.9375 17.7518 12.7597 18.0682 12.4432C18.3847 12.1268 18.5625 11.6976 18.5625 11.25ZM24.4755 11.8845L25.2585 14.2943C25.5013 15.0272 25.9122 15.6932 26.4584 16.239C27.0046 16.7848 27.6709 17.1952 28.404 17.4375L30.816 18.2205L30.8633 18.234C31.0491 18.2994 31.2101 18.4209 31.3239 18.5817C31.4378 18.7425 31.499 18.9347 31.499 19.1318C31.499 19.3288 31.4378 19.521 31.3239 19.6818C31.2101 19.8426 31.0491 19.9641 30.8633 20.0295L28.4535 20.8125C27.72 21.0545 27.0532 21.4648 26.5066 22.0106C25.9601 22.5564 25.5488 23.2226 25.3057 23.9558L24.5228 26.3633C24.4573 26.5491 24.3358 26.7101 24.175 26.8239C24.0142 26.9378 23.822 26.999 23.625 26.999C23.428 26.999 23.2358 26.9378 23.075 26.8239C22.9142 26.7101 22.7927 26.5491 22.7272 26.3633L21.9443 23.9558C21.6629 23.1033 21.155 22.3435 20.475 21.7575C19.9833 21.3305 19.4121 21.0048 18.7942 20.799L16.3822 20.016C16.1964 19.9506 16.0354 19.8291 15.9216 19.6683C15.8077 19.5075 15.7465 19.3153 15.7465 19.1182C15.7465 18.9212 15.8077 18.729 15.9216 18.5682C16.0354 18.4074 16.1964 18.2859 16.3822 18.2205L18.7942 17.4375C19.5186 17.189 20.1755 16.7757 20.7131 16.2303C21.2507 15.6849 21.6544 15.0221 21.8925 14.2943L22.6755 11.8868C22.7405 11.7001 22.8619 11.5383 23.023 11.4238C23.184 11.3093 23.3768 11.2478 23.5744 11.2478C23.772 11.2478 23.9647 11.3093 24.1258 11.4238C24.2869 11.5383 24.4083 11.7001 24.4732 11.8868M35.5095 29.7315L33.7882 29.1735C33.2647 28.9995 32.7888 28.706 32.3983 28.3162C32.0078 27.9265 31.7133 27.4512 31.5382 26.928L30.9802 25.2068C30.9337 25.0738 30.8469 24.9587 30.7321 24.8772C30.6172 24.7958 30.4798 24.752 30.339 24.752C30.1982 24.752 30.0608 24.7958 29.9459 24.8772C29.8311 24.9587 29.7443 25.0738 29.6978 25.2068L29.1353 26.928C28.964 27.4471 28.6754 27.9198 28.2918 28.3093C27.9082 28.6987 27.44 28.9945 26.9235 29.1735L25.2023 29.7315C25.1032 29.7668 25.0136 29.8245 24.9406 29.9001C24.8676 29.9758 24.813 30.0673 24.7812 30.1675C24.7494 30.2677 24.7412 30.3739 24.7572 30.4778C24.7733 30.5818 24.8132 30.6806 24.8738 30.7665C24.9548 30.879 25.0695 30.969 25.2023 31.014L26.9235 31.5742C27.448 31.7492 27.9245 32.044 28.3151 32.4354C28.7057 32.8268 28.9996 33.3039 29.1735 33.8288L29.7315 35.5477C29.7781 35.6807 29.8648 35.7958 29.9797 35.8773C30.0946 35.9587 30.2319 36.0025 30.3727 36.0025C30.5136 36.0025 30.6509 35.9587 30.7658 35.8773C30.8807 35.7958 30.9674 35.6807 31.014 35.5477L31.5742 33.8288C31.7488 33.3054 32.0428 32.8298 32.4329 32.4396C32.823 32.0495 33.2986 31.7555 33.822 31.581L35.5433 31.023C35.6762 30.9764 35.7913 30.8897 35.8728 30.7748C35.9542 30.6599 35.998 30.5226 35.998 30.3818C35.998 30.2409 35.9542 30.1036 35.8728 29.9887C35.7913 29.8738 35.6762 29.7871 35.5433 29.7405L35.5095 29.7315Z" fill="#0184FE"/>
</g>
<defs>
<clipPath id="clip0_54_145">
<rect width="36" height="36" fill="white"/>
</clipPath>
</defs>
</svg>
