<svg width="40" height="40" viewBox="0 0 40 40" fill="none" xmlns="http://www.w3.org/2000/svg">
<g clip-path="url(#clip0_43_197)">
<path d="M19.75 0C24.988 0 30.0115 2.0808 33.7154 5.78464C37.4192 9.48848 39.5 14.512 39.5 19.75C39.5 24.988 37.4192 30.0115 33.7154 33.7153C30.0115 37.4192 24.988 39.5 19.75 39.5C14.512 39.5 9.48848 37.4192 5.78464 33.7153C2.0808 30.0115 0 24.988 0 19.75C0 14.512 2.0808 9.48848 5.78464 5.78464C9.48848 2.0808 14.512 0 19.75 0ZM3.70312 19.75C3.70312 24.0059 5.39377 28.0875 8.40314 31.0968C11.4125 34.1062 15.4941 35.7969 19.75 35.7969C24.0059 35.7969 28.0875 34.1062 31.0968 31.0968C34.1062 28.0875 35.7969 24.0059 35.7969 19.75C35.7969 15.4941 34.1062 11.4125 31.0968 8.40314C28.0875 5.39377 24.0059 3.70312 19.75 3.70312C15.4941 3.70312 11.4125 5.39377 8.40314 8.40314C5.39377 11.4125 3.70312 15.4941 3.70312 19.75ZM15.7482 12.9042L26.2749 19.2217C26.3659 19.2766 26.4411 19.3541 26.4933 19.4467C26.5456 19.5392 26.573 19.6437 26.573 19.75C26.573 19.8563 26.5456 19.9607 26.4933 20.0533C26.4411 20.1459 26.3659 20.2234 26.2749 20.2783L15.7482 26.5958C15.6545 26.6522 15.5476 26.6827 15.4384 26.6843C15.3291 26.6858 15.2214 26.6583 15.1262 26.6046C15.0311 26.5509 14.9519 26.4728 14.8968 26.3785C14.8416 26.2841 14.8126 26.1768 14.8125 26.0675V13.4349C14.8121 13.3254 14.8409 13.2178 14.8958 13.1231C14.9508 13.0284 15.0299 12.95 15.1251 12.896C15.2204 12.842 15.3283 12.8143 15.4378 12.8157C15.5472 12.8171 15.6544 12.8477 15.7482 12.9042Z" fill="white"/>
</g>
<defs>
<clipPath id="clip0_43_197">
<rect width="39.5" height="39.5" fill="white"/>
</clipPath>
</defs>
</svg>
