<svg width="30" height="30" viewBox="0 0 30 30" fill="none" xmlns="http://www.w3.org/2000/svg">
<path d="M20.625 6.875C21.288 6.875 21.9239 6.61161 22.3928 6.14277C22.8616 5.67393 23.125 5.03804 23.125 4.375C23.125 3.71196 22.8616 3.07607 22.3928 2.60723C21.9239 2.13839 21.288 1.875 20.625 1.875C19.962 1.875 19.3261 2.13839 18.8572 2.60723C18.3884 3.07607 18.125 3.71196 18.125 4.375C18.125 5.03804 18.3884 5.67393 18.8572 6.14277C19.3261 6.61161 19.962 6.875 20.625 6.875ZM16.125 24.25L17.375 18.75L20 21.25V28.75H22.5V19.375L19.875 16.875L20.625 13.125C21.4815 14.1064 22.5382 14.8931 23.724 15.4321C24.9099 15.9711 26.1974 16.25 27.5 16.25V13.75C25.3 13.7875 23.25 12.6375 22.125 10.75L20.875 8.75C20.425 8 19.625 7.5 18.75 7.5C18.375 7.5 18.125 7.625 17.75 7.625L11.25 10.375V16.25H13.75V12L16 11.125L14 21.25L7.875 20L7.375 22.5L16.125 24.25ZM5 11.25C4.66848 11.25 4.35054 11.1183 4.11612 10.8839C3.8817 10.6495 3.75 10.3315 3.75 10C3.75 9.66848 3.8817 9.35054 4.11612 9.11612C4.35054 8.8817 4.66848 8.75 5 8.75H8.75V11.25H5ZM6.25 6.25C5.91848 6.25 5.60054 6.1183 5.36612 5.88388C5.1317 5.64946 5 5.33152 5 5C5 4.66848 5.1317 4.35054 5.36612 4.11612C5.60054 3.8817 5.91848 3.75 6.25 3.75H12.5V6.25H6.25ZM3.75 16.25C3.41848 16.25 3.10054 16.1183 2.86612 15.8839C2.6317 15.6495 2.5 15.3315 2.5 15C2.5 14.6685 2.6317 14.3505 2.86612 14.1161C3.10054 13.8817 3.41848 13.75 3.75 13.75H8.75V16.25H3.75Z" fill="#FF9500"/>
</svg>
