<svg width="29" height="29" viewBox="0 0 29 29" fill="none" xmlns="http://www.w3.org/2000/svg">
<path d="M18.125 13.2917V13.3038M6.2507 10.1234C5.72073 9.71612 5.31369 9.17019 5.07459 8.546C4.83548 7.92181 4.77361 7.24366 4.89582 6.5865C5.01803 5.92935 5.31955 5.31878 5.76707 4.82228C6.21459 4.32577 6.79067 3.96267 7.43165 3.77311C8.07263 3.58354 8.75354 3.57489 9.39913 3.74811C10.0447 3.92133 10.6298 4.26967 11.0898 4.75464C11.5498 5.23961 11.8668 5.84233 12.0056 6.49616C12.1445 7.15 12.0999 7.8295 11.8767 8.45957" stroke="#FF9500" stroke-width="2" stroke-linecap="round" stroke-linejoin="round"/>
<path d="M19.3333 4.83325V9.42854C20.8287 10.2939 21.9672 11.6633 22.5451 13.2916H24.1655C24.4859 13.2916 24.7933 13.4189 25.0199 13.6455C25.2465 13.8721 25.3738 14.1794 25.3738 14.4999V16.9166C25.3738 17.2371 25.2465 17.5444 25.0199 17.771C24.7933 17.9976 24.4859 18.1249 24.1655 18.1249H22.5439C22.1379 19.2728 21.4479 20.2999 20.5405 21.1131V23.5624C20.5405 24.0431 20.3495 24.5041 20.0096 24.844C19.6697 25.184 19.2087 25.3749 18.728 25.3749C18.2473 25.3749 17.7862 25.184 17.4463 24.844C17.1064 24.5041 16.9155 24.0431 16.9155 23.5624V22.858C16.5162 22.9251 16.112 22.9586 15.7071 22.9583H10.8738C10.4689 22.9586 10.0647 22.9251 9.66546 22.858V23.5624C9.66546 24.0431 9.4745 24.5041 9.13459 24.844C8.79468 25.184 8.33366 25.3749 7.85296 25.3749C7.37225 25.3749 6.91123 25.184 6.57133 24.844C6.23142 24.5041 6.04046 24.0431 6.04046 23.5624V21.1131C4.94566 20.1343 4.17391 18.8462 3.82737 17.4191C3.48083 15.992 3.57583 14.4934 4.0998 13.1215C4.62377 11.7496 5.552 10.5692 6.76163 9.73646C7.97126 8.90375 9.40525 8.45802 10.8738 8.45825H13.8946L19.3333 4.83325Z" stroke="#FF9500" stroke-width="2" stroke-linecap="round" stroke-linejoin="round"/>
</svg>
