<svg width="16" height="21" viewBox="0 0 16 21" fill="none" xmlns="http://www.w3.org/2000/svg">
<path d="M8 10.3608C7.24224 10.3608 6.51551 10.0999 5.9797 9.63558C5.44388 9.17122 5.14286 8.54142 5.14286 7.88472C5.14286 7.22802 5.44388 6.59821 5.9797 6.13386C6.51551 5.6695 7.24224 5.40862 8 5.40862C8.75776 5.40862 9.48449 5.6695 10.0203 6.13386C10.5561 6.59821 10.8571 7.22802 10.8571 7.88472C10.8571 8.20988 10.7832 8.53186 10.6397 8.83228C10.4961 9.13269 10.2856 9.40565 10.0203 9.63558C9.755 9.8655 9.44003 10.0479 9.09338 10.1723C8.74674 10.2968 8.37521 10.3608 8 10.3608ZM8 0.95166C5.87827 0.95166 3.84344 1.6821 2.34315 2.98231C0.842855 4.28251 0 6.04596 0 7.88472C0 13.0845 8 20.7604 8 20.7604C8 20.7604 16 13.0845 16 7.88472C16 6.04596 15.1571 4.28251 13.6569 2.98231C12.1566 1.6821 10.1217 0.95166 8 0.95166Z" fill="#F0F8FF"/>
</svg>
