<svg width="36" height="36" viewBox="0 0 36 36" fill="none" xmlns="http://www.w3.org/2000/svg">
<g clip-path="url(#clip0_47_283)">
<path fill-rule="evenodd" clip-rule="evenodd" d="M26.721 0.371239C26.7732 0.244925 26.8695 0.14192 26.9921 0.0814668C27.1146 0.0210136 27.255 0.00724718 27.387 0.0427391L29.6865 0.670489C29.8182 0.706861 29.9322 0.78995 30.0072 0.904232C30.0821 1.01851 30.1129 1.15617 30.0938 1.29149L29.808 3.30074C31.0478 4.01399 32.0467 5.04224 32.7308 6.24824L34.7445 5.97824C34.8807 5.96009 35.0188 5.99241 35.1328 6.06909C35.2468 6.14577 35.3287 6.26152 35.3633 6.39449L35.9708 8.69849C36.0051 8.83125 35.9897 8.97197 35.9276 9.0942C35.8654 9.21644 35.7607 9.31175 35.6333 9.36224L33.7523 10.1182C33.7536 11.5276 33.3768 12.9115 32.661 14.1255L33.8985 15.7342C33.9821 15.8428 34.0232 15.9781 34.0141 16.1148C34.005 16.2516 33.9463 16.3802 33.849 16.4767L32.1593 18.153C32.0622 18.2496 31.9332 18.3075 31.7965 18.3157C31.6598 18.324 31.5248 18.2822 31.4167 18.198L29.817 16.9425C28.5977 17.6476 27.2115 18.0128 25.803 18L25.029 19.8787C24.9768 20.0051 24.8805 20.1081 24.7579 20.1685C24.6354 20.229 24.495 20.2427 24.363 20.2072L22.0635 19.5817C21.9309 19.5458 21.8161 19.4625 21.7406 19.3477C21.6652 19.2329 21.6344 19.0945 21.654 18.9585L21.942 16.9492C20.7217 16.2458 19.7124 15.2279 19.0193 14.0017L17.0055 14.2717C16.8693 14.2899 16.7312 14.2576 16.6172 14.1809C16.5032 14.1042 16.4213 13.9885 16.3867 13.8555L15.7793 11.5515C15.7449 11.4187 15.7603 11.278 15.8224 11.1558C15.8846 11.0335 15.9893 10.9382 16.1168 10.8877L17.9977 10.1317C17.9964 8.72241 18.3732 7.33853 19.089 6.12449L17.8515 4.51574C17.7679 4.40718 17.7268 4.27184 17.7359 4.13513C17.745 3.99842 17.8037 3.86974 17.901 3.77324L19.5907 2.09699C19.6878 2.00039 19.8168 1.94252 19.9535 1.93423C20.0902 1.92595 20.2252 1.96782 20.3333 2.05199L21.933 3.30749C23.1523 2.60235 24.5385 2.23717 25.947 2.24999L26.721 0.371239ZM30.2175 11.3062C30.0624 11.8765 29.7964 12.4106 29.4349 12.8781C29.0734 13.3456 28.6233 13.7373 28.1103 14.0309C27.5974 14.3244 27.0317 14.5141 26.4455 14.589C25.8592 14.6639 25.264 14.6226 24.6938 14.4675C24.1235 14.3124 23.5894 14.0464 23.1219 13.6849C22.6544 13.3233 22.2627 12.8733 21.9691 12.3603C21.3763 11.3244 21.2192 10.0954 21.5325 8.94374C21.8458 7.79204 22.6038 6.81196 23.6397 6.21911C24.6756 5.62626 25.9045 5.4692 27.0562 5.78249C28.208 6.09578 29.188 6.85374 29.7809 7.88965C30.3737 8.92555 30.5308 10.1545 30.2175 11.3062ZM12.9983 13.995C12.9818 13.8589 12.9163 13.7336 12.8139 13.6424C12.7116 13.5513 12.5795 13.5006 12.4425 13.5H10.0598C9.92267 13.5 9.79033 13.5501 9.68758 13.6409C9.58483 13.7316 9.51875 13.8567 9.50175 13.9927L9.25425 15.9727C8.26248 16.1981 7.31608 16.5899 6.45525 17.1315L4.88025 15.9075C4.77222 15.8233 4.6372 15.7815 4.5005 15.7897C4.3638 15.798 4.23482 15.8559 4.13775 15.9525L2.4525 17.6377C2.3559 17.7348 2.29803 17.8638 2.28974 18.0005C2.28146 18.1372 2.32333 18.2722 2.4075 18.3802L3.6315 19.9552C3.08987 20.8161 2.69808 21.7625 2.47275 22.7542L0.49275 23.0017C0.357114 23.0187 0.232291 23.0844 0.141607 23.1867C0.0509237 23.289 0.000585495 23.4208 0 23.5575V25.938C3.86863e-05 26.0751 0.0501307 26.2074 0.140865 26.3102C0.231599 26.4129 0.356731 26.479 0.49275 26.496L2.47275 26.7435C2.7 27.7515 3.09825 28.6942 3.6315 29.5425L2.4075 31.1175C2.32333 31.2255 2.28146 31.3605 2.28974 31.4972C2.29803 31.6339 2.3559 31.7629 2.4525 31.86L4.13775 33.5452C4.23482 33.6418 4.3638 33.6997 4.5005 33.708C4.6372 33.7163 4.77222 33.6744 4.88025 33.5902L6.45525 32.3662C7.3035 32.8995 8.24625 33.2977 9.25425 33.525L9.50175 35.505C9.51819 35.641 9.58373 35.7664 9.68606 35.8575C9.78839 35.9487 9.92047 35.9993 10.0575 36H12.438C12.5751 36 12.7074 35.9499 12.8102 35.8591C12.9129 35.7684 12.979 35.6433 12.996 35.5072L13.2435 33.5272C14.2353 33.3019 15.1817 32.9101 16.0425 32.3685L17.6175 33.5925C17.7255 33.6767 17.8606 33.7185 17.9972 33.7102C18.1339 33.702 18.2629 33.6441 18.36 33.5475L20.0452 31.8622C20.1419 31.7652 20.1997 31.6362 20.208 31.4995C20.2163 31.3628 20.1744 31.2278 20.0903 31.1197L18.8663 29.5447C19.3995 28.6965 19.7977 27.7537 20.025 26.7457L22.005 26.4982C22.141 26.4818 22.2664 26.4163 22.3575 26.3139C22.4487 26.2116 22.4993 26.0795 22.5 25.9425V23.562C22.5 23.4249 22.4499 23.2926 22.3591 23.1898C22.2684 23.0871 22.1433 23.021 22.0072 23.004L20.0273 22.7565C19.8019 21.7647 19.4101 20.8183 18.8685 19.9575L20.0925 18.3825C20.1767 18.2745 20.2185 18.1394 20.2103 18.0027C20.202 17.866 20.1441 17.7371 20.0475 17.64L18.36 15.9525C18.2629 15.8559 18.1339 15.798 17.9972 15.7897C17.8606 15.7815 17.7255 15.8233 17.6175 15.9075L16.0425 17.1315C15.1822 16.5909 14.2366 16.1999 13.2458 15.975L12.9983 13.995ZM16.875 24.75C16.875 26.2418 16.2824 27.6726 15.2275 28.7275C14.1726 29.7824 12.7418 30.375 11.25 30.375C9.75816 30.375 8.32742 29.7824 7.27252 28.7275C6.21763 27.6726 5.625 26.2418 5.625 24.75C5.625 23.2581 6.21763 21.8274 7.27252 20.7725C8.32742 19.7176 9.75816 19.125 11.25 19.125C12.7418 19.125 14.1726 19.7176 15.2275 20.7725C16.2824 21.8274 16.875 23.2581 16.875 24.75Z" fill="#0184FE"/>
</g>
<defs>
<clipPath id="clip0_47_283">
<rect width="36" height="36" fill="white"/>
</clipPath>
</defs>
</svg>
