<svg width="43" height="43" viewBox="0 0 43 43" fill="none" xmlns="http://www.w3.org/2000/svg">
<g clip-path="url(#clip0_43_96)">
<path d="M31.7125 16.4744C31.868 16.2846 31.984 16.0657 32.0534 15.8304C32.1229 15.5951 32.1445 15.3482 32.1169 15.1045C32.0893 14.8607 32.0132 14.6249 31.893 14.4111C31.7727 14.1972 31.6108 14.0096 31.4169 13.8594C31.0223 13.5508 30.5229 13.4084 30.0249 13.4626C29.5269 13.5168 29.0697 13.7633 28.7509 14.1497L19.8553 25.0609L15.0984 21.4059C14.7098 21.0897 14.2131 20.9377 13.7141 20.9824C13.215 21.0271 12.7532 21.2649 12.427 21.6451C12.2676 21.8316 12.1473 22.0482 12.073 22.282C11.9987 22.5158 11.9721 22.7621 11.9946 23.0063C12.0172 23.2506 12.0885 23.4879 12.2043 23.7042C12.3201 23.9204 12.4781 24.1113 12.6689 24.2654L18.9039 29.1298C19.2976 29.4501 19.802 29.6016 20.3071 29.5512C20.8121 29.5009 21.2767 29.2528 21.5994 28.8611L31.7044 16.4448L31.7125 16.4744Z" fill="#FF9500"/>
<path fill-rule="evenodd" clip-rule="evenodd" d="M17.4956 1.91889C18.9308 0.865391 19.6483 0.338641 20.425 0.134391C21.119 -0.0417045 21.846 -0.0417045 22.5401 0.134391C23.3248 0.338641 24.0451 0.865391 25.4694 1.91889L27.2889 3.25458C27.7861 3.62008 28.036 3.80283 28.3047 3.94527C28.5448 4.07068 28.7948 4.1746 29.0546 4.25702C29.3475 4.3457 29.6512 4.39139 30.2613 4.48545L32.4919 4.82677C34.2522 5.09552 35.131 5.23258 35.8244 5.64377C36.4425 6.00658 36.9585 6.52258 37.3213 7.1407C37.7325 7.83945 37.8669 8.72095 38.1383 10.4732L38.4796 12.7038C38.5737 13.3139 38.6194 13.6203 38.7081 13.9132C38.7887 14.173 38.8926 14.422 39.0198 14.6603C39.1649 14.9291 39.345 15.179 39.7105 15.6762L41.0462 17.4956C42.0997 18.9308 42.6264 19.6483 42.8307 20.425C43.0068 21.119 43.0068 21.8461 42.8307 22.5401C42.6291 23.3248 42.0997 24.0451 41.0462 25.4695L39.7105 27.2889C39.4548 27.6095 39.2239 27.9491 39.0198 28.3048C38.8923 28.5452 38.7879 28.7971 38.7081 29.0573C38.6194 29.3475 38.5737 29.6512 38.4796 30.2613L38.1383 32.4919C37.8696 34.2522 37.7325 35.131 37.3213 35.8244C36.9585 36.4425 36.4425 36.9558 35.8244 37.3213C35.1256 37.7325 34.2441 37.8669 32.4919 38.1383L30.2613 38.4796C29.8537 38.5259 29.4503 38.6031 29.0546 38.7108C28.7948 38.7896 28.5448 38.8935 28.3047 39.0225C28.036 39.165 27.7861 39.345 27.2889 39.7132L25.4694 41.0489C24.0343 42.1024 23.3167 42.6291 22.5401 42.8334C21.846 43.0095 21.119 43.0095 20.425 42.8334C19.6403 42.6291 18.92 42.1024 17.4956 41.0489L15.6762 39.7132C15.3556 39.4575 15.016 39.2266 14.6603 39.0225C14.4208 38.8952 14.1697 38.7908 13.9105 38.7108C13.5147 38.6031 13.1113 38.5259 12.7038 38.4796L10.4732 38.1383C8.71288 37.8696 7.83138 37.7352 7.14069 37.3213C6.52476 36.9549 6.01018 36.4403 5.64375 35.8244C5.23256 35.1256 5.09819 34.2441 4.82675 32.4919L4.48544 30.2613C4.39138 29.6512 4.34569 29.3475 4.257 29.0546C4.17859 28.7948 4.07414 28.5436 3.94525 28.3048C3.74119 27.9491 3.51029 27.6095 3.25456 27.2889L1.91888 25.4695C0.865376 24.0343 0.338626 23.3195 0.134376 22.5401C-0.0417198 21.8461 -0.0417198 21.119 0.134376 20.425C0.335938 19.6403 0.865376 18.92 1.91888 17.4956L3.25456 15.6762C3.62006 15.179 3.80281 14.9291 3.94525 14.6603C4.07067 14.4202 4.17458 14.1703 4.257 13.9105C4.34569 13.6176 4.39138 13.3139 4.48544 12.7038L4.82675 10.4732C5.0955 8.71289 5.23256 7.83139 5.64375 7.1407C6.00656 6.52258 6.52256 6.01195 7.14069 5.64377C7.83944 5.23258 8.72094 5.0982 10.4732 4.82677L12.7038 4.48545C13.3139 4.39408 13.6203 4.3457 13.9105 4.25702C14.1703 4.17639 14.4202 4.07247 14.6603 3.94527C14.9291 3.80283 15.179 3.62008 15.6762 3.25458L17.4956 1.91889ZM23.8919 4.08502L25.8027 5.48789C26.2085 5.7862 26.6089 6.07914 27.0551 6.31833C27.4492 6.52795 27.8577 6.69727 28.2806 6.82627C28.7639 6.95993 29.256 7.05962 29.7533 7.12458L32.0968 7.4847C34.0883 7.79108 34.3355 7.87439 34.4806 7.96039C34.7082 8.09656 34.8891 8.27752 35.0235 8.50327C35.1095 8.64839 35.1955 8.89564 35.4992 10.8871L35.8593 13.2306C35.9243 13.7279 36.024 14.22 36.1576 14.7033C36.2884 15.1297 36.4577 15.5382 36.6656 15.9288C36.9021 16.375 37.1977 16.7754 37.496 17.1812L38.8989 19.092C40.0921 20.7153 40.205 20.9491 40.248 21.1157C40.31 21.3682 40.31 21.6319 40.248 21.8843C40.205 22.0483 40.0921 22.2821 38.8989 23.908L37.496 25.8188C37.1977 26.2246 36.9021 26.6251 36.6656 27.0712C36.4578 27.4627 36.2877 27.873 36.1576 28.2967C36.024 28.7801 35.9243 29.2722 35.8593 29.7695L35.4992 32.113C35.1928 34.1044 35.1095 34.3516 35.0235 34.4968C34.8889 34.7188 34.7027 34.905 34.4806 35.0396C34.3355 35.1256 34.0883 35.2116 32.0968 35.5153L29.7533 35.8755C29.256 35.9404 28.7639 36.0401 28.2806 36.1738C27.8569 36.3038 27.4465 36.4739 27.0551 36.6817C26.6089 36.9182 26.2085 37.2138 25.8027 37.5121L23.8919 38.915C22.2686 40.1083 22.0348 40.2211 21.8682 40.2641C21.6157 40.3261 21.352 40.3261 21.0996 40.2641C20.9356 40.2211 20.7018 40.1083 19.0759 38.915L17.1651 37.5121C16.7675 37.2065 16.349 36.929 15.9127 36.6817C15.5212 36.4739 15.1109 36.3038 14.6872 36.1738C14.2038 36.0401 13.7117 35.9404 13.2144 35.8755L10.8709 35.5153C8.8795 35.209 8.63225 35.1256 8.48713 35.0396C8.2651 34.905 8.07886 34.7188 7.94425 34.4968C7.85825 34.3516 7.77225 34.1044 7.46856 32.113L7.10844 29.7695C7.04347 29.2722 6.94379 28.7801 6.81013 28.2967C6.68006 27.873 6.50998 27.4627 6.30219 27.0712C6.06569 26.6251 5.77006 26.2246 5.47175 25.8188L4.06888 23.908C2.87563 22.2848 2.76275 22.051 2.71975 21.8843C2.65779 21.6319 2.65779 21.3682 2.71975 21.1157C2.76275 20.9518 2.87563 20.718 4.06888 19.092L5.47175 17.1812C5.77006 16.7754 6.06569 16.375 6.30219 15.9288C6.51002 15.5347 6.67933 15.1262 6.81013 14.7033C6.94379 14.22 7.04347 13.7279 7.10844 13.2306L7.46856 10.8871C7.77494 8.89564 7.85825 8.64839 7.94425 8.50327C8.07886 8.28124 8.2651 8.095 8.48713 7.96039C8.63225 7.87439 8.8795 7.78839 10.8709 7.4847L13.2144 7.12458C13.7117 7.05962 14.2038 6.95993 14.6872 6.82627C15.1136 6.69547 15.5221 6.52616 15.9127 6.31833C16.3588 6.08183 16.7593 5.7862 17.1651 5.48789L19.0759 4.08502C20.6991 2.89177 20.9329 2.77889 21.0996 2.73589C21.352 2.67394 21.6157 2.67394 21.8682 2.73589C22.0321 2.77889 22.2659 2.89177 23.8919 4.08502Z" fill="#FF9500"/>
</g>
<defs>
<clipPath id="clip0_43_96">
<rect width="43" height="43" fill="white"/>
</clipPath>
</defs>
</svg>
