<svg width="30" height="30" viewBox="0 0 30 30" fill="none" xmlns="http://www.w3.org/2000/svg">
<path d="M7.5 5.15625C7.5 3.345 8.97 1.875 10.7812 1.875H19.2188C21.03 1.875 22.5 3.345 22.5 5.15625V11.2912C20.7028 11.1266 18.8938 11.4366 17.2538 12.1901C15.6139 12.9436 14.2004 14.1143 13.1547 15.5852C12.1089 17.0561 11.4675 18.7757 11.2944 20.5722C11.1214 22.3686 11.4229 24.1791 12.1687 25.8225L11.4694 28.125H10.7812C9.91101 28.125 9.07641 27.7793 8.46106 27.1639C7.8457 26.5486 7.5 25.714 7.5 24.8438V5.15625ZM21.5625 30C23.4136 29.9998 25.2132 29.3909 26.6842 28.2671C28.1551 27.1434 29.2156 25.567 29.7023 23.7811C30.1891 21.9951 30.075 20.0987 29.3776 18.384C28.6803 16.6693 27.4385 15.2315 25.8434 14.2921C24.2484 13.3528 22.3887 12.964 20.551 13.1858C18.7132 13.4075 16.9994 14.2275 15.6736 15.5192C14.3478 16.811 13.4835 18.503 13.2141 20.3343C12.9447 22.1657 13.2849 24.0348 14.1825 25.6537L13.1606 29.0081C13.1211 29.1409 13.1181 29.2819 13.1521 29.4163C13.1861 29.5506 13.2558 29.6732 13.3538 29.7712C13.4518 29.8692 13.5744 29.9389 13.7087 29.9729C13.8431 30.0069 13.9841 30.0039 14.1169 29.9644L17.4731 28.9444C18.7247 29.6372 20.1319 30.0005 21.5625 30ZM16.875 19.6875C16.875 19.4389 16.9738 19.2004 17.1496 19.0246C17.3254 18.8488 17.5639 18.75 17.8125 18.75H25.3125C25.5611 18.75 25.7996 18.8488 25.9754 19.0246C26.1512 19.2004 26.25 19.4389 26.25 19.6875C26.25 19.9361 26.1512 20.1746 25.9754 20.3504C25.7996 20.5262 25.5611 20.625 25.3125 20.625H17.8125C17.5639 20.625 17.3254 20.5262 17.1496 20.3504C16.9738 20.1746 16.875 19.9361 16.875 19.6875ZM17.8125 24.375C17.5639 24.375 17.3254 24.2762 17.1496 24.1004C16.9738 23.9246 16.875 23.6861 16.875 23.4375C16.875 23.1889 16.9738 22.9504 17.1496 22.7746C17.3254 22.5988 17.5639 22.5 17.8125 22.5H21.5625C21.8111 22.5 22.0496 22.5988 22.2254 22.7746C22.4012 22.9504 22.5 23.1889 22.5 23.4375C22.5 23.6861 22.4012 23.9246 22.2254 24.1004C22.0496 24.2762 21.8111 24.375 21.5625 24.375H17.8125Z" fill="#0184FE"/>
</svg>
