<svg width="43" height="43" viewBox="0 0 43 43" fill="none" xmlns="http://www.w3.org/2000/svg">
<path d="M26.875 19.7084V19.7263M9.26829 15.0106C8.48247 14.4066 7.87893 13.5972 7.52439 12.6716C7.16986 11.7461 7.07812 10.7406 7.25933 9.76618C7.44053 8.79178 7.88762 7.88645 8.55118 7.15026C9.21474 6.41406 10.0689 5.87567 11.0194 5.59459C11.9698 5.31351 12.9794 5.30068 13.9366 5.55752C14.8939 5.81437 15.7615 6.33088 16.4435 7.04997C17.1256 7.76907 17.5955 8.66275 17.8014 9.63223C18.0074 10.6017 17.9412 11.6092 17.6103 12.5435" stroke="#FF9500" stroke-width="3" stroke-linecap="round" stroke-linejoin="round"/>
<path d="M28.6667 7.16669V13.9804C30.884 15.2636 32.5721 17.2941 33.4289 19.7084H35.8315C36.3067 19.7084 36.7624 19.8971 37.0984 20.2331C37.4344 20.5691 37.6232 21.0248 37.6232 21.5V25.0834C37.6232 25.5585 37.4344 26.0143 37.0984 26.3503C36.7624 26.6863 36.3067 26.875 35.8315 26.875H33.4271C32.8251 28.5771 31.8021 30.1 30.4565 31.3058V34.9375C30.4565 35.6503 30.1734 36.3339 29.6694 36.8379C29.1654 37.3419 28.4818 37.625 27.769 37.625C27.0563 37.625 26.3727 37.3419 25.8687 36.8379C25.3647 36.3339 25.0815 35.6503 25.0815 34.9375V33.893C24.4895 33.9925 23.8902 34.0422 23.2899 34.0417H16.1232C15.5229 34.0422 14.9236 33.9925 14.3315 33.893V34.9375C14.3315 35.6503 14.0484 36.3339 13.5444 36.8379C13.0404 37.3419 12.3568 37.625 11.644 37.625C10.9313 37.625 10.2477 37.3419 9.74369 36.8379C9.23969 36.3339 8.95654 35.6503 8.95654 34.9375V31.3058C7.33322 29.8545 6.18891 27.9444 5.67507 25.8284C5.16123 23.7124 5.3021 21.4903 6.07902 19.4561C6.85594 17.422 8.23228 15.6717 10.0259 14.437C11.8195 13.2023 13.9457 12.5413 16.1232 12.5417H20.6024L28.6667 7.16669Z" stroke="#FF9500" stroke-width="3" stroke-linecap="round" stroke-linejoin="round"/>
</svg>
