<svg width="36" height="36" viewBox="0 0 36 36" fill="none" xmlns="http://www.w3.org/2000/svg">
<path d="M9 16.5H16.5V13.5H9V16.5ZM6 30C5.175 30 4.469 29.7065 3.882 29.1195C3.295 28.5325 3.001 27.826 3 27V9C3 8.175 3.294 7.469 3.882 6.882C4.47 6.295 5.176 6.001 6 6H30C30.65 6 31.2375 6.194 31.7625 6.582C32.2875 6.97 32.65 7.4635 32.85 8.0625C32.425 7.8625 31.969 7.7185 31.482 7.6305C30.995 7.5425 30.501 7.499 30 7.5C27.925 7.5 26.1565 8.2315 24.6945 9.6945C23.2325 11.1575 22.501 12.926 22.5 15C22.5 15.55 22.55 16.075 22.65 16.575C22.75 17.075 22.9 17.55 23.1 18H16.5V19.5H9V22.5H16.5V24C15.55 24.675 14.8125 25.5315 14.2875 26.5695C13.7625 27.6075 13.5 28.751 13.5 30H6ZM21 31.5C21.425 31.5 21.7815 31.356 22.0695 31.068C22.3575 30.78 22.501 30.424 22.5 30C22.499 29.576 22.355 29.22 22.068 28.932C21.781 28.644 21.425 28.5 21 28.5C20.575 28.5 20.219 28.644 19.932 28.932C19.645 29.22 19.501 29.576 19.5 30C19.499 30.424 19.643 30.7805 19.932 31.0695C20.221 31.3585 20.577 31.502 21 31.5ZM30 16.5C30.425 16.5 30.7815 16.356 31.0695 16.068C31.3575 15.78 31.501 15.424 31.5 15C31.499 14.576 31.355 14.22 31.068 13.932C30.781 13.644 30.425 13.5 30 13.5C29.575 13.5 29.219 13.644 28.932 13.932C28.645 14.22 28.501 14.576 28.5 15C28.499 15.424 28.643 15.7805 28.932 16.0695C29.221 16.3585 29.577 16.502 30 16.5ZM21 34.5C19.75 34.5 18.6875 34.0625 17.8125 33.1875C16.9375 32.3125 16.5 31.25 16.5 30C16.5 29.025 16.7815 28.15 17.3445 27.375C17.9075 26.6 18.626 26.0625 19.5 25.7625V21H28.5V19.2375C27.625 18.9375 26.9065 18.4 26.3445 17.625C25.7825 16.85 25.501 15.975 25.5 15C25.5 13.75 25.9375 12.6875 26.8125 11.8125C27.6875 10.9375 28.75 10.5 30 10.5C31.25 10.5 32.3125 10.9375 33.1875 11.8125C34.0625 12.6875 34.5 13.75 34.5 15C34.5 15.975 34.219 16.85 33.657 17.625C33.095 18.4 32.376 18.9375 31.5 19.2375V24H22.5V25.7625C23.375 26.0625 24.094 26.6 24.657 27.375C25.22 28.15 25.501 29.025 25.5 30C25.5 31.25 25.0625 32.3125 24.1875 33.1875C23.3125 34.0625 22.25 34.5 21 34.5Z" fill="#0184FE"/>
</svg>
