<svg width="21" height="20" viewBox="0 0 21 20" fill="none" xmlns="http://www.w3.org/2000/svg">
<path d="M20.9878 15.0975C20.8005 16.4207 20.1018 17.6354 19.022 18.5145C17.9423 19.3937 16.5553 19.8772 15.1203 19.8748C6.78313 19.8748 9.50124e-06 13.5662 9.50124e-06 5.8123C-0.00256302 4.47763 0.51734 3.18771 1.46261 2.18349C2.40789 1.17926 3.71389 0.529399 5.1367 0.355271C5.49649 0.314413 5.86084 0.382871 6.17536 0.550426C6.48988 0.717981 6.7377 0.975647 6.88183 1.28496L9.09947 5.88945V5.90117C9.20981 6.13794 9.25538 6.39644 9.23211 6.65359C9.20884 6.91073 9.11745 7.15851 8.96611 7.3748C8.94721 7.40117 8.92726 7.42558 8.90626 7.45L6.72012 9.86015C7.50659 11.3465 9.17822 12.8875 10.7973 13.6209L13.3531 11.5984C13.3782 11.5788 13.4045 11.5606 13.4318 11.5437C13.6642 11.3996 13.9315 11.3116 14.2097 11.2878C14.4878 11.2639 14.7679 11.3049 15.0247 11.407L15.0384 11.4129L19.985 13.4744C20.3182 13.608 20.5959 13.8383 20.7766 14.1308C20.9574 14.4234 21.0315 14.7625 20.9878 15.0975Z" fill="#0184FE"/>
</svg>
