<svg width="26" height="26" viewBox="0 0 26 26" fill="none" xmlns="http://www.w3.org/2000/svg">
<ellipse cx="13" cy="12.5" rx="7" ry="6.5" fill="#F5F5F5"/>
<path d="M2.16666 13C2.16666 10.1268 3.30803 7.37128 5.33967 5.33964C7.37132 3.30799 10.1268 2.16663 13 2.16663C15.8732 2.16663 18.6287 3.30799 20.6603 5.33964C22.692 7.37128 23.8333 10.1268 23.8333 13C23.8333 15.8731 22.692 18.6286 20.6603 20.6603C18.6287 22.6919 15.8732 23.8333 13 23.8333C10.1268 23.8333 7.37132 22.6919 5.33967 20.6603C3.30803 18.6286 2.16666 15.8731 2.16666 13ZM18.1003 11.0586C18.2011 10.9579 18.281 10.8383 18.3355 10.7067C18.39 10.5751 18.418 10.4341 18.418 10.2916C18.418 10.1492 18.39 10.0081 18.3355 9.87653C18.281 9.74493 18.2011 9.62535 18.1003 9.52463C17.9996 9.4239 17.88 9.344 17.7484 9.28949C17.6168 9.23498 17.4758 9.20692 17.3333 9.20692C17.1909 9.20692 17.0498 9.23498 16.9182 9.28949C16.7866 9.344 16.6671 9.4239 16.5663 9.52463L11.9167 14.1765L9.43366 11.6913C9.33294 11.5906 9.21336 11.5107 9.08176 11.4562C8.95016 11.4016 8.80911 11.3736 8.66666 11.3736C8.52422 11.3736 8.38317 11.4016 8.25157 11.4562C8.11996 11.5107 8.00039 11.5906 7.89966 11.6913C7.79894 11.792 7.71904 11.9116 7.66453 12.0432C7.61002 12.1748 7.58196 12.3158 7.58196 12.4583C7.58196 12.6007 7.61002 12.7418 7.66453 12.8734C7.71904 13.005 7.79894 13.1246 7.89966 13.2253L11.1497 16.4753C11.2503 16.5762 11.3698 16.6562 11.5015 16.7108C11.6331 16.7655 11.7742 16.7936 11.9167 16.7936C12.0592 16.7936 12.2003 16.7655 12.3319 16.7108C12.4635 16.6562 12.583 16.5762 12.6837 16.4753L18.1003 11.0586Z" fill="#FF9500"/>
</svg>
