<svg width="30" height="30" viewBox="0 0 30 30" fill="none" xmlns="http://www.w3.org/2000/svg">
<path d="M25.7812 11.25C25.7823 9.4426 25.3289 7.66391 24.4628 6.07751C23.5966 4.49111 22.3456 3.14793 20.8246 2.17145C19.3036 1.19498 17.5616 0.616556 15.7586 0.489373C13.9557 0.362191 12.1497 0.690328 10.5067 1.44361C8.86372 2.1969 7.43648 3.35116 6.35623 4.80025C5.27598 6.24935 4.57737 7.94678 4.32466 9.73646C4.07194 11.5261 4.27322 13.3506 4.90999 15.0422C5.54676 16.7338 6.59859 18.2381 7.96875 19.4168V28.125C7.96878 28.3648 8.03009 28.6005 8.14687 28.8099C8.26364 29.0192 8.432 29.1953 8.63595 29.3213C8.83991 29.4472 9.07268 29.519 9.31217 29.5297C9.55166 29.5404 9.78991 29.4897 10.0043 29.3825L15 26.8852L19.9969 29.3825C20.2112 29.4895 20.4493 29.5399 20.6887 29.5291C20.928 29.5182 21.1606 29.4464 21.3644 29.3205C21.5681 29.1945 21.7364 29.0186 21.8531 28.8094C21.9698 28.6002 22.0311 28.3646 22.0312 28.125V19.4168C23.2078 18.4061 24.152 17.153 24.7992 15.7435C25.4465 14.3339 25.7815 12.8011 25.7812 11.25ZM7.03125 11.25C7.03125 9.67397 7.49861 8.13329 8.37423 6.82284C9.24985 5.51238 10.4944 4.49101 11.9505 3.88787C13.4066 3.28474 15.0088 3.12693 16.5546 3.4344C18.1004 3.74188 19.5203 4.50083 20.6348 5.61528C21.7492 6.72973 22.5082 8.14962 22.8156 9.69541C23.1231 11.2412 22.9653 12.8434 22.3622 14.2995C21.759 15.7556 20.7377 17.0002 19.4272 17.8758C18.1167 18.7514 16.5761 19.2188 15 19.2188C12.8872 19.2166 10.8616 18.3764 9.36764 16.8824C7.87368 15.3884 7.03342 13.3628 7.03125 11.25ZM19.2188 25.8504L15.6281 24.0551C15.4328 23.9574 15.2173 23.9065 14.9988 23.9065C14.7804 23.9065 14.5649 23.9574 14.3695 24.0551L10.7813 25.8493V21.1711C12.1154 21.7384 13.5503 22.0308 15 22.0308C16.4497 22.0308 17.8846 21.7384 19.2188 21.1711V25.8504ZM15 17.3438C16.2052 17.3438 17.3834 16.9864 18.3855 16.3168C19.3876 15.6472 20.1687 14.6955 20.6299 13.582C21.0911 12.4685 21.2118 11.2433 20.9767 10.0612C20.7415 8.87913 20.1612 7.79333 19.3089 6.9411C18.4567 6.08888 17.3709 5.5085 16.1888 5.27338C15.0068 5.03825 13.7815 5.15892 12.668 5.62015C11.5545 6.08137 10.6028 6.86242 9.93323 7.86453C9.26364 8.86664 8.90625 10.0448 8.90625 11.25C8.90811 12.8656 9.55073 14.4145 10.6931 15.5569C11.8355 16.6993 13.3844 17.3419 15 17.3438ZM15 7.96879C15.649 7.96879 16.2834 8.16123 16.823 8.52178C17.3626 8.88232 17.7831 9.39479 18.0315 9.99436C18.2798 10.5939 18.3448 11.2537 18.2182 11.8902C18.0916 12.5267 17.7791 13.1113 17.3202 13.5702C16.8613 14.0291 16.2766 14.3416 15.6401 14.4682C15.0036 14.5948 14.3439 14.5299 13.7443 14.2815C13.1448 14.0332 12.6323 13.6126 12.2717 13.073C11.9112 12.5334 11.7188 11.899 11.7188 11.25C11.7188 10.3798 12.0645 9.5452 12.6798 8.92984C13.2952 8.31449 14.1298 7.96879 15 7.96879Z" fill="#FF9500"/>
</svg>
