<svg width="36" height="36" viewBox="0 0 36 36" fill="none" xmlns="http://www.w3.org/2000/svg">
<path d="M36 21.9C36 22.8 34.2 23.4 32.1 23.7C30.75 21.15 28.05 19.2 24.9 17.85C25.2 17.4 25.5 17.1 25.8 16.65H27C31.65 16.5 36 19.35 36 21.9ZM10.2 16.5H9C4.35 16.5 0 19.35 0 21.9C0 22.8 1.8 23.4 3.9 23.7C5.25 21.15 7.95 19.2 11.1 17.85L10.2 16.5ZM18 18C21.3 18 24 15.3 24 12C24 8.7 21.3 6 18 6C14.7 6 12 8.7 12 12C12 15.3 14.7 18 18 18ZM18 19.5C11.85 19.5 6 23.4 6 27C6 30 18 30 18 30C18 30 30 30 30 27C30 23.4 24.15 19.5 18 19.5ZM26.55 15H27C29.55 15 31.5 13.05 31.5 10.5C31.5 7.95 29.55 6 27 6C26.25 6 25.65 6.15 25.05 6.45C26.25 7.95 27 9.9 27 12C27 13.05 26.85 14.1 26.55 15ZM9 15H9.45C9.15 14.1 9 13.05 9 12C9 9.9 9.75 7.95 10.95 6.45C10.35 6.15 9.75 6 9 6C6.45 6 4.5 7.95 4.5 10.5C4.5 13.05 6.45 15 9 15Z" fill="#0184FE"/>
</svg>
