<svg width="29" height="29" viewBox="0 0 29 29" fill="none" xmlns="http://www.w3.org/2000/svg">
<path d="M1.26875 25.375V21.9917C1.26875 21.3271 1.43993 20.7028 1.78229 20.1187C2.12466 19.5347 2.59792 19.0917 3.20209 18.7896C4.22917 18.266 5.38716 17.8229 6.67605 17.4604C7.96493 17.0979 9.38473 16.9167 10.9354 16.9167C12.4861 16.9167 13.9059 17.0979 15.1948 17.4604C16.4837 17.8229 17.6417 18.266 18.6688 18.7896C19.2729 19.0917 19.7462 19.5347 20.0885 20.1187C20.4309 20.7028 20.6021 21.3271 20.6021 21.9917V25.375H1.26875ZM3.68542 22.9583H18.1854V21.9917C18.1854 21.7701 18.1302 21.5688 18.0199 21.3875C17.9095 21.2063 17.7633 21.0653 17.5813 20.9646C16.8563 20.6021 15.925 20.2396 14.7876 19.8771C13.6501 19.5146 12.3661 19.3333 10.9354 19.3333C9.50475 19.3333 8.2211 19.5146 7.08446 19.8771C5.94782 20.2396 5.0162 20.6021 4.28959 20.9646C4.10834 21.0653 3.96253 21.2063 3.85217 21.3875C3.74181 21.5688 3.68623 21.7701 3.68542 21.9917V22.9583ZM10.9354 15.7083C9.60625 15.7083 8.46841 15.2351 7.52188 14.2885C6.57535 13.342 6.10209 12.2042 6.10209 10.875H5.8C5.61875 10.875 5.47295 10.8198 5.36259 10.7095C5.25223 10.5991 5.19664 10.4529 5.19584 10.2708C5.19503 10.0888 5.25061 9.94257 5.36259 9.83221C5.47456 9.72185 5.62036 9.66667 5.8 9.66667H6.10209C6.10209 8.76042 6.32361 7.94479 6.76667 7.21979C7.20973 6.49479 7.79375 5.92083 8.51875 5.49792V6.64583C8.51875 6.82708 8.57434 6.97329 8.6855 7.08446C8.79667 7.19563 8.94248 7.25081 9.12292 7.25C9.30336 7.24919 9.44957 7.19401 9.56154 7.08446C9.67352 6.9749 9.7287 6.82869 9.72709 6.64583V5.01458C9.90834 4.95417 10.0997 4.90906 10.301 4.87925C10.5024 4.84944 10.7139 4.83414 10.9354 4.83333C11.1569 4.83253 11.3684 4.84783 11.5698 4.87925C11.7712 4.91067 11.9625 4.95578 12.1438 5.01458V6.64583C12.1438 6.82708 12.1993 6.97329 12.3105 7.08446C12.4217 7.19563 12.5675 7.25081 12.7479 7.25C12.9284 7.24919 13.0746 7.19401 13.1865 7.08446C13.2985 6.9749 13.3537 6.82869 13.3521 6.64583V5.49792C14.0771 5.92083 14.6611 6.49479 15.1042 7.21979C15.5472 7.94479 15.7688 8.76042 15.7688 9.66667H16.0708C16.2521 9.66667 16.3983 9.72225 16.5095 9.83342C16.6206 9.94458 16.6758 10.0904 16.675 10.2708C16.6742 10.4513 16.619 10.5975 16.5095 10.7095C16.3999 10.8214 16.2537 10.8766 16.0708 10.875H15.7688C15.7688 12.2042 15.2955 13.342 14.349 14.2885C13.4024 15.2351 12.2646 15.7083 10.9354 15.7083ZM10.9354 13.2917C11.6 13.2917 12.1691 13.0552 12.6428 12.5824C13.1165 12.1095 13.3529 11.5404 13.3521 10.875H8.51875C8.51875 11.5396 8.75559 12.1087 9.22925 12.5824C9.70292 13.056 10.2716 13.2925 10.9354 13.2917ZM19.9979 18.125L19.8167 17.2188C19.6958 17.1785 19.5802 17.1334 19.4699 17.0834C19.3595 17.0335 19.2536 16.9578 19.1521 16.8562L18.3063 17.1583L17.7021 16.0708L18.3667 15.4667V14.7417L17.7021 14.1375L18.3063 13.05L19.1521 13.3521C19.2326 13.2715 19.3333 13.201 19.4542 13.1406C19.575 13.0802 19.6958 13.0299 19.8167 12.9896L19.9979 12.0833H21.2063L21.3875 12.9896C21.5083 13.0299 21.6292 13.0802 21.75 13.1406C21.8708 13.201 21.9715 13.2715 22.0521 13.3521L22.8979 13.05L23.5021 14.1375L22.8375 14.7417V15.4667L23.5021 16.0708L22.8979 17.1583L22.0521 16.8562C21.9514 16.9569 21.8459 17.0327 21.7355 17.0834C21.6251 17.1342 21.5091 17.1793 21.3875 17.2188L21.2063 18.125H19.9979ZM20.6021 16.0104C20.8438 16.0104 21.0552 15.9198 21.2365 15.7385C21.4177 15.5573 21.5083 15.3458 21.5083 15.1042C21.5083 14.8625 21.4177 14.651 21.2365 14.4698C21.0552 14.2885 20.8438 14.1979 20.6021 14.1979C20.3604 14.1979 20.149 14.2885 19.9677 14.4698C19.7865 14.651 19.6958 14.8625 19.6958 15.1042C19.6958 15.3458 19.7865 15.5573 19.9677 15.7385C20.149 15.9198 20.3604 16.0104 20.6021 16.0104ZM22.7771 12.0833L22.5354 10.8146C22.3542 10.7542 22.1882 10.6788 22.0376 10.5886C21.8869 10.4984 21.7508 10.3925 21.6292 10.2708L20.3604 10.6938L19.5146 9.24375L20.5417 8.3375C20.5014 8.23681 20.4813 8.15625 20.4813 8.09583V7.6125C20.4813 7.55208 20.5014 7.47153 20.5417 7.37083L19.5146 6.46458L20.3604 5.01458L21.6292 5.4375C21.75 5.31667 21.8861 5.21074 22.0376 5.11971C22.189 5.02868 22.355 4.95336 22.5354 4.89375L22.7771 3.625H24.4688L24.7104 4.89375C24.8917 4.95417 25.058 5.02989 25.2095 5.12092C25.3609 5.21194 25.4966 5.31747 25.6167 5.4375L26.8854 5.01458L27.7313 6.46458L26.7042 7.37083C26.7444 7.47153 26.7646 7.55208 26.7646 7.6125V8.09583C26.7646 8.15625 26.7444 8.23681 26.7042 8.3375L27.7313 9.24375L26.8854 10.6938L25.6167 10.2708C25.4958 10.3917 25.3601 10.4976 25.2095 10.5886C25.0588 10.6797 24.8925 10.755 24.7104 10.8146L24.4688 12.0833H22.7771ZM23.6229 9.36458C24.0458 9.36458 24.4035 9.21838 24.6959 8.92596C24.9883 8.63354 25.1341 8.27628 25.1333 7.85417C25.1325 7.43206 24.9863 7.07439 24.6947 6.78117C24.4031 6.48794 24.0458 6.34214 23.6229 6.34375C23.2 6.34536 22.8423 6.49157 22.5499 6.78238C22.2575 7.07318 22.1117 7.43044 22.1125 7.85417C22.1133 8.27789 22.2595 8.63556 22.5511 8.92717C22.8427 9.21878 23.2 9.36458 23.6229 9.36458Z" fill="#FF9500"/>
</svg>
