<svg width="36" height="36" viewBox="0 0 36 36" fill="none" xmlns="http://www.w3.org/2000/svg">
<path fill-rule="evenodd" clip-rule="evenodd" d="M18 9.00004C17.3106 9.00004 16.6279 9.13584 15.9909 9.39967C15.354 9.66351 14.7752 10.0502 14.2877 10.5377C13.8002 11.0252 13.4135 11.604 13.1496 12.241C12.8858 12.8779 12.75 13.5606 12.75 14.25C12.75 14.9395 12.8858 15.6222 13.1496 16.2591C13.4135 16.8961 13.8002 17.4748 14.2877 17.9623C14.7752 18.4499 15.354 18.8366 15.9909 19.1004C16.6279 19.3642 17.3106 19.5 18 19.5C19.3924 19.5 20.7277 18.9469 21.7123 17.9623C22.6969 16.9778 23.25 15.6424 23.25 14.25C23.25 12.8577 22.6969 11.5223 21.7123 10.5377C20.7277 9.55316 19.3924 9.00004 18 9.00004ZM15.75 21C14.1587 21 12.6326 21.6322 11.5074 22.7574C10.3821 23.8826 9.75 25.4087 9.75 27C9.75 27.7957 10.0661 28.5587 10.6287 29.1214C11.1913 29.684 11.9544 30 12.75 30H24.8659C24.8659 30 24.1888 29.6557 24 29.4C23.4168 28.61 22.95 28.1999 22.8 27C22.6242 25.594 22.65 24.6 22.8 23.4C22.2 22.1999 20.25 21 20.25 21H15.75ZM25.98 16.356C26.4568 14.5401 26.3012 12.6158 25.5386 10.9001C24.776 9.18439 23.452 7.77944 21.7845 6.91654C22.4199 6.48232 23.1431 6.19311 23.9027 6.06939C24.6623 5.94568 25.4398 5.99049 26.1802 6.20065C26.9206 6.41081 27.6057 6.78118 28.187 7.28553C28.7683 7.78988 29.2317 8.41587 29.5442 9.11918C29.8567 9.82249 30.0108 10.5859 29.9955 11.3554C29.9803 12.1249 29.796 12.8816 29.4558 13.5719C29.1156 14.2622 28.6277 14.8693 28.0268 15.3502C27.4259 15.8311 26.7266 16.1739 25.9785 16.3545L25.98 16.356ZM28.8 20.4C29.3055 20.5378 30.6 21 30.6 21C30.6 21 31.2072 21.1554 31.8 21.5999C32.6383 22.2287 33 24.7957 33 24C33 22.4087 32.3679 20.8826 31.2426 19.7574C30.1174 18.6322 28.5913 18 27 18H25.35C25.146 18.3996 24.9097 18.7819 24.6435 19.143C26.0408 19.9246 25.977 20.1965 27 20.4C27.6894 20.5371 28.1218 20.215 28.8 20.4ZM6 11.25C5.99977 10.2942 6.26048 9.35648 6.75402 8.53794C7.24756 7.7194 7.95519 7.05113 8.8006 6.60519C9.64602 6.15925 10.5971 5.95257 11.5514 6.00744C12.5056 6.06231 13.4268 6.37664 14.2155 6.91654C12.5464 7.77758 11.221 9.18236 10.4584 10.8987C9.69583 12.6151 9.54171 14.5402 10.0215 16.356C8.8752 16.0801 7.85513 15.4264 7.12562 14.5002C6.3961 13.5739 5.99961 12.4291 6 11.25ZM10.65 18H9C7.4087 18 5.88258 18.6322 4.75736 19.7574C3.63214 20.8826 3 22.4087 3 24C3 24.7957 3.31607 25.5587 3.87868 26.1214C4.44129 26.684 5.20435 27 6 27H6.75C6.7496 25.3991 7.17627 23.8269 7.98601 22.4458C8.79575 21.0647 9.95924 19.9246 11.3565 19.143C11.0903 18.7819 10.854 18.3996 10.65 18Z" fill="#0184FE"/>
<circle cx="27.6" cy="25.2" r="6" fill="#F0F8FF"/>
<path d="M28.2 30.525C30.8095 30.525 32.925 28.4095 32.925 25.8C32.925 23.1904 30.8095 21.075 28.2 21.075C25.5904 21.075 23.475 23.1904 23.475 25.8C23.475 28.4095 25.5904 30.525 28.2 30.525Z" fill="#0184FE"/>
<path d="M27.525 23.55H28.875V28.05H27.525V23.55Z" fill="white"/>
<path d="M25.95 25.125H30.45V26.475H25.95V25.125Z" fill="white"/>
</svg>
