<svg width="24" height="25" viewBox="0 0 24 25" fill="none" xmlns="http://www.w3.org/2000/svg">
<path d="M19.23 15.6035L16.69 15.3135C16.3913 15.2784 16.0886 15.3115 15.8045 15.4102C15.5205 15.509 15.2625 15.6708 15.05 15.8835L13.21 17.7235C10.3714 16.2795 8.06404 13.9721 6.61998 11.1335L8.46998 9.28352C8.89998 8.85352 9.10998 8.25352 9.03998 7.64352L8.74998 5.12352C8.6935 4.63561 8.45945 4.18554 8.09244 3.85911C7.72544 3.53268 7.25115 3.35272 6.75998 3.35352H5.02998C3.89998 3.35352 2.95998 4.29352 3.02998 5.42352C3.55998 13.9635 10.39 20.7835 18.92 21.3135C20.05 21.3835 20.99 20.4435 20.99 19.3135V17.5835C21 16.5735 20.24 15.7235 19.23 15.6035Z" fill="white"/>
</svg>
