<svg width="30" height="30" viewBox="0 0 30 30" fill="none" xmlns="http://www.w3.org/2000/svg">
<g clip-path="url(#clip0_55_201)">
<path d="M8.16668 15.6667H21.8333V18.2334H23.1667V14.3334H15.6667V11.6667H14.3333V14.3334H6.83334V18.2334H8.16668V15.6667Z" fill="#0184FE"/>
<path d="M11.6667 19.1667H3.33332C2.41285 19.1667 1.66666 19.9129 1.66666 20.8334V25.8334C1.66666 26.7539 2.41285 27.5001 3.33332 27.5001H11.6667C12.5871 27.5001 13.3333 26.7539 13.3333 25.8334V20.8334C13.3333 19.9129 12.5871 19.1667 11.6667 19.1667Z" fill="#0184FE"/>
<path d="M26.6667 19.1667H18.3333C17.4128 19.1667 16.6667 19.9129 16.6667 20.8334V25.8334C16.6667 26.7539 17.4128 27.5001 18.3333 27.5001H26.6667C27.5871 27.5001 28.3333 26.7539 28.3333 25.8334V20.8334C28.3333 19.9129 27.5871 19.1667 26.6667 19.1667Z" fill="#0184FE"/>
<path d="M19.1667 2.5H10.8333C9.91285 2.5 9.16666 3.24619 9.16666 4.16667V9.16667C9.16666 10.0871 9.91285 10.8333 10.8333 10.8333H19.1667C20.0871 10.8333 20.8333 10.0871 20.8333 9.16667V4.16667C20.8333 3.24619 20.0871 2.5 19.1667 2.5Z" fill="#0184FE"/>
</g>
<defs>
<clipPath id="clip0_55_201">
<rect width="30" height="30" fill="white"/>
</clipPath>
</defs>
</svg>
