<svg width="30" height="30" viewBox="0 0 30 30" fill="none" xmlns="http://www.w3.org/2000/svg">
<path d="M21.875 15C23.6984 15 25.447 15.7243 26.7364 17.0136C28.0257 18.303 28.75 20.0516 28.75 21.875C28.75 23.6984 28.0257 25.447 26.7364 26.7364C25.447 28.0257 23.6984 28.75 21.875 28.75C20.0516 28.75 18.303 28.0257 17.0136 26.7364C15.7243 25.447 15 23.6984 15 21.875C15 20.0516 15.7243 18.303 17.0136 17.0136C18.303 15.7243 20.0516 15 21.875 15ZM21.875 17.5L21.7625 17.5087C21.6376 17.5316 21.5226 17.5919 21.4329 17.6816C21.3431 17.7714 21.2828 17.8864 21.26 18.0113L21.25 18.125V21.25H18.1225L18.01 21.26C17.8851 21.2828 17.7701 21.3431 17.6804 21.4329C17.5906 21.5226 17.5303 21.6376 17.5075 21.7625L17.4975 21.875L17.5075 21.9875C17.5303 22.1124 17.5906 22.2274 17.6804 22.3171C17.7701 22.4069 17.8851 22.4672 18.01 22.49L18.1225 22.5H21.25V25.6287L21.26 25.7413C21.2828 25.8661 21.3431 25.9811 21.4329 26.0709C21.5226 26.1606 21.6376 26.2209 21.7625 26.2438L21.875 26.2537L21.9875 26.2438C22.1124 26.2209 22.2274 26.1606 22.3171 26.0709C22.4069 25.9811 22.4672 25.8661 22.49 25.7413L22.5 25.6287V22.5L25.63 22.5012L25.7425 22.4912C25.8674 22.4684 25.9824 22.4081 26.0721 22.3184C26.1619 22.2286 26.2222 22.1136 26.245 21.9888L26.255 21.8762L26.245 21.7637C26.2221 21.6387 26.1616 21.5236 26.0716 21.4338C25.9816 21.344 25.8664 21.2838 25.7413 21.2613L25.6287 21.2512H22.5V18.1263L22.49 18.0138C22.4674 17.8886 22.4072 17.7734 22.3174 17.6834C22.2276 17.5934 22.1126 17.5329 21.9875 17.51L21.875 17.5ZM17.8175 12.5C18.3123 12.5001 18.7984 12.6307 19.2266 12.8787C19.6548 13.1267 20.0099 13.4833 20.2563 13.9125C18.9638 14.1759 17.7548 14.7499 16.7338 15.5849C15.7127 16.42 14.9102 17.491 14.3956 18.7055C13.881 19.92 13.6698 21.2416 13.7801 22.556C13.8904 23.8704 14.3189 25.1382 15.0287 26.25L15.0037 26.2488C14.2649 26.2489 13.5332 26.1035 12.8505 25.8208C12.1678 25.5381 11.5475 25.1237 11.025 24.6012C10.5025 24.0787 10.0881 23.4584 9.80544 22.7758C9.52275 22.0931 9.37734 21.3614 9.3775 20.6225V15.3125C9.3775 14.5666 9.67382 13.8512 10.2013 13.3238C10.7287 12.7963 11.4441 12.5 12.19 12.5H17.8175ZM9.2575 12.5C8.59561 13.1888 8.19847 14.0893 8.13625 15.0425L8.1275 15.3125V20.6238C8.1275 21.6825 8.36625 22.685 8.79375 23.58C8.38042 23.6925 7.94917 23.7492 7.5 23.75C6.84329 23.75 6.193 23.6206 5.58629 23.3693C4.97958 23.1179 4.42833 22.7495 3.96402 22.2851C3.49972 21.8207 3.13144 21.2693 2.88024 20.6626C2.62904 20.0558 2.49984 19.4055 2.5 18.7487V15.3125C2.49991 14.5998 2.77037 13.9137 3.25671 13.3928C3.74305 12.8719 4.40901 12.555 5.12 12.5063L5.3125 12.5H9.2575ZM24.6875 12.5C25.4334 12.5 26.1488 12.7963 26.6762 13.3238C27.2037 13.8512 27.5 14.5666 27.5 15.3125V16.0125C25.9886 14.5586 23.9722 13.7475 21.875 13.75L21.5713 13.7563C21.3762 13.2907 21.0975 12.8649 20.7488 12.5H24.6875ZM23.125 5C23.9538 5 24.7487 5.32924 25.3347 5.91529C25.9208 6.50134 26.25 7.2962 26.25 8.125C26.25 8.9538 25.9208 9.74866 25.3347 10.3347C24.7487 10.9208 23.9538 11.25 23.125 11.25C22.2962 11.25 21.5013 10.9208 20.9153 10.3347C20.3292 9.74866 20 8.9538 20 8.125C20 7.2962 20.3292 6.50134 20.9153 5.91529C21.5013 5.32924 22.2962 5 23.125 5ZM15 3.75C15.9946 3.75 16.9484 4.14509 17.6517 4.84835C18.3549 5.55161 18.75 6.50544 18.75 7.5C18.75 8.49456 18.3549 9.44839 17.6517 10.1517C16.9484 10.8549 15.9946 11.25 15 11.25C14.0054 11.25 13.0516 10.8549 12.3483 10.1517C11.6451 9.44839 11.25 8.49456 11.25 7.5C11.25 6.50544 11.6451 5.55161 12.3483 4.84835C13.0516 4.14509 14.0054 3.75 15 3.75ZM6.875 5C7.7038 5 8.49866 5.32924 9.08471 5.91529C9.67076 6.50134 10 7.2962 10 8.125C10 8.9538 9.67076 9.74866 9.08471 10.3347C8.49866 10.9208 7.7038 11.25 6.875 11.25C6.0462 11.25 5.25134 10.9208 4.66529 10.3347C4.07924 9.74866 3.75 8.9538 3.75 8.125C3.75 7.2962 4.07924 6.50134 4.66529 5.91529C5.25134 5.32924 6.0462 5 6.875 5Z" fill="#0184FE"/>
</svg>
