<svg width="15" height="17" viewBox="0 0 15 17" fill="none" xmlns="http://www.w3.org/2000/svg">
<path d="M10.8333 10C11.9071 10.0001 12.9393 10.4146 13.7148 11.1572C14.4903 11.8998 14.9492 12.9131 14.9958 13.9858L15 14.1667V15C15.0001 15.4205 14.8413 15.8255 14.5554 16.1338C14.2695 16.4421 13.8776 16.631 13.4583 16.6625L13.3333 16.6667H1.66667C1.24619 16.6668 0.841194 16.508 0.532877 16.2221C0.224559 15.9362 0.0357028 15.5443 0.00416676 15.125L0 15V14.1667C6.20354e-05 13.0929 0.414618 12.0607 1.15722 11.2852C1.89982 10.5097 2.91313 10.0508 3.98583 10.0042L4.16667 10H10.8333ZM7.5 0C8.60507 0 9.66488 0.438987 10.4463 1.22039C11.2277 2.00179 11.6667 3.0616 11.6667 4.16667C11.6667 5.27174 11.2277 6.33154 10.4463 7.11294C9.66488 7.89435 8.60507 8.33333 7.5 8.33333C6.39493 8.33333 5.33512 7.89435 4.55372 7.11294C3.77232 6.33154 3.33333 5.27174 3.33333 4.16667C3.33333 3.0616 3.77232 2.00179 4.55372 1.22039C5.33512 0.438987 6.39493 0 7.5 0Z" fill="white"/>
</svg>
