<svg width="43" height="43" viewBox="0 0 43 43" fill="none" xmlns="http://www.w3.org/2000/svg">
<path d="M26.875 7.16669C30.6764 7.16669 34.3222 8.6768 37.0102 11.3648C39.6982 14.0528 41.2083 17.6986 41.2083 21.5C41.2083 25.3015 39.6982 28.9472 37.0102 31.6352C34.3222 34.3232 30.6764 35.8334 26.875 35.8334C23.0736 35.8334 19.4278 34.3232 16.7398 31.6352C14.0518 28.9472 12.5417 25.3015 12.5417 21.5C12.5417 17.6986 14.0518 14.0528 16.7398 11.3648C19.4278 8.6768 23.0736 7.16669 26.875 7.16669ZM26.875 10.75C24.0239 10.75 21.2896 11.8826 19.2736 13.8986C17.2576 15.9146 16.125 18.6489 16.125 21.5C16.125 24.3511 17.2576 27.0854 19.2736 29.1014C21.2896 31.1174 24.0239 32.25 26.875 32.25C29.7261 32.25 32.4604 31.1174 34.4764 29.1014C36.4924 27.0854 37.625 24.3511 37.625 21.5C37.625 18.6489 36.4924 15.9146 34.4764 13.8986C32.4604 11.8826 29.7261 10.75 26.875 10.75ZM25.0833 14.3334H27.7708V21.1059L31.9454 25.2804L30.0462 27.1796L25.0833 22.2167V14.3334ZM3.58333 32.25C3.10815 32.25 2.65243 32.0613 2.31643 31.7253C1.98043 31.3893 1.79166 30.9335 1.79166 30.4584C1.79166 29.9832 1.98043 29.5275 2.31643 29.1915C2.65243 28.8554 3.10815 28.6667 3.58333 28.6667H10.4454C11.0008 29.9388 11.7175 31.1392 12.5417 32.25H3.58333ZM5.375 23.2917C4.89982 23.2917 4.4441 23.1029 4.1081 22.7669C3.7721 22.4309 3.58333 21.9752 3.58333 21.5C3.58333 21.0248 3.7721 20.5691 4.1081 20.2331C4.4441 19.8971 4.89982 19.7084 5.375 19.7084H9.04791L8.95833 21.5L9.04791 23.2917H5.375ZM7.16666 14.3334C6.69148 14.3334 6.23577 14.1446 5.89976 13.8086C5.56376 13.4726 5.375 13.0169 5.375 12.5417C5.375 12.0665 5.56376 11.6108 5.89976 11.2748C6.23577 10.9388 6.69148 10.75 7.16666 10.75H12.5417C11.7175 11.8609 11.0008 13.0613 10.4454 14.3334H7.16666Z" fill="#FF9500"/>
</svg>
