<svg width="30" height="30" viewBox="0 0 30 30" fill="none" xmlns="http://www.w3.org/2000/svg">
<path d="M5 27.5C4.3125 27.5 3.72417 27.2554 3.235 26.7663C2.74583 26.2771 2.50083 25.6883 2.5 25V11.25C2.5 10.5625 2.745 9.97417 3.235 9.485C3.725 8.99583 4.31333 8.75083 5 8.75H11.25V5C11.25 4.3125 11.495 3.72417 11.985 3.235C12.475 2.74583 13.0633 2.50083 13.75 2.5H16.25C16.9375 2.5 17.5262 2.745 18.0163 3.235C18.5063 3.725 18.7508 4.31333 18.75 5V8.75H25C25.6875 8.75 26.2763 8.995 26.7663 9.485C27.2563 9.975 27.5008 10.5633 27.5 11.25V25C27.5 25.6875 27.2554 26.2763 26.7663 26.7663C26.2771 27.2563 25.6883 27.5008 25 27.5H5ZM7.5 22.5H15V21.9375C15 21.5833 14.9008 21.255 14.7025 20.9525C14.5042 20.65 14.2283 20.4158 13.875 20.25C13.4583 20.0625 13.0367 19.9221 12.61 19.8288C12.1833 19.7354 11.73 19.6883 11.25 19.6875C10.77 19.6867 10.3167 19.7337 9.89 19.8288C9.46333 19.9237 9.04167 20.0642 8.625 20.25C8.27083 20.4167 7.99458 20.6513 7.79625 20.9538C7.59792 21.2563 7.49917 21.5842 7.5 21.9375V22.5ZM17.5 20.625H22.5V18.75H17.5V20.625ZM11.25 18.75C11.7708 18.75 12.2137 18.5679 12.5787 18.2037C12.9437 17.8396 13.1258 17.3967 13.125 16.875C13.1242 16.3533 12.9421 15.9108 12.5787 15.5475C12.2154 15.1842 11.7725 15.0017 11.25 15C10.7275 14.9983 10.285 15.1808 9.9225 15.5475C9.56 15.9142 9.3775 16.3567 9.375 16.875C9.3725 17.3933 9.555 17.8362 9.9225 18.2037C10.29 18.5712 10.7325 18.7533 11.25 18.75ZM17.5 16.875H22.5V15H17.5V16.875ZM13.75 11.25H16.25V5H13.75V11.25Z" fill="#0184FE"/>
</svg>
