<svg width="30" height="30" viewBox="0 0 30 30" fill="none" xmlns="http://www.w3.org/2000/svg">
<path d="M13.5763 5.20375C14.21 4.0675 14.5263 3.5 15 3.5C15.4738 3.5 15.79 4.0675 16.4238 5.20375L16.5863 5.4975C16.7675 5.82125 16.8575 5.9825 16.9975 6.08875C17.1375 6.195 17.3125 6.235 17.6625 6.31375L17.98 6.38625C19.21 6.66375 19.825 6.80375 19.9713 7.27375C20.1175 7.74375 19.6988 8.235 18.86 9.215L18.6425 9.46875C18.405 9.7475 18.2863 9.88625 18.2325 10.0588C18.1788 10.2313 18.1963 10.4175 18.2325 10.7887L18.265 11.1262C18.3925 12.435 18.455 13.0888 18.0725 13.38C17.69 13.6713 17.1138 13.405 15.9625 12.875L15.6638 12.7375C15.3375 12.5875 15.1738 12.5125 15 12.5125C14.8263 12.5125 14.6625 12.5875 14.3363 12.7375L14.0375 12.875C12.8875 13.4063 12.31 13.6713 11.9275 13.38C11.545 13.0888 11.6075 12.435 11.735 11.1275L11.7675 10.7887C11.8037 10.4175 11.8212 10.2313 11.7675 10.0588C11.7137 9.88625 11.595 9.74625 11.3575 9.46875L11.14 9.215C10.3025 8.235 9.8825 7.74375 10.0288 7.27375C10.175 6.80375 10.79 6.66375 12.02 6.38625L12.3375 6.31375C12.6875 6.235 12.8625 6.195 13.0025 6.08875C13.1425 5.9825 13.2325 5.82125 13.4125 5.4975L13.5763 5.20375ZM24.2875 10.6025C24.605 10.0338 24.7625 9.75 25 9.75C25.2375 9.75 25.395 10.0338 25.7125 10.6025L25.7938 10.7487C25.8838 10.9112 25.9288 10.9913 25.9988 11.045C26.0688 11.0988 26.1563 11.1175 26.3313 11.1575L26.49 11.1925C27.105 11.3325 27.4125 11.4013 27.485 11.6375C27.5575 11.8738 27.3488 12.1175 26.93 12.6075L26.8213 12.7338C26.7025 12.8738 26.6425 12.9437 26.6162 13.03C26.59 13.1162 26.5987 13.2088 26.6162 13.395L26.6325 13.5637C26.695 14.2175 26.7275 14.545 26.5363 14.69C26.345 14.835 26.0575 14.7025 25.4813 14.4375L25.3312 14.3687C25.1687 14.2937 25.0863 14.2562 25 14.2562C24.9125 14.2562 24.8312 14.2937 24.6675 14.3687L24.5188 14.4375C23.9438 14.7025 23.6563 14.835 23.4638 14.69C23.2725 14.545 23.3038 14.2175 23.3675 13.5637L23.3838 13.395C23.4013 13.2075 23.4113 13.115 23.3838 13.03C23.3575 12.9425 23.2975 12.8738 23.1787 12.7338L23.07 12.6075C22.6512 12.1175 22.4412 11.8725 22.515 11.6375C22.5887 11.4025 22.895 11.3325 23.51 11.1925L23.6687 11.1575C23.8437 11.1175 23.9313 11.0975 24.0013 11.045C24.0713 10.9913 24.1163 10.91 24.2063 10.7487L24.2875 10.6025ZM4.2875 10.6025C4.60625 10.0338 4.7625 9.75 5 9.75C5.2375 9.75 5.395 10.0338 5.7125 10.6025L5.79375 10.7487C5.88375 10.9112 5.92875 10.9913 5.99875 11.045C6.06875 11.0988 6.15625 11.1175 6.33125 11.1575L6.49 11.1925C7.105 11.3325 7.4125 11.4013 7.48625 11.6375C7.55875 11.8725 7.34875 12.1175 6.93 12.6075L6.82125 12.7338C6.7025 12.8738 6.6425 12.9437 6.61625 13.03C6.59 13.1162 6.59875 13.2088 6.61625 13.395L6.6325 13.5637C6.695 14.2175 6.7275 14.545 6.53625 14.69C6.345 14.835 6.05625 14.7025 5.48125 14.4375L5.33125 14.3687C5.16875 14.2937 5.08625 14.2562 5 14.2562C4.9125 14.2562 4.83125 14.2937 4.6675 14.3687L4.51875 14.4375C3.94375 14.7025 3.65625 14.835 3.46375 14.69C3.2725 14.545 3.30375 14.2175 3.3675 13.5637L3.38375 13.395C3.40125 13.2075 3.41125 13.115 3.38375 13.03C3.3575 12.9425 3.2975 12.8738 3.17875 12.7338L3.07 12.6075C2.65125 12.1175 2.44125 11.8725 2.51375 11.6375C2.5875 11.4013 2.895 11.3325 3.51 11.1925L3.66875 11.1575C3.84375 11.1175 3.93125 11.0975 4.00125 11.045C4.07125 10.9913 4.11625 10.91 4.20625 10.7487L4.2875 10.6025Z" stroke="#0184FE" stroke-width="2"/>
<path d="M6.25 26.4848H9.075C10.3375 26.4848 11.6163 26.6173 12.845 26.8698C15.0389 27.3191 17.2959 27.369 19.5075 27.0173C20.5925 26.8423 21.6575 26.5735 22.6225 26.1085C23.4925 25.6873 24.5587 25.096 25.275 24.4323C25.99 23.7698 26.735 22.686 27.2625 21.8385C27.7175 21.111 27.4975 20.2198 26.78 19.6785C26.3766 19.3858 25.8909 19.2282 25.3925 19.2282C24.8941 19.2282 24.4084 19.3858 24.005 19.6785L21.7462 21.3848C20.8712 22.0473 19.915 22.656 18.7763 22.8373C18.6388 22.8589 18.495 22.8785 18.345 22.896M18.345 22.896L18.2075 22.911M18.345 22.896C18.545 22.8418 18.7285 22.7387 18.8788 22.596C19.0674 22.4333 19.2215 22.2343 19.3319 22.0109C19.4423 21.7876 19.5067 21.5443 19.5214 21.2956C19.5361 21.0468 19.5007 20.7977 19.4174 20.5629C19.334 20.3281 19.2044 20.1123 19.0363 19.9285C18.8734 19.7477 18.6836 19.593 18.4738 19.4698C14.9775 17.3835 9.53625 18.9723 6.25 21.3035M18.345 22.896C18.2999 22.9061 18.2537 22.9111 18.2075 22.911M18.2075 22.911C17.4536 22.9866 16.6942 22.9883 15.94 22.916" stroke="#0184FE" stroke-width="2" stroke-linecap="round"/>
<path d="M6.25 20.375C6.25 19.3395 5.41053 18.5 4.375 18.5C3.33947 18.5 2.5 19.3395 2.5 20.375V26.625C2.5 27.6605 3.33947 28.5 4.375 28.5C5.41053 28.5 6.25 27.6605 6.25 26.625V20.375Z" stroke="#0184FE" stroke-width="2"/>
</svg>
