<svg width="30" height="30" viewBox="0 0 30 30" fill="none" xmlns="http://www.w3.org/2000/svg">
<path d="M11.2488 27.1628V24.3503V27.1628ZM5.28282 24.6914L7.2715 22.7027L5.28282 24.6914ZM2.81134 18.7253H5.62384H2.81134Z" fill="#0184FE"/>
<path d="M11.2488 27.1628V24.3503M5.28282 24.6914L7.2715 22.7027M2.81134 18.7253H5.62384" stroke="#0184FE" stroke-miterlimit="10" stroke-linecap="square"/>
<path d="M24.7383 5.26279C23.955 4.47847 23.0248 3.85618 22.0009 3.43148C20.9771 3.00677 19.8795 2.78798 18.771 2.7876C17.6626 2.78722 16.5649 3.00526 15.5407 3.42926C14.5166 3.85326 13.586 4.47491 12.8021 5.25869L8.82479 9.23603L12.8021 13.214L16.7795 9.23603C17.0435 8.972 17.3575 8.76319 17.7031 8.62179C18.0487 8.48039 18.419 8.40922 18.7924 8.41244C19.1658 8.41566 19.5348 8.4932 19.8779 8.64053C20.221 8.78787 20.5313 9.00206 20.7908 9.2706C21.8631 10.3792 21.815 12.1558 20.724 13.2468L16.7795 17.1913L20.7568 21.1686L24.6773 17.2481C27.9803 13.9452 28.0389 8.56748 24.7383 5.26279ZM4.8468 13.2138L7.4984 10.5622L11.4759 14.5396L8.8242 17.1913L4.8468 13.2138ZM12.8021 21.1681L15.4537 18.5165L19.4312 22.4939L16.7795 25.1456L12.8021 21.1681Z" fill="#0184FE"/>
</svg>
