<svg width="36" height="37" viewBox="0 0 36 37" fill="none" xmlns="http://www.w3.org/2000/svg">
<path d="M26.1562 19.6562C26.1562 20.0292 26.0081 20.3869 25.7444 20.6506C25.4806 20.9143 25.123 21.0625 24.75 21.0625H17.25C16.877 21.0625 16.5194 20.9143 16.2556 20.6506C15.9919 20.3869 15.8438 20.0292 15.8438 19.6562C15.8438 19.2832 15.9919 18.9256 16.2556 18.6618C16.5194 18.3981 16.877 18.25 17.25 18.25H24.75C25.123 18.25 25.4806 18.3981 25.7444 18.6618C26.0081 18.9256 26.1562 19.2832 26.1562 19.6562ZM24.75 22.9375H17.25C16.877 22.9375 16.5194 23.0856 16.2556 23.3493C15.9919 23.6131 15.8438 23.9707 15.8438 24.3437C15.8438 24.7167 15.9919 25.0744 16.2556 25.3381C16.5194 25.6018 16.877 25.75 17.25 25.75H24.75C25.123 25.75 25.4806 25.6018 25.7444 25.3381C26.0081 25.0744 26.1562 24.7167 26.1562 24.3437C26.1562 23.9707 26.0081 23.6131 25.7444 23.3493C25.4806 23.0856 25.123 22.9375 24.75 22.9375ZM33.6562 22C33.6567 24.1679 33.1003 26.2996 32.0403 28.1907C30.9803 30.0818 29.4524 31.669 27.6029 32.8C25.7533 33.931 23.6443 34.568 21.4779 34.6499C19.3115 34.7317 17.1605 34.2557 15.2309 33.2675L11.4305 34.539C11.0168 34.6785 10.5723 34.6996 10.1472 34.6C9.72217 34.5004 9.33337 34.284 9.02466 33.9753C8.71595 33.6666 8.49961 33.2778 8.4 32.8527C8.3004 32.4276 8.32151 31.9832 8.46094 31.5695L9.72773 27.7691C8.85784 26.0652 8.38556 24.1862 8.34641 22.2734C8.30726 20.3607 8.70225 18.4639 9.50169 16.7258C10.3011 14.9877 11.4842 13.4534 12.962 12.2384C14.4397 11.0233 16.1737 10.1591 18.0336 9.7107C19.8935 9.26229 21.8308 9.24136 23.6999 9.64948C25.569 10.0576 27.3213 10.8842 28.8249 12.067C30.3286 13.2498 31.5446 14.7582 32.3814 16.4786C33.2182 18.199 33.6541 20.0868 33.6562 22ZM30.8438 22C30.8432 20.49 30.4953 19.0005 29.8269 17.6466C29.1586 16.2926 28.1878 15.1106 26.9895 14.1919C25.7913 13.2731 24.3977 12.6424 22.9167 12.3484C21.4357 12.0544 19.9069 12.105 18.4486 12.4964C16.9903 12.8877 15.6416 13.6093 14.5067 14.6053C13.3719 15.6013 12.4814 16.845 11.9041 18.2402C11.3268 19.6354 11.0782 21.1447 11.1776 22.6513C11.2769 24.1579 11.7215 25.6215 12.477 26.9289C12.5768 27.1013 12.6389 27.2929 12.6591 27.4911C12.6793 27.6893 12.6572 27.8895 12.5941 28.0785L11.4305 31.5695L14.9215 30.4058C15.0651 30.358 15.2154 30.3335 15.3668 30.3332C15.6138 30.3336 15.8563 30.3991 16.0699 30.523C17.5664 31.3889 19.2646 31.8454 20.9936 31.8466C22.7226 31.8477 24.4214 31.3934 25.919 30.5294C27.4166 29.6654 28.6603 28.4222 29.5248 26.9249C30.3893 25.4276 30.8442 23.7289 30.8438 22Z" fill="#0184FE"/>
<circle cx="15" cy="16" r="11" fill="#F0F8FF"/>
<path d="M20.1562 12.6562C20.1562 13.0292 20.0081 13.3869 19.7444 13.6506C19.4806 13.9143 19.123 14.0625 18.75 14.0625H11.25C10.877 14.0625 10.5194 13.9143 10.2556 13.6506C9.99191 13.3869 9.84375 13.0292 9.84375 12.6562C9.84375 12.2832 9.99191 11.9256 10.2556 11.6618C10.5194 11.3981 10.877 11.25 11.25 11.25H18.75C19.123 11.25 19.4806 11.3981 19.7444 11.6618C20.0081 11.9256 20.1562 12.2832 20.1562 12.6562ZM18.75 15.9375H11.25C10.877 15.9375 10.5194 16.0856 10.2556 16.3493C9.99191 16.6131 9.84375 16.9707 9.84375 17.3437C9.84375 17.7167 9.99191 18.0744 10.2556 18.3381C10.5194 18.6018 10.877 18.75 11.25 18.75H18.75C19.123 18.75 19.4806 18.6018 19.7444 18.3381C20.0081 18.0744 20.1562 17.7167 20.1562 17.3437C20.1562 16.9707 20.0081 16.6131 19.7444 16.3493C19.4806 16.0856 19.123 15.9375 18.75 15.9375ZM27.6562 15C27.6567 17.1679 27.1003 19.2996 26.0403 21.1907C24.9803 23.0818 23.4524 24.669 21.6029 25.8C19.7533 26.931 17.6443 27.568 15.4779 27.6499C13.3115 27.7317 11.1605 27.2557 9.23086 26.2675L5.43047 27.539C5.01675 27.6785 4.57231 27.6996 4.14724 27.6C3.72217 27.5004 3.33337 27.284 3.02466 26.9753C2.71595 26.6666 2.49961 26.2778 2.4 25.8527C2.3004 25.4276 2.32151 24.9832 2.46094 24.5695L3.72773 20.7691C2.85784 19.0652 2.38556 17.1862 2.34641 15.2734C2.30726 13.3607 2.70225 11.4639 3.50169 9.72581C4.30112 7.9877 5.4842 6.45343 6.96197 5.23838C8.43974 4.02333 10.1737 3.15911 12.0336 2.7107C13.8935 2.26229 15.8308 2.24136 17.6999 2.64948C19.569 3.0576 21.3213 3.88415 22.8249 5.06699C24.3286 6.24983 25.5446 7.75817 26.3814 9.47861C27.2182 11.199 27.6541 13.0868 27.6562 15ZM24.8438 15C24.8432 13.49 24.4953 12.0005 23.8269 10.6466C23.1586 9.29262 22.1878 8.11057 20.9895 7.19185C19.7913 6.27314 18.3977 5.64238 16.9167 5.34838C15.4357 5.05438 13.9069 5.10501 12.4486 5.49636C10.9903 5.88771 9.64156 6.60929 8.50673 7.60528C7.3719 8.60127 6.4814 9.84497 5.90412 11.2402C5.32684 12.6354 5.07824 14.1447 5.17757 15.6513C5.27691 17.1579 5.7215 18.6215 6.47695 19.9289C6.5768 20.1013 6.63888 20.2929 6.65909 20.4911C6.67929 20.6893 6.65715 20.8895 6.59414 21.0785L5.43047 24.5695L8.92148 23.4058C9.06509 23.358 9.21543 23.3335 9.3668 23.3332C9.61378 23.3336 9.85629 23.3991 10.0699 23.523C11.5664 24.3889 13.2646 24.8454 14.9936 24.8466C16.7226 24.8477 18.4214 24.3934 19.919 23.5294C21.4166 22.6654 22.6603 21.4222 23.5248 19.9249C24.3893 18.4276 24.8442 16.7289 24.8438 15Z" fill="#0184FE"/>
</svg>
