<svg width="21" height="21" viewBox="0 0 21 21" fill="none" xmlns="http://www.w3.org/2000/svg">
<path d="M6.55078 1.67969H13.6055C16.293 1.67969 18.4766 3.86328 18.4766 6.55078V13.6055C18.4766 14.8974 17.9634 16.1363 17.0499 17.0499C16.1363 17.9634 14.8974 18.4766 13.6055 18.4766H6.55078C3.86328 18.4766 1.67969 16.293 1.67969 13.6055V6.55078C1.67969 5.25889 2.19289 4.01991 3.1064 3.1064C4.01991 2.19289 5.25889 1.67969 6.55078 1.67969ZM6.38281 3.35938C5.58095 3.35938 4.81192 3.67791 4.24492 4.24492C3.67791 4.81192 3.35938 5.58095 3.35938 6.38281V13.7734C3.35938 15.4447 4.71152 16.7969 6.38281 16.7969H13.7734C14.5753 16.7969 15.3443 16.4783 15.9113 15.9113C16.4783 15.3443 16.7969 14.5753 16.7969 13.7734V6.38281C16.7969 4.71152 15.4447 3.35938 13.7734 3.35938H6.38281ZM14.4873 4.61914C14.7657 4.61914 15.0328 4.72974 15.2296 4.92662C15.4265 5.1235 15.5371 5.39052 15.5371 5.66895C15.5371 5.94737 15.4265 6.21439 15.2296 6.41127C15.0328 6.60815 14.7657 6.71875 14.4873 6.71875C14.2089 6.71875 13.9419 6.60815 13.745 6.41127C13.5481 6.21439 13.4375 5.94737 13.4375 5.66895C13.4375 5.39052 13.5481 5.1235 13.745 4.92662C13.9419 4.72974 14.2089 4.61914 14.4873 4.61914ZM10.0781 5.87891C11.1918 5.87891 12.2599 6.32132 13.0474 7.10883C13.8349 7.89634 14.2773 8.96442 14.2773 10.0781C14.2773 11.1918 13.8349 12.2599 13.0474 13.0474C12.2599 13.8349 11.1918 14.2773 10.0781 14.2773C8.96442 14.2773 7.89634 13.8349 7.10883 13.0474C6.32132 12.2599 5.87891 11.1918 5.87891 10.0781C5.87891 8.96442 6.32132 7.89634 7.10883 7.10883C7.89634 6.32132 8.96442 5.87891 10.0781 5.87891ZM10.0781 7.55859C9.4099 7.55859 8.76905 7.82404 8.29655 8.29655C7.82404 8.76905 7.55859 9.4099 7.55859 10.0781C7.55859 10.7463 7.82404 11.3872 8.29655 11.8597C8.76905 12.3322 9.4099 12.5977 10.0781 12.5977C10.7463 12.5977 11.3872 12.3322 11.8597 11.8597C12.3322 11.3872 12.5977 10.7463 12.5977 10.0781C12.5977 9.4099 12.3322 8.76905 11.8597 8.29655C11.3872 7.82404 10.7463 7.55859 10.0781 7.55859Z" fill="#FF9500"/>
</svg>
