<svg width="30" height="30" viewBox="0 0 30 30" fill="none" xmlns="http://www.w3.org/2000/svg">
<path d="M18.75 5C21.4022 5 23.9457 6.05357 25.8211 7.92893C27.6964 9.8043 28.75 12.3478 28.75 15C28.75 17.6522 27.6964 20.1957 25.8211 22.0711C23.9457 23.9464 21.4022 25 18.75 25C16.0978 25 13.5543 23.9464 11.6789 22.0711C9.80357 20.1957 8.75 17.6522 8.75 15C8.75 12.3478 9.80357 9.8043 11.6789 7.92893C13.5543 6.05357 16.0978 5 18.75 5ZM18.75 7.5C16.7609 7.5 14.8532 8.29018 13.4467 9.6967C12.0402 11.1032 11.25 13.0109 11.25 15C11.25 16.9891 12.0402 18.8968 13.4467 20.3033C14.8532 21.7098 16.7609 22.5 18.75 22.5C20.7391 22.5 22.6468 21.7098 24.0533 20.3033C25.4598 18.8968 26.25 16.9891 26.25 15C26.25 13.0109 25.4598 11.1032 24.0533 9.6967C22.6468 8.29018 20.7391 7.5 18.75 7.5ZM17.5 10H19.375V14.725L22.2875 17.6375L20.9625 18.9625L17.5 15.5V10ZM2.5 22.5C2.16848 22.5 1.85054 22.3683 1.61612 22.1339C1.3817 21.8995 1.25 21.5815 1.25 21.25C1.25 20.9185 1.3817 20.6005 1.61612 20.3661C1.85054 20.1317 2.16848 20 2.5 20H7.2875C7.675 20.8875 8.175 21.725 8.75 22.5H2.5ZM3.75 16.25C3.41848 16.25 3.10054 16.1183 2.86612 15.8839C2.6317 15.6495 2.5 15.3315 2.5 15C2.5 14.6685 2.6317 14.3505 2.86612 14.1161C3.10054 13.8817 3.41848 13.75 3.75 13.75H6.3125L6.25 15L6.3125 16.25H3.75ZM5 10C4.66848 10 4.35054 9.8683 4.11612 9.63388C3.8817 9.39946 3.75 9.08152 3.75 8.75C3.75 8.41848 3.8817 8.10054 4.11612 7.86612C4.35054 7.6317 4.66848 7.5 5 7.5H8.75C8.175 8.275 7.675 9.1125 7.2875 10H5Z" fill="#FF9500"/>
</svg>
