<svg width="36" height="36" viewBox="0 0 36 36" fill="none" xmlns="http://www.w3.org/2000/svg">
<path fill-rule="evenodd" clip-rule="evenodd" d="M18 9.00028C17.3106 9.00028 16.6279 9.13608 15.9909 9.39992C15.354 9.66375 14.7752 10.0505 14.2877 10.538C13.8002 11.0255 13.4135 11.6042 13.1496 12.2412C12.8858 12.8782 12.75 13.5608 12.75 14.2503C12.75 14.9397 12.8858 15.6224 13.1496 16.2594C13.4135 16.8963 13.8002 17.4751 14.2877 17.9626C14.7752 18.4501 15.354 18.8368 15.9909 19.1007C16.6279 19.3645 17.3106 19.5003 18 19.5003C19.3924 19.5003 20.7277 18.9472 21.7123 17.9626C22.6969 16.978 23.25 15.6427 23.25 14.2503C23.25 12.8579 22.6969 11.5225 21.7123 10.538C20.7277 9.55341 19.3924 9.00028 18 9.00028ZM15.75 21.0003C14.1587 21.0003 12.6326 21.6324 11.5074 22.7576C10.3821 23.8829 9.75 25.409 9.75 27.0003C9.75 27.7959 10.0661 28.559 10.6287 29.1216C11.1913 29.6842 11.9544 30.0003 12.75 30.0003H24.8659C24.8659 30.0003 24.1888 29.656 24 29.4002C23.4168 28.6102 22.95 28.2001 22.8 27.0002C22.6242 25.5943 22.65 24.6002 22.8 23.4002C22.2 22.2002 20.25 21.0003 20.25 21.0003H15.75ZM25.98 16.3563C26.4568 14.5403 26.3012 12.6161 25.5386 10.9003C24.776 9.18463 23.452 7.77969 21.7845 6.91678C22.4199 6.48256 23.1431 6.19335 23.9027 6.06964C24.6623 5.94593 25.4398 5.99074 26.1802 6.20089C26.9206 6.41105 27.6057 6.78142 28.187 7.28577C28.7683 7.79012 29.2317 8.41611 29.5442 9.11942C29.8567 9.82273 30.0108 10.5862 29.9955 11.3556C29.9803 12.1251 29.796 12.8818 29.4558 13.5721C29.1156 14.2625 28.6277 14.8696 28.0268 15.3505C27.4259 15.8313 26.7266 16.1742 25.9785 16.3548L25.98 16.3563ZM28.8 20.4002C29.3055 20.5381 30.6 21.0002 30.6 21.0002C30.6 21.0002 31.2072 21.1556 31.8 21.6002C32.6383 22.2289 33 24.7959 33 24.0003C33 22.409 32.3679 20.8829 31.2426 19.7576C30.1174 18.6324 28.5913 18.0003 27 18.0003H25.35C25.146 18.3999 24.9097 18.7821 24.6435 19.1433C26.0408 19.9248 25.977 20.1967 27 20.4002C27.6894 20.5373 28.1218 20.2152 28.8 20.4002ZM6 11.2503C5.99977 10.2945 6.26048 9.35672 6.75402 8.53818C7.24756 7.71964 7.95519 7.05137 8.8006 6.60543C9.64602 6.15949 10.5971 5.95281 11.5514 6.00768C12.5056 6.06255 13.4268 6.37688 14.2155 6.91678C12.5464 7.77782 11.221 9.1826 10.4584 10.899C9.69583 12.6153 9.54171 14.5405 10.0215 16.3563C8.8752 16.0804 7.85513 15.4267 7.12562 14.5004C6.3961 13.5742 5.99961 12.4293 6 11.2503ZM10.65 18.0003H9C7.4087 18.0003 5.88258 18.6324 4.75736 19.7576C3.63214 20.8829 3 22.409 3 24.0003C3 24.7959 3.31607 25.559 3.87868 26.1216C4.44129 26.6842 5.20435 27.0003 6 27.0003H6.75C6.7496 25.3993 7.17627 23.8272 7.98601 22.4461C8.79575 21.0649 9.95924 19.9248 11.3565 19.1433C11.0903 18.7821 10.854 18.3999 10.65 18.0003Z" fill="#0184FE"/>
<circle cx="27.6" cy="25.2002" r="6" fill="#F0F8FF"/>
<path d="M28.2 30.5252C30.8095 30.5252 32.925 28.4097 32.925 25.8002C32.925 23.1906 30.8095 21.0752 28.2 21.0752C25.5904 21.0752 23.475 23.1906 23.475 25.8002C23.475 28.4097 25.5904 30.5252 28.2 30.5252Z" fill="#0184FE"/>
<path d="M27.525 23.5503H28.875V28.0503H27.525V23.5503Z" fill="white"/>
<path d="M25.95 25.125H30.45V26.475H25.95V25.125Z" fill="white"/>
</svg>
