<svg width="43" height="43" viewBox="0 0 43 43" fill="none" xmlns="http://www.w3.org/2000/svg">
<path d="M17.9167 32.25V32.0583C17.9167 30.6339 17.028 29.3923 15.9154 28.5036C14.4632 27.3455 13.4069 25.7646 12.8927 23.9797C12.3785 22.1948 12.4318 20.2942 13.0453 18.541C13.6588 16.7878 14.8021 15.2686 16.317 14.1937C17.8319 13.1188 19.6434 12.5415 21.5009 12.5415C23.3584 12.5415 25.1699 13.1188 26.6848 14.1937C28.1997 15.2686 29.343 16.7878 29.9565 18.541C30.57 20.2942 30.6233 22.1948 30.1091 23.9797C29.5949 25.7646 28.5386 27.3455 27.0864 28.5036C25.972 29.3941 25.0833 30.6339 25.0833 32.0583V32.25M17.9167 32.25V35.8333C17.9167 36.3085 18.1054 36.7642 18.4414 37.1002C18.7774 37.4362 19.2332 37.625 19.7083 37.625H23.2917C23.7668 37.625 24.2226 37.4362 24.5586 37.1002C24.8946 36.7642 25.0833 36.3085 25.0833 35.8333V32.25M17.9167 32.25H25.0833M35.8333 21.5H37.625M7.16667 21.5H5.375M21.5 7.16667V5.375M31.6355 11.3645L32.9022 10.0978M11.3663 11.3645L10.0978 10.0978M21.5 26.875V23.2917" stroke="#FF9500" stroke-width="3" stroke-linecap="round" stroke-linejoin="round"/>
</svg>
