<svg width="30" height="30" viewBox="0 0 30 30" fill="none" xmlns="http://www.w3.org/2000/svg">
<path d="M7.5 27.5C6.8125 27.5 6.22417 27.2554 5.735 26.7663C5.24583 26.2771 5.00083 25.6883 5 25V12.5C5 11.8125 5.245 11.2242 5.735 10.735C6.225 10.2458 6.81333 10.0008 7.5 10H8.75V7.5C8.75 5.77083 9.35958 4.29708 10.5788 3.07875C11.7979 1.86042 13.2717 1.25083 15 1.25C16.7283 1.24917 18.2025 1.85875 19.4225 3.07875C20.6425 4.29875 21.2517 5.7725 21.25 7.5V10H22.5C23.1875 10 23.7763 10.245 24.2663 10.735C24.7563 11.225 25.0008 11.8133 25 12.5V25C25 25.6875 24.7554 26.2763 24.2663 26.7663C23.7771 27.2563 23.1883 27.5008 22.5 27.5H7.5ZM15 21.25C15.6875 21.25 16.2762 21.0054 16.7663 20.5163C17.2563 20.0271 17.5008 19.4383 17.5 18.75C17.4992 18.0617 17.2546 17.4733 16.7663 16.985C16.2779 16.4967 15.6892 16.2517 15 16.25C14.3108 16.2483 13.7225 16.4933 13.235 16.985C12.7475 17.4767 12.5025 18.065 12.5 18.75C12.4975 19.435 12.7425 20.0238 13.235 20.5163C13.7275 21.0088 14.3158 21.2533 15 21.25ZM11.25 10H18.75V7.5C18.75 6.45833 18.3854 5.57292 17.6562 4.84375C16.9271 4.11458 16.0417 3.75 15 3.75C13.9583 3.75 13.0729 4.11458 12.3438 4.84375C11.6146 5.57292 11.25 6.45833 11.25 7.5V10Z" fill="#0184FE"/>
</svg>
