<svg width="30" height="30" viewBox="0 0 30 30" fill="none" xmlns="http://www.w3.org/2000/svg">
<path d="M21 21.8999C19.5495 21.8999 18.306 22.7639 17.736 23.9999H12.75C12.1533 23.9999 11.581 23.7629 11.159 23.3409C10.7371 22.9189 10.5 22.3467 10.5 21.7499V15.9749C11.184 16.3019 11.9415 16.4999 12.75 16.4999H17.736C18.0768 17.2473 18.6634 17.8553 19.398 18.2228C20.1325 18.5903 20.9709 18.6952 21.7733 18.5198C22.5758 18.3444 23.2939 17.8995 23.8083 17.259C24.3226 16.6186 24.602 15.8213 24.6 14.9999C24.6004 14.1794 24.3202 13.3834 23.8058 12.7441C23.2914 12.1048 22.5738 11.6607 21.7721 11.4855C20.9705 11.3103 20.1331 11.4146 19.3989 11.781C18.6647 12.1475 18.0779 12.754 17.736 13.4999H12.75C12.1533 13.4999 11.581 13.2629 11.159 12.8409C10.7371 12.4189 10.5 11.8467 10.5 11.2499V7.76391C11.2474 7.42309 11.8554 6.83656 12.2229 6.10197C12.5904 5.36738 12.6952 4.52906 12.5199 3.72661C12.3445 2.92415 11.8996 2.20597 11.2591 1.69166C10.6187 1.17734 9.8214 0.897916 9.00001 0.899913C8.17946 0.899496 7.38345 1.17976 6.74416 1.69416C6.10487 2.20857 5.66076 2.92617 5.48558 3.7278C5.3104 4.52943 5.41468 5.36687 5.78112 6.10106C6.14755 6.83524 6.75409 7.42201 7.50001 7.76391V21.7499C7.50001 23.1423 8.05313 24.4777 9.0377 25.4622C10.0223 26.4468 11.3576 26.9999 12.75 26.9999H17.736C18.0768 27.7473 18.6634 28.3553 19.398 28.7228C20.1325 29.0903 20.9709 29.1952 21.7733 29.0198C22.5758 28.8444 23.2939 28.3995 23.8083 27.759C24.3226 27.1186 24.602 26.3213 24.6 25.4999C24.6 24.5451 24.2207 23.6295 23.5456 22.9543C22.8705 22.2792 21.9548 21.8999 21 21.8999ZM21 12.9224C21.5506 12.9224 22.0786 13.1411 22.468 13.5305C22.8573 13.9198 23.076 14.4478 23.076 14.9984C23.076 15.549 22.8573 16.077 22.468 16.4664C22.0786 16.8557 21.5506 17.0744 21 17.0744C20.4494 17.0744 19.9214 16.8557 19.5321 16.4664C19.1427 16.077 18.924 15.549 18.924 14.9984C18.924 14.4478 19.1427 13.9198 19.5321 13.5305C19.9214 13.1411 20.4494 12.9224 21 12.9224ZM9.00001 2.42241C9.5506 2.42241 10.0786 2.64113 10.468 3.03046C10.8573 3.41978 11.076 3.94782 11.076 4.49841C11.076 5.049 10.8573 5.57704 10.468 5.96637C10.0786 6.35569 9.5506 6.57441 9.00001 6.57441C8.44942 6.57441 7.92138 6.35569 7.53206 5.96637C7.14273 5.57704 6.92401 5.049 6.92401 4.49841C6.92401 3.94782 7.14273 3.41978 7.53206 3.03046C7.92138 2.64113 8.44942 2.42241 9.00001 2.42241ZM21 27.5774C20.7272 27.5774 20.457 27.5237 20.205 27.4193C19.9529 27.3149 19.7239 27.1618 19.531 26.9689C19.3381 26.776 19.1851 26.547 19.0807 26.2949C18.9762 26.0429 18.9225 25.7727 18.9225 25.4999C18.9225 25.2271 18.9762 24.9569 19.0807 24.7049C19.1851 24.4528 19.3381 24.2238 19.531 24.0309C19.7239 23.838 19.9529 23.685 20.205 23.5806C20.457 23.4761 20.7272 23.4224 21 23.4224C21.551 23.4224 22.0794 23.6413 22.469 24.0309C22.8586 24.4205 23.0775 24.9489 23.0775 25.4999C23.0775 26.0509 22.8586 26.5793 22.469 26.9689C22.0794 27.3585 21.551 27.5774 21 27.5774Z" fill="#0184FE"/>
</svg>
