<svg width="36" height="36" viewBox="0 0 36 36" fill="none" xmlns="http://www.w3.org/2000/svg">
<g clip-path="url(#clip0_41_148)">
<path d="M31.5 22.5H36V36H18V22.5H22.5V18H31.5V22.5ZM24.75 22.5H29.25V20.25H24.75V22.5ZM33.75 29.25H31.5V31.5H29.25V29.25H24.75V31.5H22.5V29.25H20.25V33.75H33.75V29.25ZM20.25 24.75V27H33.75V24.75H20.25ZM15.75 15.75C15.75 16.8398 15.5098 17.8594 15.0293 18.8086C14.5488 19.7578 13.8633 20.5547 12.9727 21.1992C13.5 21.4688 13.998 21.7793 14.4668 22.1309C14.9355 22.4824 15.3633 22.875 15.75 23.3086V29.25C15.75 28.3242 15.5742 27.4512 15.2227 26.6309C14.8711 25.8105 14.3906 25.0957 13.7812 24.4863C13.1719 23.877 12.4512 23.3906 11.6191 23.0273C10.7871 22.6641 9.91406 22.4883 9 22.5C8.0625 22.5 7.18945 22.6758 6.38086 23.0273C5.57227 23.3789 4.85742 23.8594 4.23633 24.4688C3.61523 25.0781 3.12891 25.7988 2.77734 26.6309C2.42578 27.4629 2.25 28.3359 2.25 29.25H0C0 28.3945 0.117188 27.5684 0.351562 26.7715C0.585938 25.9746 0.919922 25.2188 1.35352 24.5039C1.78711 23.7891 2.32031 23.1562 2.95312 22.6055C3.58594 22.0547 4.27734 21.5801 5.02734 21.1816C4.14844 20.5488 3.46875 19.7578 2.98828 18.8086C2.50781 17.8594 2.26172 16.8398 2.25 15.75C2.25 14.8242 2.42578 13.9512 2.77734 13.1309C3.12891 12.3105 3.60938 11.5957 4.21875 10.9863C4.82812 10.377 5.54297 9.89062 6.36328 9.52734C7.18359 9.16406 8.0625 8.98828 9 9C9.84375 9 10.6465 9.14648 11.4082 9.43945C12.1699 9.73242 12.8672 10.166 13.5 10.7402C13.875 10.4004 14.291 10.1016 14.748 9.84375C14.3496 9.43359 14.0449 8.95898 13.834 8.41992C13.623 7.88086 13.5117 7.32422 13.5 6.75C13.5 6.12891 13.6172 5.54883 13.8516 5.00977C14.0859 4.4707 14.4082 3.99023 14.8184 3.56836C15.2285 3.14648 15.7031 2.82422 16.2422 2.60156C16.7812 2.37891 17.3672 2.26172 18 2.25C18.6211 2.25 19.2012 2.36719 19.7402 2.60156C20.2793 2.83594 20.7598 3.1582 21.1816 3.56836C21.6035 3.97852 21.9258 4.45312 22.1484 4.99219C22.3711 5.53125 22.4883 6.11719 22.5 6.75C22.5 7.32422 22.3945 7.88086 22.1836 8.41992C21.9727 8.95898 21.6621 9.43359 21.252 9.84375C22.2246 10.3828 23.0156 11.1094 23.625 12.0234C24.2344 11.1094 25.0254 10.3828 25.998 9.84375C25.5996 9.43359 25.2949 8.95898 25.084 8.41992C24.873 7.88086 24.7617 7.32422 24.75 6.75C24.75 6.12891 24.8672 5.54883 25.1016 5.00977C25.3359 4.4707 25.6582 3.99023 26.0684 3.56836C26.4785 3.14648 26.9531 2.82422 27.4922 2.60156C28.0312 2.37891 28.6172 2.26172 29.25 2.25C29.8711 2.25 30.4512 2.36719 30.9902 2.60156C31.5293 2.83594 32.0098 3.1582 32.4316 3.56836C32.8535 3.97852 33.1758 4.45312 33.3984 4.99219C33.6211 5.53125 33.7383 6.11719 33.75 6.75C33.75 7.32422 33.6445 7.88086 33.4336 8.41992C33.2227 8.95898 32.9121 9.43359 32.502 9.84375C33.041 10.1367 33.5273 10.4941 33.9609 10.916C34.3945 11.3379 34.7578 11.8008 35.0508 12.3047C35.3438 12.8086 35.5781 13.3594 35.7539 13.957C35.9297 14.5547 36.0117 15.1523 36 15.75H33.75C33.75 15.1289 33.6328 14.5488 33.3984 14.0098C33.1641 13.4707 32.8418 12.9902 32.4316 12.5684C32.0215 12.1465 31.5469 11.8242 31.0078 11.6016C30.4688 11.3789 29.8828 11.2617 29.25 11.25C28.6289 11.25 28.0488 11.3672 27.5098 11.6016C26.9707 11.8359 26.4902 12.1582 26.0684 12.5684C25.6465 12.9785 25.3242 13.4531 25.1016 13.9922C24.8789 14.5312 24.7617 15.1172 24.75 15.75H22.5C22.5 15.1289 22.3828 14.5488 22.1484 14.0098C21.9141 13.4707 21.5918 12.9902 21.1816 12.5684C20.7715 12.1465 20.2969 11.8242 19.7578 11.6016C19.2188 11.3789 18.6328 11.2617 18 11.25C17.4258 11.25 16.8691 11.3555 16.3301 11.5664C15.791 11.7773 15.3164 12.0879 14.9062 12.498C15.1875 12.9902 15.3984 13.5117 15.5391 14.0625C15.6797 14.6133 15.75 15.1758 15.75 15.75ZM29.25 4.5C28.9336 4.5 28.6406 4.55859 28.3711 4.67578C28.1016 4.79297 27.8672 4.95117 27.668 5.15039C27.4688 5.34961 27.3047 5.58984 27.1758 5.87109C27.0469 6.15234 26.9883 6.44531 27 6.75C27 7.06641 27.0586 7.35938 27.1758 7.62891C27.293 7.89844 27.4512 8.13281 27.6504 8.33203C27.8496 8.53125 28.0898 8.69531 28.3711 8.82422C28.6523 8.95312 28.9453 9.01172 29.25 9C29.5664 9 29.8594 8.94141 30.1289 8.82422C30.3984 8.70703 30.6328 8.54883 30.832 8.34961C31.0312 8.15039 31.1953 7.91016 31.3242 7.62891C31.4531 7.34766 31.5117 7.05469 31.5 6.75C31.5 6.43359 31.4414 6.14062 31.3242 5.87109C31.207 5.60156 31.0488 5.36719 30.8496 5.16797C30.6504 4.96875 30.4102 4.80469 30.1289 4.67578C29.8477 4.54688 29.5547 4.48828 29.25 4.5ZM18 4.5C17.6836 4.5 17.3906 4.55859 17.1211 4.67578C16.8516 4.79297 16.6172 4.95117 16.418 5.15039C16.2188 5.34961 16.0547 5.58984 15.9258 5.87109C15.7969 6.15234 15.7383 6.44531 15.75 6.75C15.75 7.06641 15.8086 7.35938 15.9258 7.62891C16.043 7.89844 16.2012 8.13281 16.4004 8.33203C16.5996 8.53125 16.8398 8.69531 17.1211 8.82422C17.4023 8.95312 17.6953 9.01172 18 9C18.3164 9 18.6094 8.94141 18.8789 8.82422C19.1484 8.70703 19.3828 8.54883 19.582 8.34961C19.7812 8.15039 19.9453 7.91016 20.0742 7.62891C20.2031 7.34766 20.2617 7.05469 20.25 6.75C20.25 6.43359 20.1914 6.14062 20.0742 5.87109C19.957 5.60156 19.7988 5.36719 19.5996 5.16797C19.4004 4.96875 19.1602 4.80469 18.8789 4.67578C18.5977 4.54688 18.3047 4.48828 18 4.5ZM9 20.25C9.62109 20.25 10.2012 20.1328 10.7402 19.8984C11.2793 19.6641 11.7598 19.3418 12.1816 18.9316C12.6035 18.5215 12.9258 18.0469 13.1484 17.5078C13.3711 16.9688 13.4883 16.3828 13.5 15.75C13.5 15.1289 13.3828 14.5488 13.1484 14.0098C12.9141 13.4707 12.5918 12.9902 12.1816 12.5684C11.7715 12.1465 11.2969 11.8242 10.7578 11.6016C10.2188 11.3789 9.63281 11.2617 9 11.25C8.37891 11.25 7.79883 11.3672 7.25977 11.6016C6.7207 11.8359 6.24023 12.1582 5.81836 12.5684C5.39648 12.9785 5.07422 13.4531 4.85156 13.9922C4.62891 14.5312 4.51172 15.1172 4.5 15.75C4.5 16.3711 4.61719 16.9512 4.85156 17.4902C5.08594 18.0293 5.4082 18.5098 5.81836 18.9316C6.22852 19.3535 6.70312 19.6758 7.24219 19.8984C7.78125 20.1211 8.36719 20.2383 9 20.25Z" fill="#0184FE"/>
</g>
<defs>
<clipPath id="clip0_41_148">
<rect width="36" height="36" fill="white"/>
</clipPath>
</defs>
</svg>
