<svg width="30" height="30" viewBox="0 0 30 30" fill="none" xmlns="http://www.w3.org/2000/svg">
<path d="M25.0383 7.77422L20.3508 3.08672C20.2637 2.99969 20.1602 2.93067 20.0464 2.88362C19.9326 2.83657 19.8107 2.8124 19.6875 2.8125H10.3125C9.81522 2.8125 9.33831 3.01004 8.98668 3.36167C8.63504 3.71331 8.4375 4.19022 8.4375 4.6875V6.5625H6.5625C6.06522 6.5625 5.58831 6.76004 5.23667 7.11168C4.88504 7.46331 4.6875 7.94022 4.6875 8.4375V25.3125C4.6875 25.8098 4.88504 26.2867 5.23667 26.6383C5.58831 26.99 6.06522 27.1875 6.5625 27.1875H19.6875C20.1848 27.1875 20.6617 26.99 21.0133 26.6383C21.365 26.2867 21.5625 25.8098 21.5625 25.3125V23.4375H23.4375C23.9348 23.4375 24.4117 23.24 24.7633 22.8883C25.115 22.5367 25.3125 22.0598 25.3125 21.5625V8.4375C25.3126 8.31435 25.2884 8.19239 25.2414 8.07858C25.1943 7.96477 25.1253 7.86135 25.0383 7.77422ZM15.9375 22.5H10.3125C10.0639 22.5 9.8254 22.4012 9.64959 22.2254C9.47377 22.0496 9.375 21.8111 9.375 21.5625C9.375 21.3139 9.47377 21.0754 9.64959 20.8996C9.8254 20.7238 10.0639 20.625 10.3125 20.625H15.9375C16.1861 20.625 16.4246 20.7238 16.6004 20.8996C16.7762 21.0754 16.875 21.3139 16.875 21.5625C16.875 21.8111 16.7762 22.0496 16.6004 22.2254C16.4246 22.4012 16.1861 22.5 15.9375 22.5ZM15.9375 18.75H10.3125C10.0639 18.75 9.8254 18.6512 9.64959 18.4754C9.47377 18.2996 9.375 18.0611 9.375 17.8125C9.375 17.5639 9.47377 17.3254 9.64959 17.1496C9.8254 16.9738 10.0639 16.875 10.3125 16.875H15.9375C16.1861 16.875 16.4246 16.9738 16.6004 17.1496C16.7762 17.3254 16.875 17.5639 16.875 17.8125C16.875 18.0611 16.7762 18.2996 16.6004 18.4754C16.4246 18.6512 16.1861 18.75 15.9375 18.75ZM23.4375 21.5625H21.5625V12.1875C21.5626 12.0643 21.5384 11.9424 21.4914 11.8286C21.4443 11.7148 21.3753 11.6113 21.2883 11.5242L16.6008 6.83672C16.5137 6.74969 16.4102 6.68067 16.2964 6.63362C16.1826 6.58657 16.0607 6.5624 15.9375 6.5625H10.3125V4.6875H19.2996L23.4375 8.82539V21.5625Z" fill="#0184FE"/>
</svg>
