<svg width="30" height="30" viewBox="0 0 30 30" fill="none" xmlns="http://www.w3.org/2000/svg">
<path d="M11.8425 20L23.3188 24.105C23.5116 24.1743 23.7174 24.1997 23.9213 24.1792C24.1251 24.1587 24.3218 24.0929 24.497 23.9866C24.6722 23.8804 24.8214 23.7363 24.9337 23.5649C25.046 23.3936 25.1187 23.1993 25.1463 22.9963L27.4875 5.2988C27.63 4.2213 26.5138 3.41755 25.5288 3.8863L3.28 14.5063C2.18 15.0313 2.2625 16.6188 3.4125 17.0275L6.4625 18.1125L8.125 18.6963M16.25 21.575L13.7625 25.7325C12.95 26.7425 11.3138 26.1713 11.3138 24.8788V21.55C11.3138 20.9219 11.5503 20.3167 11.9763 19.855L16.815 14.605" stroke="#0184FE" stroke-width="3" stroke-linecap="round" stroke-linejoin="round"/>
</svg>
