<svg width="30" height="30" viewBox="0 0 30 30" fill="none" xmlns="http://www.w3.org/2000/svg">
<path d="M28.5 0C28.8978 0 29.2794 0.158035 29.5607 0.43934C29.842 0.720644 30 1.10218 30 1.5V22.5C30 22.8978 29.842 23.2794 29.5607 23.5607C29.2794 23.842 28.8978 24 28.5 24H6.6825L0 29.25V1.5C0 1.10218 0.158035 0.720644 0.43934 0.43934C0.720644 0.158035 1.10218 0 1.5 0H28.5ZM27 3H3V23.0775L5.6445 21H27V3ZM16.5 6V18H13.5V6H16.5ZM22.5 9V18H19.5V9H22.5ZM10.5 12V18H7.5V12H10.5Z" fill="#0184FE"/>
</svg>
