<svg width="259" height="49" viewBox="0 0 259 49" fill="none" xmlns="http://www.w3.org/2000/svg">
<g clip-path="url(#clip0_68_20)">
<path d="M58.3114 44.8328V21.2094H50.207V15.1742H73.9598V21.2094H65.8123V44.8328H58.3114ZM85.0748 45.1777C83.0056 45.1777 81.2956 45.0484 79.9449 44.7897C78.5941 44.5311 77.5164 44.1287 76.7117 43.5827C75.9358 43.0079 75.3466 42.2751 74.9443 41.3842C74.5707 40.4932 74.3264 39.4299 74.2114 38.1941C74.1252 36.9583 74.0821 35.5214 74.0821 33.8833C74.0821 31.9003 74.1683 30.1903 74.3408 28.7534C74.5419 27.3164 74.973 26.1381 75.634 25.2185C76.295 24.2988 77.3152 23.6235 78.6947 23.1924C80.1029 22.7325 81.9997 22.5026 84.385 22.5026C86.3105 22.5026 87.8768 22.6463 89.0839 22.9337C90.2909 23.1924 91.2393 23.6091 91.929 24.1839C92.6475 24.7299 93.1504 25.4484 93.4378 26.3393C93.7539 27.2302 93.9551 28.3079 94.0413 29.5724C94.1275 30.8082 94.1707 32.2452 94.1707 33.8833V35.5645H80.9363C80.9363 36.5416 80.9795 37.332 81.0657 37.9355C81.1519 38.5103 81.3818 38.9413 81.7554 39.2287C82.129 39.5161 82.7038 39.7173 83.4798 39.8322C84.2557 39.9185 85.3334 39.9616 86.7129 39.9616C87.2589 39.9616 87.9056 39.9472 88.6528 39.9185C89.4 39.8897 90.1759 39.8466 90.9806 39.7891C91.8141 39.7317 92.59 39.6742 93.3085 39.6167V44.4449C92.6762 44.5886 91.9003 44.7179 90.9806 44.8328C90.0897 44.9478 89.127 45.034 88.0924 45.0915C87.0578 45.149 86.0519 45.1777 85.0748 45.1777ZM87.6613 32.6762V31.9865C87.6613 30.9519 87.6038 30.1328 87.4888 29.5293C87.4026 28.9258 87.2302 28.4803 86.9715 28.193C86.7416 27.8768 86.4111 27.6757 85.98 27.5894C85.549 27.5032 85.0029 27.4601 84.3419 27.4601C83.5947 27.4601 82.9912 27.5176 82.5314 27.6325C82.1003 27.7188 81.7698 27.9199 81.5399 28.2361C81.31 28.5522 81.1519 29.012 81.0657 29.6155C80.9795 30.2191 80.9363 31.0094 80.9363 31.9865H88.3941L87.6613 32.6762ZM108.51 45.1777C106.671 45.1777 105.162 45.0196 103.984 44.7035C102.806 44.3586 101.872 43.8844 101.182 43.2809C100.492 42.6487 99.9892 41.8727 99.673 40.9531C99.3569 40.0334 99.1557 38.9844 99.0695 37.8062C98.9833 36.5991 98.9402 35.2771 98.9402 33.8402C98.9402 32.432 98.9833 31.1387 99.0695 29.9604C99.1557 28.7821 99.3713 27.7331 99.7161 26.8135C100.061 25.8651 100.564 25.0748 101.225 24.4425C101.915 23.8103 102.834 23.3361 103.984 23.0199C105.162 22.6751 106.657 22.5026 108.467 22.5026C109.617 22.5026 110.766 22.5601 111.916 22.6751C113.094 22.79 114.143 22.9625 115.063 23.1924V28.0636C114.488 27.9774 113.741 27.9056 112.821 27.8481C111.93 27.7906 111.097 27.7619 110.321 27.7619C109.315 27.7619 108.525 27.8481 107.95 28.0205C107.375 28.1642 106.944 28.4516 106.657 28.8827C106.369 29.285 106.168 29.8886 106.053 30.6932C105.967 31.4979 105.924 32.5469 105.924 33.8402C105.924 35.1334 105.967 36.1968 106.053 37.0302C106.168 37.8349 106.369 38.4528 106.657 38.8839C106.944 39.2862 107.389 39.5592 107.993 39.7029C108.596 39.8466 109.387 39.9185 110.364 39.9185C111.054 39.9185 111.83 39.8897 112.692 39.8322C113.583 39.7748 114.431 39.7029 115.235 39.6167V44.488C114.287 44.6891 113.209 44.8472 112.002 44.9622C110.795 45.1059 109.631 45.1777 108.51 45.1777ZM120.49 44.8328V12.8032H127.387V25.3909H127.775C128.206 24.6724 128.723 24.112 129.327 23.7097C129.959 23.2786 130.663 22.9768 131.439 22.8044C132.215 22.632 133.063 22.5457 133.983 22.5457C135.448 22.5457 136.612 22.7325 137.474 23.1062C138.365 23.451 139.041 23.9827 139.501 24.7012C139.96 25.4196 140.262 26.3106 140.406 27.3739C140.578 28.4372 140.664 29.673 140.664 31.0812V44.8328H133.724V33.1935C133.724 32.0152 133.695 31.0956 133.638 30.4346C133.58 29.7449 133.451 29.2419 133.25 28.9258C133.049 28.6097 132.733 28.4229 132.301 28.3654C131.899 28.2792 131.353 28.2361 130.663 28.2361C129.945 28.2361 129.356 28.3223 128.896 28.4947C128.465 28.6384 128.134 28.8971 127.904 29.2707C127.703 29.6443 127.559 30.1759 127.473 30.8657C127.416 31.5267 127.387 32.3601 127.387 33.366V44.8328H120.49ZM170.873 45.1777C168.632 45.1777 166.764 45.034 165.269 44.7466C163.775 44.4305 162.554 43.9276 161.605 43.2378C160.685 42.5481 159.981 41.6284 159.493 40.4789C159.033 39.3293 158.717 37.8924 158.544 36.168C158.372 34.4437 158.286 32.3888 158.286 30.0035C158.286 27.6182 158.372 25.5633 158.544 23.839C158.717 22.1147 159.033 20.6777 159.493 19.5281C159.981 18.3786 160.685 17.4589 161.605 16.7692C162.554 16.0795 163.775 15.5909 165.269 15.3035C166.764 14.9874 168.632 14.8293 170.873 14.8293C171.736 14.8293 172.627 14.8581 173.546 14.9155C174.466 14.973 175.357 15.0592 176.219 15.1742C177.081 15.2891 177.814 15.4328 178.417 15.6053V20.9938C177.527 20.9076 176.707 20.8358 175.96 20.7783C175.242 20.6921 174.61 20.649 174.063 20.649C173.517 20.6202 173.058 20.6059 172.684 20.6059C171.362 20.6059 170.27 20.6633 169.408 20.7783C168.574 20.8645 167.913 21.0801 167.425 21.4249C166.936 21.7698 166.577 22.2871 166.347 22.9768C166.117 23.6378 165.959 24.5431 165.873 25.6927C165.815 26.8135 165.787 28.2504 165.787 30.0035C165.787 31.7279 165.815 33.1648 165.873 34.3144C165.959 35.4639 166.117 36.3836 166.347 37.0733C166.577 37.763 166.936 38.2803 167.425 38.6252C167.913 38.9413 168.574 39.1569 169.408 39.2718C170.27 39.3581 171.362 39.4012 172.684 39.4012C173.575 39.4012 174.581 39.3724 175.702 39.3149C176.822 39.2287 177.785 39.1281 178.59 39.0132V44.5311C177.958 44.646 177.196 44.7466 176.305 44.8328C175.414 44.9478 174.495 45.034 173.546 45.0915C172.627 45.149 171.736 45.1777 170.873 45.1777ZM184.034 44.8328V12.8032H190.932V25.3909H191.32C191.751 24.6724 192.268 24.112 192.872 23.7097C193.504 23.2786 194.208 22.9768 194.984 22.8044C195.76 22.632 196.608 22.5457 197.527 22.5457C198.993 22.5457 200.157 22.7325 201.019 23.1062C201.91 23.451 202.586 23.9827 203.045 24.7012C203.505 25.4196 203.807 26.3106 203.951 27.3739C204.123 28.4372 204.209 29.673 204.209 31.0812V44.8328H197.269V33.1935C197.269 32.0152 197.24 31.0956 197.183 30.4346C197.125 29.7449 196.996 29.2419 196.795 28.9258C196.593 28.6097 196.277 28.4229 195.846 28.3654C195.444 28.2792 194.898 28.2361 194.208 28.2361C193.49 28.2361 192.9 28.3223 192.441 28.4947C192.01 28.6384 191.679 28.8971 191.449 29.2707C191.248 29.6443 191.104 30.1759 191.018 30.8657C190.961 31.5267 190.932 32.3601 190.932 33.366V44.8328H184.034ZM215.712 45.1777C214.333 45.1777 213.169 44.9622 212.22 44.5311C211.272 44.1 210.553 43.3959 210.065 42.4188C209.605 41.4416 209.375 40.1627 209.375 38.5821C209.375 36.9152 209.562 35.5932 209.936 34.6161C210.338 33.6103 211.042 32.8918 212.048 32.4607C213.054 32.0296 214.476 31.8141 216.316 31.8141C216.574 31.8141 216.933 31.8284 217.393 31.8572C217.882 31.8572 218.428 31.8715 219.031 31.9003C219.635 31.9003 220.238 31.9147 220.842 31.9434C221.445 31.9434 221.992 31.9578 222.48 31.9865V31.1674C222.48 30.334 222.408 29.6874 222.265 29.2276C222.15 28.7677 221.905 28.4372 221.532 28.2361C221.187 28.0062 220.655 27.8768 219.937 27.8481C219.218 27.7906 218.27 27.7619 217.092 27.7619C216.431 27.7619 215.698 27.7762 214.893 27.805C214.117 27.8337 213.341 27.8768 212.565 27.9343C211.818 27.963 211.186 28.0062 210.668 28.0636V23.1924C211.847 22.9912 213.169 22.8331 214.634 22.7182C216.129 22.5745 217.695 22.5026 219.333 22.5026C221.172 22.5026 222.696 22.6176 223.903 22.8475C225.138 23.0774 226.13 23.4367 226.877 23.9252C227.624 24.385 228.17 24.9742 228.515 25.6927C228.889 26.4111 229.133 27.2589 229.248 28.2361C229.363 29.2132 229.421 30.3196 229.421 31.5554V44.8328H222.782L222.609 42.2463H222.265C221.719 43.1085 221.086 43.7551 220.366 44.1862C219.649 44.6173 218.888 44.8903 218.083 45.0053C217.278 45.1202 216.488 45.1777 215.712 45.1777ZM218.988 40.2633C219.506 40.2633 219.951 40.2346 220.325 40.1771C220.727 40.0909 221.058 39.9616 221.316 39.7891C221.604 39.588 221.833 39.3437 222.006 39.0563C222.15 38.7402 222.265 38.3522 222.351 37.8924C222.437 37.4325 222.48 36.8865 222.48 36.2542V35.4352H218.471C217.753 35.4352 217.206 35.4927 216.833 35.6076C216.459 35.6938 216.201 35.9237 216.057 36.2974C215.942 36.6422 215.884 37.1883 215.884 37.9355C215.884 38.5677 215.956 39.0563 216.1 39.4012C216.244 39.746 216.531 39.9759 216.962 40.0909C217.422 40.2059 218.097 40.2633 218.988 40.2633ZM237.633 44.8328V28.1067H233.624V22.8475H237.633V16.4674H244.616V22.8475H249.401V28.1067H244.616V44.8328H237.633Z" fill="#F0F8FF"/>
<path fill-rule="evenodd" clip-rule="evenodd" d="M0.82086 23.3217C1.37038e-06 25.303 0 27.8122 0 32.8343C0 37.8565 1.37038e-06 40.3675 0.82086 42.3469C1.91467 44.9875 4.01257 47.0853 6.65308 48.1791C8.63248 49 11.1436 49 16.1657 49H21.5543C26.6339 49 29.1756 49 30.7526 47.4212C32.3314 45.8442 32.3314 43.3025 32.3314 38.2229V32.8343C32.3314 27.8122 32.3314 25.303 31.5105 23.3217C30.4167 20.6812 28.3189 18.5833 25.6783 17.4895C23.697 16.6686 21.1878 16.6686 16.1657 16.6686C11.1436 16.6686 8.63248 16.6686 6.65308 17.4895C4.01257 18.5833 1.91467 20.6812 0.82086 23.3217ZM23.3505 29.2419C23.3505 28.7656 23.1612 28.3086 22.8244 27.9718C22.4876 27.635 22.0306 27.4457 21.5543 27.4457H10.7771C10.3008 27.4457 9.84389 27.635 9.50704 27.9718C9.17019 28.3086 8.98094 28.7656 8.98094 29.2419C8.98094 29.7183 9.17019 30.1752 9.50704 30.5121C9.84389 30.8489 10.3008 31.0381 10.7771 31.0381H21.5543C22.0306 31.0381 22.4876 30.8489 22.8244 30.5121C23.1612 30.1752 23.3505 29.7183 23.3505 29.2419ZM23.3505 36.4267C23.3505 35.9503 23.1612 35.4934 22.8244 35.1566C22.4876 34.8197 22.0306 34.6305 21.5543 34.6305H16.1657C15.6893 34.6305 15.2324 34.8197 14.8956 35.1566C14.5588 35.4934 14.3695 35.9503 14.3695 36.4267C14.3695 36.903 14.5588 37.36 14.8956 37.6968C15.2324 38.0336 15.6893 38.2229 16.1657 38.2229H21.5543C22.0306 38.2229 22.4876 38.0336 22.8244 37.6968C23.1612 37.36 23.3505 36.903 23.3505 36.4267Z" fill="#0A447F"/>
<path d="M11.4956 14.6569H31.3255V32.7625H11.4956V14.6569Z" fill="#F0F8FF"/>
<path fill-rule="evenodd" clip-rule="evenodd" d="M6.71234 13.263C5.89148 15.2443 5.89148 17.7535 5.89148 22.7757C5.89148 27.7978 5.89148 30.3089 6.71234 32.2883C7.80614 34.9288 9.90405 37.0266 12.5446 38.1204C14.524 38.9413 17.035 38.9413 22.0572 38.9413H27.4457C32.5254 38.9413 35.067 38.9413 36.6441 37.3626C38.2229 35.7855 38.2229 33.2438 38.2229 28.1642V22.7757C38.2229 17.7535 38.2229 15.2443 37.4019 13.263C36.3081 10.6225 34.2103 8.52462 31.5698 7.43081C29.5885 6.60996 27.0793 6.60995 22.0572 6.60995C17.035 6.60995 14.524 6.60996 12.5446 7.43081C9.90405 8.52462 7.80614 10.6225 6.71234 13.263ZM29.2419 19.1833C29.2419 18.7069 29.0527 18.25 28.7159 17.9132C28.379 17.5763 27.9221 17.3871 27.4457 17.3871H16.6686C16.1923 17.3871 15.7353 17.5763 15.3985 17.9132C15.0617 18.25 14.8724 18.7069 14.8724 19.1833C14.8724 19.6596 15.0617 20.1166 15.3985 20.4534C15.7353 20.7902 16.1923 20.9795 16.6686 20.9795H27.4457C27.9221 20.9795 28.379 20.7902 28.7159 20.4534C29.0527 20.1166 29.2419 19.6596 29.2419 19.1833ZM29.2419 26.368C29.2419 25.8917 29.0527 25.4347 28.7159 25.0979C28.379 24.7611 27.9221 24.5718 27.4457 24.5718H22.0572C21.5808 24.5718 21.1239 24.7611 20.7871 25.0979C20.4502 25.4347 20.261 25.8917 20.261 26.368C20.261 26.8444 20.4502 27.3013 20.7871 27.6382C21.1239 27.975 21.5808 28.1642 22.0572 28.1642H27.4457C27.9221 28.1642 28.379 27.975 28.7159 27.6382C29.0527 27.3013 29.2419 26.8444 29.2419 26.368Z" fill="#259DFF"/>
</g>
<defs>
<clipPath id="clip0_68_20">
<rect width="258.076" height="49" fill="white"/>
</clipPath>
</defs>
</svg>
