<svg width="264" height="50" viewBox="0 0 264 50" fill="none" xmlns="http://www.w3.org/2000/svg">
<g clip-path="url(#clip0_68_27)">
<path d="M59.5015 45.7477V21.6422H51.2317V15.4838H75.4692V21.6422H67.1554V45.7477H59.5015ZM86.811 46.0996C84.6996 46.0996 82.9547 45.9677 81.5764 45.7037C80.1981 45.4398 79.0984 45.0293 78.2773 44.4721C77.4855 43.8856 76.8843 43.1378 76.4737 42.2287C76.0925 41.3196 75.8432 40.2345 75.7259 38.9735C75.638 37.7125 75.594 36.2463 75.594 34.5747C75.594 32.5513 75.682 30.8064 75.8579 29.3401C76.0632 27.8738 76.5031 26.6715 77.1776 25.7331C77.852 24.7947 78.8931 24.1055 80.3007 23.6656C81.7377 23.1964 83.6731 22.9618 86.1072 22.9618C88.072 22.9618 89.6702 23.1084 90.9019 23.4017C92.1336 23.6656 93.1013 24.0908 93.8051 24.6774C94.5383 25.2345 95.0514 25.9677 95.3447 26.8768C95.6673 27.7859 95.8726 28.8856 95.9605 30.1759C96.0485 31.4369 96.0925 32.9032 96.0925 34.5747V36.2903H82.5881C82.5881 37.2873 82.6321 38.0938 82.7201 38.7096C82.8081 39.2961 83.0427 39.736 83.4239 40.0293C83.8051 40.3225 84.3916 40.5278 85.1834 40.6451C85.9752 40.7331 87.0749 40.7771 88.4825 40.7771C89.0397 40.7771 89.6995 40.7624 90.462 40.7331C91.2245 40.7037 92.0163 40.6598 92.8374 40.6011C93.6878 40.5425 94.4796 40.4838 95.2127 40.4252V45.3518C94.5676 45.4985 93.7758 45.6304 92.8374 45.7477C91.9283 45.865 90.9459 45.953 89.8902 46.0117C88.8344 46.0703 87.8081 46.0996 86.811 46.0996ZM89.4503 33.343V32.6392C89.4503 31.5835 89.3916 30.7477 89.2743 30.1319C89.1864 29.5161 89.0104 29.0615 88.7465 28.7683C88.5119 28.4457 88.1746 28.2404 87.7347 28.1524C87.2949 28.0645 86.7377 28.0205 86.0632 28.0205C85.3007 28.0205 84.6849 28.0791 84.2157 28.1964C83.7758 28.2844 83.4385 28.4897 83.2039 28.8123C82.9693 29.1348 82.8081 29.604 82.7201 30.2199C82.6321 30.8357 82.5881 31.6422 82.5881 32.6392H90.1981L89.4503 33.343ZM110.725 46.0996C108.848 46.0996 107.308 45.9384 106.106 45.6158C104.904 45.2639 103.951 44.78 103.247 44.1642C102.543 43.519 102.03 42.7272 101.707 41.7888C101.385 40.8504 101.179 39.78 101.091 38.5776C101.003 37.346 100.959 35.997 100.959 34.5307C100.959 33.0938 101.003 31.7741 101.091 30.5718C101.179 29.3694 101.399 28.2991 101.751 27.3606C102.103 26.3929 102.616 25.5864 103.291 24.9413C103.995 24.2961 104.933 23.8123 106.106 23.4897C107.308 23.1378 108.833 22.9618 110.681 22.9618C111.854 22.9618 113.027 23.0205 114.2 23.1378C115.402 23.2551 116.473 23.431 117.411 23.6656V28.6363C116.824 28.5483 116.062 28.475 115.124 28.4164C114.215 28.3577 113.364 28.3284 112.572 28.3284C111.546 28.3284 110.739 28.4164 110.153 28.5923C109.566 28.7389 109.127 29.0322 108.833 29.4721C108.54 29.8826 108.335 30.4985 108.217 31.3196C108.129 32.1407 108.085 33.2111 108.085 34.5307C108.085 35.8504 108.129 36.9354 108.217 37.7859C108.335 38.607 108.54 39.2375 108.833 39.6774C109.127 40.0879 109.581 40.3665 110.197 40.5131C110.813 40.6598 111.619 40.7331 112.616 40.7331C113.32 40.7331 114.112 40.7037 114.992 40.6451C115.901 40.5864 116.766 40.5131 117.587 40.4252V45.3958C116.619 45.6011 115.519 45.7624 114.288 45.8797C113.056 46.0263 111.868 46.0996 110.725 46.0996ZM122.949 45.7477V13.0645H129.987V25.909H130.383C130.823 25.1759 131.35 24.604 131.966 24.1935C132.611 23.7536 133.33 23.4457 134.122 23.2697C134.913 23.0938 135.779 23.0058 136.717 23.0058C138.213 23.0058 139.4 23.1964 140.28 23.5776C141.189 23.9296 141.878 24.4721 142.347 25.2052C142.817 25.9384 143.125 26.8474 143.271 27.9325C143.447 29.0175 143.535 30.2785 143.535 31.7155V45.7477H136.453V33.8709C136.453 32.6686 136.424 31.7301 136.365 31.0557C136.306 30.3518 136.174 29.8386 135.969 29.5161C135.764 29.1935 135.441 29.0029 135.001 28.9442C134.591 28.8562 134.034 28.8123 133.33 28.8123C132.597 28.8123 131.996 28.9002 131.526 29.0762C131.086 29.2228 130.749 29.4867 130.515 29.868C130.309 30.2492 130.163 30.7917 130.075 31.4955C130.016 32.17 129.987 33.0205 129.987 34.0469V45.7477H122.949ZM174.361 46.0996C172.073 46.0996 170.167 45.953 168.642 45.6598C167.117 45.3372 165.871 44.824 164.903 44.1202C163.965 43.4164 163.246 42.4779 162.748 41.3049C162.279 40.1319 161.956 38.6656 161.78 36.9061C161.604 35.1466 161.516 33.0498 161.516 30.6158C161.516 28.1818 161.604 26.085 161.78 24.3254C161.956 22.5659 162.279 21.0996 162.748 19.9266C163.246 18.7536 163.965 17.8152 164.903 17.1114C165.871 16.4076 167.117 15.909 168.642 15.6158C170.167 15.2932 172.073 15.1319 174.361 15.1319C175.24 15.1319 176.15 15.1612 177.088 15.2199C178.026 15.2785 178.935 15.3665 179.815 15.4838C180.695 15.6011 181.443 15.7477 182.059 15.9237V21.4222C181.15 21.3342 180.314 21.2609 179.551 21.2023C178.818 21.1143 178.173 21.0703 177.616 21.0703C177.059 21.041 176.589 21.0263 176.208 21.0263C174.859 21.0263 173.745 21.085 172.865 21.2023C172.015 21.2903 171.34 21.5102 170.842 21.8621C170.343 22.214 169.977 22.7419 169.742 23.4457C169.507 24.1202 169.346 25.0439 169.258 26.2169C169.199 27.3606 169.17 28.8269 169.17 30.6158C169.17 32.3753 169.199 33.8416 169.258 35.0146C169.346 36.1876 169.507 37.126 169.742 37.8298C169.977 38.5337 170.343 39.0615 170.842 39.4134C171.34 39.736 172.015 39.9559 172.865 40.0732C173.745 40.1612 174.859 40.2052 176.208 40.2052C177.117 40.2052 178.144 40.1759 179.287 40.1172C180.431 40.0293 181.413 39.9266 182.235 39.8093V45.4398C181.589 45.5571 180.812 45.6598 179.903 45.7477C178.994 45.865 178.056 45.953 177.088 46.0117C176.15 46.0703 175.24 46.0996 174.361 46.0996ZM187.79 45.7477V13.0645H194.828V25.909H195.224C195.664 25.1759 196.192 24.604 196.808 24.1935C197.453 23.7536 198.172 23.4457 198.963 23.2697C199.755 23.0938 200.62 23.0058 201.559 23.0058C203.054 23.0058 204.242 23.1964 205.122 23.5776C206.031 23.9296 206.72 24.4721 207.189 25.2052C207.658 25.9384 207.966 26.8474 208.113 27.9325C208.289 29.0175 208.377 30.2785 208.377 31.7155V45.7477H201.295V33.8709C201.295 32.6686 201.265 31.7301 201.207 31.0557C201.148 30.3518 201.016 29.8386 200.811 29.5161C200.606 29.1935 200.283 29.0029 199.843 28.9442C199.433 28.8562 198.875 28.8123 198.172 28.8123C197.438 28.8123 196.837 28.9002 196.368 29.0762C195.928 29.2228 195.591 29.4867 195.356 29.868C195.151 30.2492 195.004 30.7917 194.916 31.4955C194.858 32.17 194.828 33.0205 194.828 34.0469V45.7477H187.79ZM220.114 46.0996C218.707 46.0996 217.519 45.8797 216.551 45.4398C215.584 44.9999 214.85 44.2815 214.352 43.2844C213.883 42.2873 213.648 40.9823 213.648 39.3694C213.648 37.6686 213.839 36.3196 214.22 35.3225C214.63 34.2961 215.349 33.563 216.375 33.1231C217.402 32.6832 218.853 32.4633 220.73 32.4633C220.994 32.4633 221.361 32.4779 221.83 32.5073C222.328 32.5073 222.886 32.5219 223.501 32.5513C224.117 32.5513 224.733 32.5659 225.349 32.5952C225.965 32.5952 226.522 32.6099 227.021 32.6392V31.8035C227.021 30.953 226.947 30.2932 226.801 29.824C226.683 29.3548 226.434 29.0175 226.053 28.8123C225.701 28.5776 225.158 28.4457 224.425 28.4164C223.692 28.3577 222.724 28.3284 221.522 28.3284C220.847 28.3284 220.1 28.343 219.279 28.3724C218.487 28.4017 217.695 28.4457 216.903 28.5043C216.141 28.5337 215.496 28.5776 214.968 28.6363V23.6656C216.17 23.4603 217.519 23.2991 219.015 23.1818C220.54 23.0351 222.138 22.9618 223.809 22.9618C225.686 22.9618 227.24 23.0791 228.472 23.3137C229.733 23.5483 230.745 23.9149 231.507 24.4134C232.27 24.8826 232.827 25.4838 233.179 26.2169C233.56 26.9501 233.809 27.8152 233.927 28.8123C234.044 29.8093 234.103 30.9384 234.103 32.1993V45.7477H227.328L227.152 43.1084H226.801C226.243 43.9882 225.598 44.648 224.864 45.0879C224.132 45.5278 223.355 45.8064 222.534 45.9237C221.713 46.041 220.906 46.0996 220.114 46.0996ZM223.457 41.085C223.985 41.085 224.44 41.0557 224.821 40.997C225.232 40.909 225.569 40.7771 225.833 40.6011C226.126 40.3958 226.361 40.1466 226.537 39.8533C226.683 39.5307 226.801 39.1348 226.889 38.6656C226.977 38.1964 227.021 37.6392 227.021 36.9941V36.1583H222.93C222.196 36.1583 221.639 36.2169 221.258 36.3342C220.877 36.4222 220.613 36.6568 220.466 37.0381C220.349 37.39 220.29 37.9471 220.29 38.7096C220.29 39.3548 220.364 39.8533 220.51 40.2052C220.657 40.5571 220.95 40.7917 221.39 40.909C221.859 41.0263 222.548 41.085 223.457 41.085ZM242.482 45.7477V28.6803H238.391V23.3137H242.482V16.8035H249.608V23.3137H254.491V28.6803H249.608V45.7477H242.482Z" fill="#222222"/>
<path fill-rule="evenodd" clip-rule="evenodd" d="M0.837612 23.7976C1.39835e-06 25.8194 0 28.3798 0 33.5044C0 38.629 1.39835e-06 41.1914 0.837612 43.2111C1.95374 45.9056 4.09446 48.0462 6.78886 49.1623C8.80865 50 11.371 50 16.4956 50H21.9941C27.1774 50 29.771 50 31.3802 48.389C32.9912 46.7798 32.9912 44.1862 32.9912 39.0029V33.5044C32.9912 28.3798 32.9912 25.8194 32.1535 23.7976C31.0374 21.1032 28.8968 18.9626 26.2024 17.8465C24.1807 17.0088 21.6202 17.0088 16.4956 17.0088C11.371 17.0088 8.80865 17.0088 6.78886 17.8465C4.09446 18.9626 1.95374 21.1032 0.837612 23.7976ZM23.827 29.8387C23.827 29.3526 23.6339 28.8864 23.2902 28.5427C22.9465 28.199 22.4802 28.0059 21.9941 28.0059H10.9971C10.511 28.0059 10.0448 28.199 9.70106 28.5427C9.35734 28.8864 9.16423 29.3526 9.16423 29.8387C9.16423 30.3248 9.35734 30.7911 9.70106 31.1347C10.0448 31.4784 10.511 31.6716 10.9971 31.6716H21.9941C22.4802 31.6716 22.9465 31.4784 23.2902 31.1347C23.6339 30.7911 23.827 30.3248 23.827 29.8387ZM23.827 37.1701C23.827 36.684 23.6339 36.2177 23.2902 35.874C22.9465 35.5304 22.4802 35.3372 21.9941 35.3372H16.4956C16.0095 35.3372 15.5433 35.5304 15.1996 35.874C14.8559 36.2177 14.6628 36.684 14.6628 37.1701C14.6628 37.6562 14.8559 38.1224 15.1996 38.4661C15.5433 38.8098 16.0095 39.0029 16.4956 39.0029H21.9941C22.4802 39.0029 22.9465 38.8098 23.2902 38.4661C23.6339 38.1224 23.827 37.6562 23.827 37.1701Z" fill="#0A447F"/>
<path d="M11.7302 14.9561H31.9648V33.4311H11.7302V14.9561Z" fill="white"/>
<path fill-rule="evenodd" clip-rule="evenodd" d="M6.84933 13.5335C6.01172 15.5552 6.01172 18.1156 6.01172 23.2402C6.01172 28.3649 6.01172 30.9272 6.84933 32.947C7.96546 35.6414 10.1062 37.782 12.8006 38.8982C14.8204 39.7358 17.3827 39.7358 22.5073 39.7358H28.0059C33.1891 39.7358 35.7827 39.7358 37.3919 38.1248C39.0029 36.5156 39.0029 33.9221 39.0029 28.7388V23.2402C39.0029 18.1156 39.0029 15.5552 38.1653 13.5335C37.0491 10.8391 34.9085 8.69837 32.2141 7.58224C30.1924 6.74463 27.632 6.74463 22.5073 6.74463C17.3827 6.74463 14.8204 6.74463 12.8006 7.58224C10.1062 8.69837 7.96546 10.8391 6.84933 13.5335ZM29.8387 19.5745C29.8387 19.0885 29.6456 18.6222 29.3019 18.2785C28.9582 17.9348 28.4919 17.7417 28.0059 17.7417H17.0088C16.5227 17.7417 16.0564 17.9348 15.7128 18.2785C15.3691 18.6222 15.1759 19.0885 15.1759 19.5745C15.1759 20.0606 15.3691 20.5269 15.7128 20.8706C16.0564 21.2143 16.5227 21.4074 17.0088 21.4074H28.0059C28.4919 21.4074 28.9582 21.2143 29.3019 20.8706C29.6456 20.5269 29.8387 20.0606 29.8387 19.5745ZM29.8387 26.9059C29.8387 26.4199 29.6456 25.9536 29.3019 25.6099C28.9582 25.2662 28.4919 25.0731 28.0059 25.0731H22.5073C22.0213 25.0731 21.555 25.2662 21.2113 25.6099C20.8676 25.9536 20.6745 26.4199 20.6745 26.9059C20.6745 27.392 20.8676 27.8583 21.2113 28.202C21.555 28.5457 22.0213 28.7388 22.5073 28.7388H28.0059C28.4919 28.7388 28.9582 28.5457 29.3019 28.202C29.6456 27.8583 29.8387 27.392 29.8387 26.9059Z" fill="#0184FE"/>
</g>
<defs>
<clipPath id="clip0_68_27">
<rect width="263.343" height="50" fill="white"/>
</clipPath>
</defs>
</svg>
