<svg width="250" height="43" viewBox="0 0 250 43" fill="none" xmlns="http://www.w3.org/2000/svg">
<path d="M58.3114 38.8328V15.2094H50.207V9.17419H73.9598V15.2094H65.8123V38.8328H58.3114ZM85.0748 39.1777C83.0056 39.1777 81.2956 39.0484 79.9449 38.7897C78.5941 38.5311 77.5164 38.1287 76.7117 37.5827C75.9358 37.0079 75.3466 36.2751 74.9443 35.3842C74.5707 34.4932 74.3264 33.4299 74.2114 32.1941C74.1252 30.9583 74.0821 29.5214 74.0821 27.8833C74.0821 25.9003 74.1683 24.1903 74.3408 22.7534C74.5419 21.3164 74.973 20.1381 75.634 19.2185C76.295 18.2988 77.3152 17.6235 78.6947 17.1924C80.1029 16.7325 81.9997 16.5026 84.385 16.5026C86.3105 16.5026 87.8768 16.6463 89.0839 16.9337C90.2909 17.1924 91.2393 17.6091 91.929 18.1839C92.6475 18.7299 93.1504 19.4484 93.4378 20.3393C93.7539 21.2302 93.9551 22.3079 94.0413 23.5724C94.1275 24.8082 94.1707 26.2452 94.1707 27.8833V29.5645H80.9363C80.9363 30.5416 80.9795 31.332 81.0657 31.9355C81.1519 32.5103 81.3818 32.9413 81.7554 33.2287C82.129 33.5161 82.7038 33.7173 83.4798 33.8322C84.2557 33.9185 85.3334 33.9616 86.7129 33.9616C87.2589 33.9616 87.9056 33.9472 88.6528 33.9185C89.4 33.8897 90.1759 33.8466 90.9806 33.7891C91.8141 33.7317 92.59 33.6742 93.3085 33.6167V38.4449C92.6762 38.5886 91.9003 38.7179 90.9806 38.8328C90.0897 38.9478 89.127 39.034 88.0924 39.0915C87.0578 39.149 86.0519 39.1777 85.0748 39.1777ZM87.6613 26.6762V25.9865C87.6613 24.9519 87.6038 24.1328 87.4888 23.5293C87.4026 22.9258 87.2302 22.4803 86.9715 22.193C86.7416 21.8768 86.4111 21.6757 85.98 21.5894C85.549 21.5032 85.0029 21.4601 84.3419 21.4601C83.5947 21.4601 82.9912 21.5176 82.5314 21.6325C82.1003 21.7188 81.7698 21.9199 81.5399 22.2361C81.31 22.5522 81.1519 23.012 81.0657 23.6155C80.9795 24.2191 80.9363 25.0094 80.9363 25.9865H88.3941L87.6613 26.6762ZM108.51 39.1777C106.671 39.1777 105.162 39.0196 103.984 38.7035C102.806 38.3586 101.872 37.8844 101.182 37.2809C100.492 36.6487 99.9892 35.8727 99.673 34.9531C99.3569 34.0334 99.1557 32.9844 99.0695 31.8061C98.9833 30.5991 98.9402 29.2771 98.9402 27.8402C98.9402 26.432 98.9833 25.1387 99.0695 23.9604C99.1557 22.7821 99.3713 21.7331 99.7161 20.8135C100.061 19.8651 100.564 19.0748 101.225 18.4425C101.915 17.8103 102.834 17.3361 103.984 17.0199C105.162 16.6751 106.657 16.5026 108.467 16.5026C109.617 16.5026 110.766 16.5601 111.916 16.6751C113.094 16.79 114.143 16.9625 115.063 17.1924V22.0636C114.488 21.9774 113.741 21.9056 112.821 21.8481C111.93 21.7906 111.097 21.7619 110.321 21.7619C109.315 21.7619 108.525 21.8481 107.95 22.0205C107.375 22.1642 106.944 22.4516 106.657 22.8827C106.369 23.285 106.168 23.8886 106.053 24.6932C105.967 25.4979 105.924 26.5469 105.924 27.8402C105.924 29.1334 105.967 30.1968 106.053 31.0302C106.168 31.8349 106.369 32.4528 106.657 32.8839C106.944 33.2862 107.389 33.5592 107.993 33.7029C108.596 33.8466 109.387 33.9185 110.364 33.9185C111.054 33.9185 111.83 33.8897 112.692 33.8322C113.583 33.7748 114.431 33.7029 115.235 33.6167V38.488C114.287 38.6891 113.209 38.8472 112.002 38.9622C110.795 39.1059 109.631 39.1777 108.51 39.1777ZM120.49 38.8328V6.80322H127.387V19.3909H127.775C128.206 18.6724 128.723 18.112 129.327 17.7097C129.959 17.2786 130.663 16.9768 131.439 16.8044C132.215 16.632 133.063 16.5457 133.983 16.5457C135.448 16.5457 136.612 16.7325 137.474 17.1062C138.365 17.451 139.041 17.9827 139.501 18.7012C139.96 19.4196 140.262 20.3106 140.406 21.3739C140.578 22.4372 140.664 23.673 140.664 25.0812V38.8328H133.724V27.1935C133.724 26.0152 133.695 25.0956 133.638 24.4346C133.58 23.7449 133.451 23.2419 133.25 22.9258C133.049 22.6097 132.733 22.4229 132.301 22.3654C131.899 22.2792 131.353 22.2361 130.663 22.2361C129.945 22.2361 129.356 22.3223 128.896 22.4947C128.465 22.6384 128.134 22.8971 127.904 23.2707C127.703 23.6443 127.559 24.1759 127.473 24.8657C127.416 25.5267 127.387 26.3601 127.387 27.366V38.8328H120.49ZM170.873 39.1777C168.632 39.1777 166.764 39.034 165.269 38.7466C163.775 38.4305 162.554 37.9276 161.605 37.2378C160.685 36.5481 159.981 35.6284 159.493 34.4789C159.033 33.3293 158.717 31.8924 158.544 30.168C158.372 28.4437 158.286 26.3888 158.286 24.0035C158.286 21.6182 158.372 19.5633 158.544 17.839C158.717 16.1147 159.033 14.6777 159.493 13.5281C159.981 12.3786 160.685 11.4589 161.605 10.7692C162.554 10.0795 163.775 9.59091 165.269 9.30352C166.764 8.98739 168.632 8.82932 170.873 8.82932C171.736 8.82932 172.627 8.85806 173.546 8.91554C174.466 8.97302 175.357 9.05923 176.219 9.17419C177.081 9.28915 177.814 9.43284 178.417 9.60527V14.9938C177.527 14.9076 176.707 14.8358 175.96 14.7783C175.242 14.6921 174.61 14.649 174.063 14.649C173.517 14.6202 173.058 14.6059 172.684 14.6059C171.362 14.6059 170.27 14.6633 169.408 14.7783C168.574 14.8645 167.913 15.0801 167.425 15.4249C166.936 15.7698 166.577 16.2871 166.347 16.9768C166.117 17.6378 165.959 18.5431 165.873 19.6927C165.815 20.8135 165.787 22.2504 165.787 24.0035C165.787 25.7279 165.815 27.1648 165.873 28.3144C165.959 29.4639 166.117 30.3836 166.347 31.0733C166.577 31.763 166.936 32.2803 167.425 32.6252C167.913 32.9413 168.574 33.1569 169.408 33.2718C170.27 33.3581 171.362 33.4012 172.684 33.4012C173.575 33.4012 174.581 33.3724 175.702 33.3149C176.822 33.2287 177.785 33.1281 178.59 33.0132V38.5311C177.958 38.646 177.196 38.7466 176.305 38.8328C175.414 38.9478 174.495 39.034 173.546 39.0915C172.627 39.149 171.736 39.1777 170.873 39.1777ZM184.034 38.8328V6.80322H190.932V19.3909H191.32C191.751 18.6724 192.268 18.112 192.872 17.7097C193.504 17.2786 194.208 16.9768 194.984 16.8044C195.76 16.632 196.608 16.5457 197.527 16.5457C198.993 16.5457 200.157 16.7325 201.019 17.1062C201.91 17.451 202.586 17.9827 203.045 18.7012C203.505 19.4196 203.807 20.3106 203.951 21.3739C204.123 22.4372 204.209 23.673 204.209 25.0812V38.8328H197.269V27.1935C197.269 26.0152 197.24 25.0956 197.183 24.4346C197.125 23.7449 196.996 23.2419 196.795 22.9258C196.593 22.6097 196.277 22.4229 195.846 22.3654C195.444 22.2792 194.898 22.2361 194.208 22.2361C193.49 22.2361 192.9 22.3223 192.441 22.4947C192.01 22.6384 191.679 22.8971 191.449 23.2707C191.248 23.6443 191.104 24.1759 191.018 24.8657C190.961 25.5267 190.932 26.3601 190.932 27.366V38.8328H184.034ZM215.712 39.1777C214.333 39.1777 213.169 38.9622 212.22 38.5311C211.272 38.1 210.553 37.3959 210.065 36.4188C209.605 35.4416 209.375 34.1627 209.375 32.5821C209.375 30.9152 209.562 29.5932 209.936 28.6161C210.338 27.6103 211.042 26.8918 212.048 26.4607C213.054 26.0296 214.476 25.8141 216.316 25.8141C216.574 25.8141 216.933 25.8284 217.393 25.8572C217.882 25.8572 218.428 25.8715 219.031 25.9003C219.635 25.9003 220.238 25.9147 220.842 25.9434C221.445 25.9434 221.992 25.9578 222.48 25.9865V25.1674C222.48 24.334 222.408 23.6874 222.265 23.2276C222.15 22.7677 221.905 22.4372 221.532 22.2361C221.187 22.0062 220.655 21.8768 219.937 21.8481C219.218 21.7906 218.27 21.7619 217.092 21.7619C216.431 21.7619 215.698 21.7762 214.893 21.805C214.117 21.8337 213.341 21.8768 212.565 21.9343C211.818 21.963 211.186 22.0062 210.668 22.0636V17.1924C211.847 16.9912 213.169 16.8331 214.634 16.7182C216.129 16.5745 217.695 16.5026 219.333 16.5026C221.172 16.5026 222.696 16.6176 223.903 16.8475C225.138 17.0774 226.13 17.4367 226.877 17.9252C227.624 18.385 228.17 18.9742 228.515 19.6927C228.889 20.4111 229.133 21.2589 229.248 22.2361C229.363 23.2132 229.421 24.3196 229.421 25.5554V38.8328H222.782L222.609 36.2463H222.265C221.719 37.1085 221.086 37.7551 220.366 38.1862C219.649 38.6173 218.888 38.8903 218.083 39.0053C217.278 39.1202 216.488 39.1777 215.712 39.1777ZM218.988 34.2633C219.506 34.2633 219.951 34.2346 220.325 34.1771C220.727 34.0909 221.058 33.9616 221.316 33.7891C221.604 33.588 221.833 33.3437 222.006 33.0563C222.15 32.7402 222.265 32.3522 222.351 31.8924C222.437 31.4325 222.48 30.8865 222.48 30.2542V29.4352H218.471C217.753 29.4352 217.206 29.4927 216.833 29.6076C216.459 29.6938 216.201 29.9237 216.057 30.2974C215.942 30.6422 215.884 31.1883 215.884 31.9355C215.884 32.5677 215.956 33.0563 216.1 33.4012C216.244 33.746 216.531 33.9759 216.962 34.0909C217.422 34.2059 218.097 34.2633 218.988 34.2633ZM237.633 38.8328V22.1067H233.624V16.8475H237.633V10.4674H244.616V16.8475H249.401V22.1067H244.616V38.8328H237.633Z" fill="#F0F8FF"/>
<path fill-rule="evenodd" clip-rule="evenodd" d="M0.82086 17.3217C1.37038e-06 19.303 0 21.8122 0 26.8343C0 31.8565 1.37038e-06 34.3675 0.82086 36.3469C1.91467 38.9875 4.01257 41.0853 6.65308 42.1791C8.63248 43 11.1436 43 16.1657 43H21.5543C26.6339 43 29.1756 43 30.7526 41.4212C32.3314 39.8442 32.3314 37.3025 32.3314 32.2229V26.8343C32.3314 21.8122 32.3314 19.303 31.5105 17.3217C30.4167 14.6812 28.3189 12.5833 25.6783 11.4895C23.697 10.6686 21.1878 10.6686 16.1657 10.6686C11.1436 10.6686 8.63248 10.6686 6.65308 11.4895C4.01257 12.5833 1.91467 14.6812 0.82086 17.3217ZM23.3505 23.2419C23.3505 22.7656 23.1612 22.3086 22.8244 21.9718C22.4876 21.635 22.0306 21.4457 21.5543 21.4457H10.7771C10.3008 21.4457 9.84389 21.635 9.50704 21.9718C9.17019 22.3086 8.98094 22.7656 8.98094 23.2419C8.98094 23.7183 9.17019 24.1752 9.50704 24.5121C9.84389 24.8489 10.3008 25.0381 10.7771 25.0381H21.5543C22.0306 25.0381 22.4876 24.8489 22.8244 24.5121C23.1612 24.1752 23.3505 23.7183 23.3505 23.2419ZM23.3505 30.4267C23.3505 29.9503 23.1612 29.4934 22.8244 29.1566C22.4876 28.8197 22.0306 28.6305 21.5543 28.6305H16.1657C15.6893 28.6305 15.2324 28.8197 14.8956 29.1566C14.5588 29.4934 14.3695 29.9503 14.3695 30.4267C14.3695 30.903 14.5588 31.36 14.8956 31.6968C15.2324 32.0336 15.6893 32.2229 16.1657 32.2229H21.5543C22.0306 32.2229 22.4876 32.0336 22.8244 31.6968C23.1612 31.36 23.3505 30.903 23.3505 30.4267Z" fill="#0A447F"/>
<path d="M11.4956 8.65689H31.3255V26.7625H11.4956V8.65689Z" fill="#F0F8FF"/>
<path fill-rule="evenodd" clip-rule="evenodd" d="M6.71234 7.26304C5.89148 9.24431 5.89148 11.7535 5.89148 16.7757C5.89148 21.7978 5.89148 24.3089 6.71234 26.2883C7.80614 28.9288 9.90405 31.0266 12.5446 32.1204C14.524 32.9413 17.035 32.9413 22.0572 32.9413H27.4457C32.5254 32.9413 35.067 32.9413 36.6441 31.3626C38.2229 29.7855 38.2229 27.2438 38.2229 22.1642V16.7757C38.2229 11.7535 38.2229 9.24431 37.4019 7.26304C36.3081 4.62251 34.2103 2.52462 31.5698 1.43081C29.5885 0.609955 27.0793 0.609955 22.0572 0.609955C17.035 0.609955 14.524 0.609955 12.5446 1.43081C9.90405 2.52462 7.80614 4.62251 6.71234 7.26304ZM29.2419 13.1833C29.2419 12.7069 29.0527 12.25 28.7159 11.9132C28.379 11.5763 27.9221 11.3871 27.4457 11.3871H16.6686C16.1923 11.3871 15.7353 11.5763 15.3985 11.9132C15.0617 12.25 14.8724 12.7069 14.8724 13.1833C14.8724 13.6596 15.0617 14.1166 15.3985 14.4534C15.7353 14.7902 16.1923 14.9795 16.6686 14.9795H27.4457C27.9221 14.9795 28.379 14.7902 28.7159 14.4534C29.0527 14.1166 29.2419 13.6596 29.2419 13.1833ZM29.2419 20.368C29.2419 19.8917 29.0527 19.4347 28.7159 19.0979C28.379 18.7611 27.9221 18.5718 27.4457 18.5718H22.0572C21.5808 18.5718 21.1239 18.7611 20.7871 19.0979C20.4502 19.4347 20.261 19.8917 20.261 20.368C20.261 20.8444 20.4502 21.3013 20.7871 21.6382C21.1239 21.975 21.5808 22.1642 22.0572 22.1642H27.4457C27.9221 22.1642 28.379 21.975 28.7159 21.6382C29.0527 21.3013 29.2419 20.8444 29.2419 20.368Z" fill="#259DFF"/>
</svg>
