<svg width="35" height="49" viewBox="0 0 35 49" fill="none" xmlns="http://www.w3.org/2000/svg">
<path d="M26.2784 0.54541H2.13068C0.994318 0.54541 0 1.53973 0 2.67609V46H28.4091V2.67609C28.4091 1.53973 27.4148 0.54541 26.2784 0.54541ZM14.2045 41.0284C12.0739 41.0284 10.2273 39.3238 10.2273 37.0511C10.2273 34.7784 12.0739 33.2159 14.2045 33.2159C16.3352 33.2159 18.1818 34.9204 18.1818 37.1931C18.1818 39.4659 16.3352 41.0284 14.2045 41.0284ZM21.3068 29.8068H7.10227V27.534H21.3068V29.8068ZM22.7273 14.1818H5.68182V11.909H22.7273V14.1818ZM22.7273 8.49996H5.68182V6.22723H22.7273V8.49996Z" fill="#0184FE"/>
<circle cx="27.5" cy="41.4999" r="7.5" fill="white"/>
<path d="M26.9643 44.1786C28.7395 44.1786 30.1785 42.7395 30.1785 40.9643C30.1785 39.1891 28.7395 37.75 26.9643 37.75C25.1891 37.75 23.75 39.1891 23.75 40.9643C23.75 42.7395 25.1891 44.1786 26.9643 44.1786Z" stroke="#0184FE" stroke-width="2" stroke-linecap="round" stroke-linejoin="round"/>
<path d="M30.9286 42.4643L29.9643 42.1429M23.9643 39.7857L23 39.4643M25.4643 44.9286L25.7857 43.9643M28.6786 44.9286L28.25 43.8571M25.6786 38.0714L25.25 37M23 42.6786L24.0714 42.25M29.8571 39.6786L30.9286 39.25M28.4643 37L28.1429 37.9643" stroke="#0184FE" stroke-width="2" stroke-linecap="round" stroke-linejoin="round"/>
</svg>
