<svg width="54" height="54" viewBox="0 0 54 54" fill="none" xmlns="http://www.w3.org/2000/svg">
<path d="M28.2632 47.6981C25.9768 49.2846 22.3011 48.4358 21.5053 45.1465C21.3438 44.4801 21.0272 43.8612 20.5814 43.3402C20.1355 42.8192 19.5729 42.4109 18.9394 42.1484C18.3059 41.886 17.6194 41.7768 16.9357 41.8298C16.252 41.8828 15.5905 42.0965 15.0051 42.4535C11.1069 44.8282 6.64295 40.3667 9.01768 36.4661C9.37415 35.8809 9.5875 35.2198 9.64038 34.5366C9.69326 33.8534 9.58419 33.1673 9.32203 32.5342C9.05988 31.9011 8.65203 31.3388 8.13164 30.8929C7.61125 30.4471 6.993 30.1303 6.32716 29.9684C1.89095 28.8922 1.89095 22.5815 6.32716 21.5053C6.9936 21.3438 7.61249 21.0272 8.13347 20.5814C8.65445 20.1355 9.06279 19.5729 9.32525 18.9394C9.58772 18.3059 9.69689 17.6194 9.64388 16.9357C9.59087 16.252 9.37719 15.5905 9.02021 15.0051C6.64547 11.1069 11.1069 6.64295 15.0076 9.01768C17.5339 10.5537 20.808 9.19453 21.5053 6.32716C22.5815 1.89095 28.8922 1.89095 29.9684 6.32716C30.1299 6.9936 30.4465 7.61249 30.8923 8.13347C31.3382 8.65445 31.9008 9.06279 32.5343 9.32525C33.1678 9.58772 33.8543 9.69689 34.538 9.64388C35.2217 9.59087 35.8832 9.37719 36.4686 9.02021C40.3667 6.64547 44.8307 11.1069 42.456 15.0076C42.0995 15.5928 41.8862 16.2539 41.8333 16.9371C41.7804 17.6203 41.8895 18.3064 42.1517 18.9395C42.4138 19.5726 42.8217 20.1349 43.342 20.5808C43.8624 21.0266 44.4807 21.3433 45.1465 21.5053C48.9158 22.4198 49.4817 27.1112 46.8493 29.16" stroke="#0184FE" stroke-width="5" stroke-linecap="round" stroke-linejoin="round"/>
<path d="M18.1579 25.7369C18.1579 27.747 18.9564 29.6747 20.3777 31.096C21.799 32.5174 23.7268 33.3159 25.7368 33.3159C27.7469 33.3159 29.6746 32.5174 31.096 31.096C32.5173 29.6747 33.3158 27.747 33.3158 25.7369C33.3158 23.7268 32.5173 21.7991 31.096 20.3778C29.6746 18.9565 27.7469 18.158 25.7368 18.158C23.7268 18.158 21.799 18.9565 20.3777 20.3778C18.9564 21.7991 18.1579 23.7268 18.1579 25.7369ZM38.3684 51.0001L51 43.4211L38.3684 35.8422V51.0001Z" stroke="#0184FE" stroke-width="5" stroke-linecap="round" stroke-linejoin="round"/>
</svg>
