<svg width="41" height="50" viewBox="0 0 41 50" fill="none" xmlns="http://www.w3.org/2000/svg">
<path d="M20.4545 0L0 9.09091V22.7273C0 35.3409 8.72727 47.1364 20.4545 50C32.1818 47.1364 40.9091 35.3409 40.9091 22.7273V9.09091L20.4545 0ZM20.4545 13.6364C23.6364 13.6364 26.8182 16.1364 26.8182 19.3182V22.7273C28.1818 22.7273 29.5455 24.0909 29.5455 25.6818V33.6364C29.5455 35 28.1818 36.3636 26.5909 36.3636H14.0909C12.7273 36.3636 11.3636 35 11.3636 33.4091V25.4545C11.3636 24.0909 12.7273 22.7273 14.0909 22.7273V19.3182C14.0909 16.1364 17.2727 13.6364 20.4545 13.6364ZM20.4545 16.3636C18.6364 16.3636 17.0455 17.5 17.0455 19.3182V22.7273H23.8636V19.3182C23.8636 17.5 22.2727 16.3636 20.4545 16.3636Z" fill="#0184FE"/>
</svg>
