<svg width="50" height="50" viewBox="0 0 50 50" fill="none" xmlns="http://www.w3.org/2000/svg">
<g clip-path="url(#clip0_12_93)">
<path d="M7.29166 38.3333C8.19905 38.3333 9.08601 38.0639 9.84018 37.5594C10.5943 37.0548 11.1818 36.3378 11.5281 35.4991C11.8743 34.6604 11.9639 33.7378 11.7853 32.8481C11.6068 31.9585 11.1682 31.1418 10.5251 30.5017C9.88205 29.8615 9.06344 29.4267 8.17299 29.2522C7.28254 29.0777 6.36034 29.1714 5.52321 29.5215C4.68609 29.8716 3.97172 30.4623 3.47061 31.2188C2.9695 31.9752 2.70421 32.8634 2.70833 33.7708C2.71384 34.9828 3.19916 36.1432 4.0581 36.9982C4.91705 37.8533 6.07969 38.3333 7.29166 38.3333Z" fill="#0184FE"/>
<path d="M7.29165 40C5.71724 40.0035 4.18387 40.5024 2.90881 41.426C1.63375 42.3496 0.681671 43.651 0.187485 45.1458C0.152205 45.2208 0.133911 45.3026 0.133911 45.3854C0.133911 45.4682 0.152205 45.5501 0.187485 45.625C0.24122 45.689 0.308095 45.7408 0.383579 45.7767C0.459062 45.8127 0.541391 45.832 0.624985 45.8333H13.8958C13.9794 45.832 14.0617 45.8127 14.1372 45.7767C14.2127 45.7408 14.2796 45.689 14.3333 45.625C14.3686 45.5501 14.3869 45.4682 14.3869 45.3854C14.3869 45.3026 14.3686 45.2208 14.3333 45.1458C13.8425 43.661 12.8999 42.3668 11.6374 41.4441C10.3748 40.5215 8.85535 40.0166 7.29165 40Z" fill="#0184FE"/>
<path d="M38.125 33.7708C38.1291 34.6764 38.4014 35.5605 38.9075 36.3115C39.4136 37.0624 40.1309 37.6466 40.9687 37.9904C41.8066 38.3341 42.7275 38.4219 43.6152 38.2427C44.5029 38.0635 45.3176 37.6253 45.9565 36.9835C46.5954 36.3417 47.0299 35.525 47.2051 34.6365C47.3802 33.748 47.2882 32.8275 46.9407 31.9912C46.5932 31.1549 46.0058 30.4403 45.2525 29.9376C44.4992 29.4349 43.6139 29.1666 42.7083 29.1666C42.1047 29.1666 41.507 29.2859 40.9495 29.5175C40.3921 29.7491 39.8859 30.0886 39.46 30.5164C39.0342 30.9442 38.697 31.4519 38.4679 32.0104C38.2388 32.5689 38.1222 33.1671 38.125 33.7708Z" fill="#0184FE"/>
<path d="M42.7083 40C41.1339 40.0035 39.6005 40.5024 38.3255 41.426C37.0504 42.3496 36.0983 43.651 35.6041 45.1458C35.5689 45.2208 35.5506 45.3026 35.5506 45.3854C35.5506 45.4682 35.5689 45.5501 35.6041 45.625C35.6579 45.689 35.7248 45.7408 35.8002 45.7767C35.8757 45.8127 35.958 45.832 36.0416 45.8333H49.25C49.3336 45.832 49.4159 45.8127 49.4914 45.7767C49.5669 45.7408 49.6337 45.689 49.6875 45.625C49.7228 45.5501 49.741 45.4682 49.741 45.3854C49.741 45.3026 49.7228 45.2208 49.6875 45.1458C49.2002 43.671 48.2671 42.3838 47.0169 41.4621C45.7668 40.5403 44.2613 40.0295 42.7083 40Z" fill="#0184FE"/>
<path d="M20.4167 37.9167C20.4167 39.1323 20.8995 40.2981 21.7591 41.1576C22.6186 42.0172 23.7844 42.5 25 42.5C26.2156 42.5 27.3814 42.0172 28.2409 41.1576C29.1004 40.2981 29.5833 39.1323 29.5833 37.9167C29.5833 36.7011 29.1004 35.5353 28.2409 34.6758C27.3814 33.8163 26.2156 33.3334 25 33.3334C23.7844 33.3334 22.6186 33.8163 21.7591 34.6758C20.8995 35.5353 20.4167 36.7011 20.4167 37.9167Z" fill="#0184FE"/>
<path d="M25 44.1666C23.4256 44.1702 21.8922 44.669 20.6171 45.5926C19.3421 46.5162 18.39 47.8176 17.8958 49.3125C17.8593 49.3833 17.8402 49.4619 17.8402 49.5416C17.8402 49.6214 17.8593 49.6999 17.8958 49.7708C17.9454 49.8409 18.0109 49.8983 18.0869 49.9381C18.163 49.978 18.2475 49.9992 18.3333 50H31.5417C31.6275 49.9992 31.712 49.978 31.788 49.9381C31.8641 49.8983 31.9296 49.8409 31.9792 49.7708C32.0157 49.6999 32.0348 49.6214 32.0348 49.5416C32.0348 49.4619 32.0157 49.3833 31.9792 49.3125C31.4919 47.8376 30.5588 46.5505 29.3086 45.6287C28.0584 44.707 26.5529 44.1961 25 44.1666Z" fill="#0184FE"/>
<path d="M25.7917 32.1458C26.1754 31.9882 26.5033 31.7196 26.7335 31.3744C26.9636 31.0292 27.0854 30.6232 27.0833 30.2083V25.5208C27.0833 25.3827 27.1382 25.2502 27.2359 25.1525C27.3336 25.0549 27.466 25 27.6042 25H40.625C41.7301 25 42.7899 24.561 43.5713 23.7796C44.3527 22.9982 44.7917 21.9384 44.7917 20.8333V4.16667C44.7917 3.0616 44.3527 2.00179 43.5713 1.22039C42.7899 0.438987 41.7301 0 40.625 0L13.5417 0C12.4366 0 11.3768 0.438987 10.5954 1.22039C9.81399 2.00179 9.375 3.0616 9.375 4.16667V20.8333C9.375 21.9384 9.81399 22.9982 10.5954 23.7796C11.3768 24.561 12.4366 25 13.5417 25H16.6667C16.7372 25.0009 16.8068 25.0162 16.8713 25.0448C16.9357 25.0735 16.9937 25.1149 17.0417 25.1667L23.5625 31.6875C23.8496 31.9718 24.2132 32.1666 24.609 32.2479C25.0048 32.3293 25.4157 32.2938 25.7917 32.1458ZM25 20.8333C24.4475 20.8333 23.9176 21.0528 23.5269 21.4435C23.1362 21.8342 22.9167 22.3641 22.9167 22.9167V23.9167C22.9196 24.0242 22.8891 24.1301 22.8294 24.2196C22.7697 24.3091 22.6837 24.378 22.5833 24.4167C22.487 24.4485 22.3839 24.4537 22.2849 24.4317C22.1858 24.4097 22.0946 24.3613 22.0208 24.2917L19.1875 21.4583C18.9946 21.2615 18.7645 21.1049 18.5106 20.9976C18.2566 20.8903 17.984 20.8345 17.7083 20.8333H14.0625C13.9244 20.8333 13.7919 20.7785 13.6942 20.6808C13.5965 20.5831 13.5417 20.4506 13.5417 20.3125V4.6875C13.5417 4.54937 13.5965 4.41689 13.6942 4.31922C13.7919 4.22154 13.9244 4.16667 14.0625 4.16667H40.1042C40.2423 4.16667 40.3748 4.22154 40.4725 4.31922C40.5701 4.41689 40.625 4.54937 40.625 4.6875V20.3125C40.6207 20.4505 40.5692 20.5828 40.4792 20.6875C40.4302 20.7365 40.3715 20.7747 40.307 20.7998C40.2424 20.8249 40.1734 20.8363 40.1042 20.8333H25Z" fill="#0184FE"/>
<path d="M33.8541 15.625C33.8488 15.2123 33.6824 14.818 33.3905 14.5261C33.0987 14.2342 32.7044 14.0679 32.2916 14.0625H17.7083C17.2939 14.0625 16.8965 14.2271 16.6035 14.5201C16.3104 14.8132 16.1458 15.2106 16.1458 15.625C16.1458 16.0394 16.3104 16.4368 16.6035 16.7299C16.8965 17.0229 17.2939 17.1875 17.7083 17.1875H32.2916C32.706 17.1875 33.1035 17.0229 33.3965 16.7299C33.6895 16.4368 33.8541 16.0394 33.8541 15.625Z" fill="#0184FE"/>
<path d="M16.1458 9.37502C16.1458 9.78942 16.3105 10.1868 16.6035 10.4799C16.8965 10.7729 17.2939 10.9375 17.7083 10.9375H36.4583C36.8727 10.9375 37.2702 10.7729 37.5632 10.4799C37.8562 10.1868 38.0208 9.78942 38.0208 9.37502C38.0208 8.96062 37.8562 8.56319 37.5632 8.27017C37.2702 7.97714 36.8727 7.81252 36.4583 7.81252H17.7083C17.5024 7.80972 17.2979 7.84822 17.1071 7.92575C16.9163 8.00328 16.7429 8.11827 16.5972 8.26392C16.4516 8.40957 16.3366 8.58294 16.2591 8.77378C16.1815 8.96461 16.143 9.16905 16.1458 9.37502Z" fill="#0184FE"/>
</g>
<defs>
<clipPath id="clip0_12_93">
<rect width="50" height="50" fill="white"/>
</clipPath>
</defs>
</svg>
