<svg width="63" height="50" viewBox="0 0 63 50" fill="none" xmlns="http://www.w3.org/2000/svg">
<g clip-path="url(#clip0_6_99)">
<path d="M37.5 9.375V31.25H6.25V9.375H37.5ZM6.25 3.125C2.80273 3.125 0 5.92773 0 9.375V31.25C0 34.6973 2.80273 37.5 6.25 37.5H17.7051L16.6602 40.625H9.375C7.64648 40.625 6.25 42.0215 6.25 43.75C6.25 45.4785 7.64648 46.875 9.375 46.875H34.375C36.1035 46.875 37.5 45.4785 37.5 43.75C37.5 42.0215 36.1035 40.625 34.375 40.625H27.0801L26.0352 37.5H37.5C40.9473 37.5 43.75 34.6973 43.75 31.25V9.375C43.75 5.92773 40.9473 3.125 37.5 3.125H6.25ZM51.5625 3.125C48.9746 3.125 46.875 5.22461 46.875 7.8125V42.1875C46.875 44.7754 48.9746 46.875 51.5625 46.875H57.8125C60.4004 46.875 62.5 44.7754 62.5 42.1875V7.8125C62.5 5.22461 60.4004 3.125 57.8125 3.125H51.5625ZM53.125 9.375H56.25C57.1094 9.375 57.8125 10.0781 57.8125 10.9375C57.8125 11.7969 57.1094 12.5 56.25 12.5H53.125C52.2656 12.5 51.5625 11.7969 51.5625 10.9375C51.5625 10.0781 52.2656 9.375 53.125 9.375ZM51.5625 17.1875C51.5625 16.3281 52.2656 15.625 53.125 15.625H56.25C57.1094 15.625 57.8125 16.3281 57.8125 17.1875C57.8125 18.0469 57.1094 18.75 56.25 18.75H53.125C52.2656 18.75 51.5625 18.0469 51.5625 17.1875ZM54.6875 32.8125C55.5163 32.8125 56.3112 33.1417 56.8972 33.7278C57.4833 34.3138 57.8125 35.1087 57.8125 35.9375C57.8125 36.7663 57.4833 37.5612 56.8972 38.1472C56.3112 38.7333 55.5163 39.0625 54.6875 39.0625C53.8587 39.0625 53.0638 38.7333 52.4778 38.1472C51.8917 37.5612 51.5625 36.7663 51.5625 35.9375C51.5625 35.1087 51.8917 34.3138 52.4778 33.7278C53.0638 33.1417 53.8587 32.8125 54.6875 32.8125Z" fill="#0184FE"/>
</g>
<defs>
<clipPath id="clip0_6_99">
<rect width="62.5" height="50" fill="white"/>
</clipPath>
</defs>
</svg>
