<svg width="50" height="50" viewBox="0 0 50 50" fill="none" xmlns="http://www.w3.org/2000/svg">
<path fill-rule="evenodd" clip-rule="evenodd" d="M21.3931 12.6278C22.6146 12.8581 23.7598 13.3883 24.7256 14.1708C25.6915 14.9533 26.4479 15.9634 26.9267 17.1106C27.4055 18.2577 27.5918 19.5059 27.4688 20.7428C27.3459 21.9798 26.9175 23.1668 26.2222 24.1972L45.4361 39.1111C46.0619 38.7869 46.7789 38.6838 47.4706 38.8184C48.1624 38.953 48.7884 39.3176 49.2469 39.8528C49.7054 40.388 49.9695 41.0625 49.9964 41.7667C50.0232 42.471 49.8112 43.1636 49.3948 43.7322C48.9784 44.3008 48.3821 44.712 47.7026 44.8989C47.023 45.0858 46.3003 45.0376 45.6516 44.762C45.003 44.4864 44.4666 43.9997 44.1294 43.3808C43.7923 42.7619 43.6742 42.0472 43.7944 41.3528L24.2528 26.1833C23.3326 26.8139 22.2833 27.2313 21.1813 27.4051C20.0794 27.5788 18.9525 27.5046 17.8829 27.1877C16.8133 26.8709 15.8279 26.3194 14.9983 25.5735C14.1688 24.8276 13.5161 23.9061 13.0879 22.876C12.6596 21.8459 12.4665 20.7333 12.5226 19.6191C12.5788 18.505 12.8828 17.4174 13.4124 16.4356C13.9421 15.4538 14.6841 14.6026 15.5844 13.9438C16.4847 13.2851 17.5206 12.8355 18.6167 12.6278L18.6139 0H21.3917L21.3931 12.6278ZM22.5028 20C22.5028 20.3283 22.4381 20.6534 22.3125 20.9567C22.1868 21.26 22.0027 21.5356 21.7705 21.7678C21.5384 21.9999 21.2628 22.1841 20.9595 22.3097C20.6562 22.4353 20.3311 22.5 20.0028 22.5C19.6745 22.5 19.3494 22.4353 19.0461 22.3097C18.7428 22.1841 18.4672 21.9999 18.235 21.7678C18.0029 21.5356 17.8187 21.26 17.6931 20.9567C17.5674 20.6534 17.5028 20.3283 17.5028 20C17.5028 19.337 17.7662 18.7011 18.235 18.2322C18.7038 17.7634 19.3397 17.5 20.0028 17.5C20.6658 17.5 21.3017 17.7634 21.7705 18.2322C22.2394 18.7011 22.5028 19.337 22.5028 20Z" fill="#0184FE"/>
<path d="M30.0361 19.9778C30.0367 18.0566 29.4839 16.1758 28.4437 14.5606C27.4036 12.9453 25.9201 11.6638 24.1708 10.8694V0.147217C30.1278 0.670828 33.2222 2.54722 35.9931 5.11527C36.1329 5.24583 36.2699 5.37222 36.4042 5.49444C37.5847 6.57777 38.5236 7.44166 39.0083 8.73333L44.8889 24.3889C45.0461 24.8091 45.0993 25.2611 45.0437 25.7063C44.9882 26.1516 44.8256 26.5767 44.57 26.9454C44.3143 27.3141 43.9731 27.6154 43.5756 27.8234C43.1781 28.0315 42.7362 28.1402 42.2875 28.1403H40.0222V31.3889L29.5014 23.2194C29.8575 22.1763 30.0386 21.0814 30.0375 19.9792M15.8375 10.8972V0.334717C3.35139 2.21388 0 11.5292 0 16.6319C0 24.6417 5.11528 30.8542 7.51389 33.3444V50H31.2806V40.9555H37.2431C37.6625 40.9555 38.0625 40.8611 38.4181 40.6944L23.7167 29.2778C21.2868 30.2805 18.5599 30.2862 16.1259 29.2936C13.6919 28.3009 11.7466 26.3899 10.7109 23.9739C9.67523 21.5579 9.63249 18.8313 10.5919 16.384C11.5514 13.9367 13.4358 11.9656 15.8375 10.8972Z" fill="#0184FE"/>
</svg>
