<svg width="48" height="48" viewBox="0 0 48 48" fill="none" xmlns="http://www.w3.org/2000/svg">
<path d="M18 33.5H17.5V34V40C17.5 41.9261 19.0739 43.5 21 43.5H42C43.9261 43.5 45.5 41.9261 45.5 40V19C45.5 17.0739 43.9261 15.5 42 15.5H36H35.5V16V19V19.5H36H41.5V39.5H21.5V34V33.5H21H18Z" fill="#0184FE" stroke="#0184FE"/>
<path d="M16 28C15.7239 28 15.5 28.2239 15.5 28.5V31.5C15.5 31.7761 15.7239 32 16 32H25H34C34.2761 32 34.5 31.7761 34.5 31.5V28.5C34.5 28.2239 34.2761 28 34 28H25H16ZM16 22C15.7239 22 15.5 22.2239 15.5 22.5V25.4C15.5 25.6761 15.7239 25.9 16 25.9H34C34.2761 25.9 34.5 25.6761 34.5 25.4V22.5C34.5 22.2239 34.2761 22 34 22H25H16ZM16 15.5C15.7239 15.5 15.5 15.7239 15.5 16V19C15.5 19.2761 15.7239 19.5 16 19.5H25H33.5C33.7761 19.5 34 19.2761 34 19V16C34 15.7239 33.7761 15.5 33.5 15.5H25H16Z" fill="#0184FE" stroke="#0184FE" stroke-linejoin="round"/>
<path d="M31.5 14H32V13.5V7.5C32 5.57386 30.4261 4 28.5 4H7.5C5.57386 4 4 5.57386 4 7.5V28.5C4 30.4261 5.57386 32 7.5 32H13.5H14V31.5V28.5V28H13.5H8V8H28V13.5V14H28.5H31.5Z" fill="#0184FE" stroke="#0184FE"/>
</svg>
