<svg width="50" height="56" viewBox="0 0 50 56" fill="none" xmlns="http://www.w3.org/2000/svg">
<path fill-rule="evenodd" clip-rule="evenodd" d="M48.9262 21.8609C50 24.4525 50 27.735 50 34.3045C50 40.8741 50 44.1588 48.9262 46.7481C47.4954 50.2022 44.7511 52.9465 41.297 54.3773C38.7077 55.4511 35.4229 55.4511 28.8534 55.4511H21.8045C15.1598 55.4511 11.835 55.4511 9.77208 53.3858C7.70676 51.3228 7.70676 47.9981 7.70676 41.3534V34.3045C7.70676 27.735 7.70676 24.4525 8.78053 21.8609C10.2114 18.4068 12.9557 15.6625 16.4098 14.2317C19.0014 13.1579 22.2838 13.1579 28.8534 13.1579C35.4229 13.1579 38.7077 13.1579 41.297 14.2317C44.7511 15.6625 47.4954 18.4068 48.9262 21.8609ZM19.4549 29.6053C19.4549 28.9821 19.7024 28.3845 20.1431 27.9438C20.5837 27.5032 21.1813 27.2556 21.8045 27.2556H35.9022C36.5254 27.2556 37.123 27.5032 37.5637 27.9438C38.0043 28.3845 38.2519 28.9821 38.2519 29.6053C38.2519 30.2284 38.0043 30.8261 37.5637 31.2667C37.123 31.7073 36.5254 31.9549 35.9022 31.9549H21.8045C21.1813 31.9549 20.5837 31.7073 20.1431 31.2667C19.7024 30.8261 19.4549 30.2284 19.4549 29.6053ZM19.4549 39.0038C19.4549 38.3806 19.7024 37.783 20.1431 37.3423C20.5837 36.9017 21.1813 36.6541 21.8045 36.6541H28.8534C29.4765 36.6541 30.0742 36.9017 30.5148 37.3423C30.9554 37.783 31.203 38.3806 31.203 39.0038C31.203 39.6269 30.9554 40.2246 30.5148 40.6652C30.0742 41.1058 29.4765 41.3534 28.8534 41.3534H21.8045C21.1813 41.3534 20.5837 41.1058 20.1431 40.6652C19.7024 40.2246 19.4549 39.6269 19.4549 39.0038Z" fill="#0A447F"/>
<rect x="9.02255" y="10.5263" width="25.9398" height="23.6842" fill="#F0F8FF"/>
<path fill-rule="evenodd" clip-rule="evenodd" d="M41.2195 8.70301C42.2932 11.2946 42.2932 14.5771 42.2932 21.1466C42.2932 27.7162 42.2932 31.0009 41.2195 33.5902C39.7886 37.0443 37.0443 39.7886 33.5902 41.2195C31.0009 42.2932 27.7162 42.2932 21.1466 42.2932H14.0977C7.45301 42.2932 4.12829 42.2932 2.06532 40.2279C-1.40048e-07 38.1649 0 34.8402 0 28.1955V21.1466C0 14.5771 7.00242e-08 11.2946 1.07378 8.70301C2.50461 5.2489 5.2489 2.50461 8.70301 1.07378C11.2946 7.00242e-08 14.5771 0 21.1466 0C27.7162 0 31.0009 7.00242e-08 33.5902 1.07378C37.0443 2.50461 39.7886 5.2489 41.2195 8.70301ZM11.7481 16.4474C11.7481 15.8242 11.9957 15.2266 12.4363 14.7859C12.8769 14.3453 13.4746 14.0977 14.0977 14.0977H28.1955C28.8186 14.0977 29.4163 14.3453 29.8569 14.7859C30.2976 15.2266 30.5451 15.8242 30.5451 16.4474C30.5451 17.0705 30.2976 17.6682 29.8569 18.1088C29.4163 18.5494 28.8186 18.797 28.1955 18.797H14.0977C13.4746 18.797 12.8769 18.5494 12.4363 18.1088C11.9957 17.6682 11.7481 17.0705 11.7481 16.4474ZM11.7481 25.8459C11.7481 25.2227 11.9957 24.6251 12.4363 24.1844C12.8769 23.7438 13.4746 23.4962 14.0977 23.4962H21.1466C21.7698 23.4962 22.3674 23.7438 22.8081 24.1844C23.2487 24.6251 23.4962 25.2227 23.4962 25.8459C23.4962 26.469 23.2487 27.0667 22.8081 27.5073C22.3674 27.9479 21.7698 28.1955 21.1466 28.1955H14.0977C13.4746 28.1955 12.8769 27.9479 12.4363 27.5073C11.9957 27.0667 11.7481 26.469 11.7481 25.8459Z" fill="#0184FE"/>
</svg>
